<svg width="220" height="60" viewBox="0 0 220 60" fill="none" xmlns="http://www.w3.org/2000/svg">
<rect width="220" height="60" rx="5" fill="#2F80ED"/>
<path d="M52.2695 30.707H58.5742V39.3086C57.543 39.6445 56.5508 39.8828 55.5977 40.0234C54.6523 40.1641 53.6289 40.2344 52.5273 40.2344C49.9336 40.2344 47.9336 39.4688 46.5273 37.9375C45.1211 36.3984 44.418 34.2305 44.418 31.4336C44.418 28.6758 45.2109 26.5195 46.7969 24.9648C48.3828 23.4023 50.5664 22.6211 53.3477 22.6211C55.1367 22.6211 56.832 22.9648 58.4336 23.6523L57.4492 25.9844C56.0586 25.3438 54.668 25.0234 53.2773 25.0234C51.4492 25.0234 50.0039 25.5977 48.9414 26.7461C47.8789 27.8945 47.3477 29.4648 47.3477 31.457C47.3477 33.5508 47.8242 35.1445 48.7773 36.2383C49.7383 37.3242 51.1172 37.8672 52.9141 37.8672C53.8203 37.8672 54.7891 37.7539 55.8203 37.5273V33.1094H52.2695V30.707ZM68.0664 40.2344C66.0508 40.2344 64.4727 39.6484 63.332 38.4766C62.1992 37.2969 61.6328 35.6758 61.6328 33.6133C61.6328 31.4961 62.1602 29.832 63.2148 28.6211C64.2695 27.4102 65.7188 26.8047 67.5625 26.8047C69.2734 26.8047 70.625 27.3242 71.6172 28.3633C72.6094 29.4023 73.1055 30.832 73.1055 32.6523V34.1406H64.4688C64.5078 35.3984 64.8477 36.3672 65.4883 37.0469C66.1289 37.7188 67.0312 38.0547 68.1953 38.0547C68.9609 38.0547 69.6719 37.9844 70.3281 37.8438C70.9922 37.6953 71.7031 37.4531 72.4609 37.1172V39.3555C71.7891 39.6758 71.1094 39.9023 70.4219 40.0352C69.7344 40.168 68.9492 40.2344 68.0664 40.2344ZM67.5625 28.8906C66.6875 28.8906 65.9844 29.168 65.4531 29.7227C64.9297 30.2773 64.6172 31.0859 64.5156 32.1484H70.3984C70.3828 31.0781 70.125 30.2695 69.625 29.7227C69.125 29.168 68.4375 28.8906 67.5625 28.8906ZM81.0625 38.0078C81.7344 38.0078 82.4062 37.9023 83.0781 37.6914V39.7656C82.7734 39.8984 82.3789 40.0078 81.8945 40.0938C81.418 40.1875 80.9219 40.2344 80.4062 40.2344C77.7969 40.2344 76.4922 38.8594 76.4922 36.1094V29.125H74.7227V27.9062L76.6211 26.8984L77.5586 24.1562H79.2578V27.0391H82.9492V29.125H79.2578V36.0625C79.2578 36.7266 79.4219 37.2188 79.75 37.5391C80.0859 37.8516 80.5234 38.0078 81.0625 38.0078ZM102.086 35.3477C102.086 36.8711 101.535 38.0664 100.434 38.9336C99.332 39.8008 97.8125 40.2344 95.875 40.2344C93.9375 40.2344 92.3516 39.9336 91.1172 39.332V36.6836C91.8984 37.0508 92.7266 37.3398 93.6016 37.5508C94.4844 37.7617 95.3047 37.8672 96.0625 37.8672C97.1719 37.8672 97.9883 37.6562 98.5117 37.2344C99.043 36.8125 99.3086 36.2461 99.3086 35.5352C99.3086 34.8945 99.0664 34.3516 98.582 33.9062C98.0977 33.4609 97.0977 32.9336 95.582 32.3242C94.0195 31.6914 92.918 30.9688 92.2773 30.1562C91.6367 29.3438 91.3164 28.3672 91.3164 27.2266C91.3164 25.7969 91.8242 24.6719 92.8398 23.8516C93.8555 23.0312 95.2188 22.6211 96.9297 22.6211C98.5703 22.6211 100.203 22.9805 101.828 23.6992L100.938 25.9844C99.4141 25.3438 98.0547 25.0234 96.8594 25.0234C95.9531 25.0234 95.2656 25.2227 94.7969 25.6211C94.3281 26.0117 94.0938 26.5312 94.0938 27.1797C94.0938 27.625 94.1875 28.0078 94.375 28.3281C94.5625 28.6406 94.8711 28.9375 95.3008 29.2188C95.7305 29.5 96.5039 29.8711 97.6211 30.332C98.8789 30.8555 99.8008 31.3438 100.387 31.7969C100.973 32.25 101.402 32.7617 101.676 33.332C101.949 33.9023 102.086 34.5742 102.086 35.3477ZM109.938 38.0078C110.609 38.0078 111.281 37.9023 111.953 37.6914V39.7656C111.648 39.8984 111.254 40.0078 110.77 40.0938C110.293 40.1875 109.797 40.2344 109.281 40.2344C106.672 40.2344 105.367 38.8594 105.367 36.1094V29.125H103.598V27.9062L105.496 26.8984L106.434 24.1562H108.133V27.0391H111.824V29.125H108.133V36.0625C108.133 36.7266 108.297 37.2188 108.625 37.5391C108.961 37.8516 109.398 38.0078 109.938 38.0078ZM122.664 40L122.113 38.1953H122.02C121.395 38.9844 120.766 39.5234 120.133 39.8125C119.5 40.0938 118.688 40.2344 117.695 40.2344C116.422 40.2344 115.426 39.8906 114.707 39.2031C113.996 38.5156 113.641 37.543 113.641 36.2852C113.641 34.9492 114.137 33.9414 115.129 33.2617C116.121 32.582 117.633 32.2109 119.664 32.1484L121.902 32.0781V31.3867C121.902 30.5586 121.707 29.9414 121.316 29.5352C120.934 29.1211 120.336 28.9141 119.523 28.9141C118.859 28.9141 118.223 29.0117 117.613 29.207C117.004 29.4023 116.418 29.6328 115.855 29.8984L114.965 27.9297C115.668 27.5625 116.438 27.2852 117.273 27.0977C118.109 26.9023 118.898 26.8047 119.641 26.8047C121.289 26.8047 122.531 27.1641 123.367 27.8828C124.211 28.6016 124.633 29.7305 124.633 31.2695V40H122.664ZM118.562 38.125C119.562 38.125 120.363 37.8477 120.965 37.293C121.574 36.7305 121.879 35.9453 121.879 34.9375V33.8125L120.215 33.8828C118.918 33.9297 117.973 34.1484 117.379 34.5391C116.793 34.9219 116.5 35.5117 116.5 36.3086C116.5 36.8867 116.672 37.3359 117.016 37.6562C117.359 37.9688 117.875 38.125 118.562 38.125ZM135.051 26.8047C135.605 26.8047 136.062 26.8438 136.422 26.9219L136.152 29.4883C135.762 29.3945 135.355 29.3477 134.934 29.3477C133.832 29.3477 132.938 29.707 132.25 30.4258C131.57 31.1445 131.23 32.0781 131.23 33.2266V40H128.477V27.0391H130.633L130.996 29.3242H131.137C131.566 28.5508 132.125 27.9375 132.812 27.4844C133.508 27.0312 134.254 26.8047 135.051 26.8047ZM143.664 38.0078C144.336 38.0078 145.008 37.9023 145.68 37.6914V39.7656C145.375 39.8984 144.98 40.0078 144.496 40.0938C144.02 40.1875 143.523 40.2344 143.008 40.2344C140.398 40.2344 139.094 38.8594 139.094 36.1094V29.125H137.324V27.9062L139.223 26.8984L140.16 24.1562H141.859V27.0391H145.551V29.125H141.859V36.0625C141.859 36.7266 142.023 37.2188 142.352 37.5391C142.688 37.8516 143.125 38.0078 143.664 38.0078ZM153.941 40.2344C151.926 40.2344 150.348 39.6484 149.207 38.4766C148.074 37.2969 147.508 35.6758 147.508 33.6133C147.508 31.4961 148.035 29.832 149.09 28.6211C150.145 27.4102 151.594 26.8047 153.438 26.8047C155.148 26.8047 156.5 27.3242 157.492 28.3633C158.484 29.4023 158.98 30.832 158.98 32.6523V34.1406H150.344C150.383 35.3984 150.723 36.3672 151.363 37.0469C152.004 37.7188 152.906 38.0547 154.07 38.0547C154.836 38.0547 155.547 37.9844 156.203 37.8438C156.867 37.6953 157.578 37.4531 158.336 37.1172V39.3555C157.664 39.6758 156.984 39.9023 156.297 40.0352C155.609 40.168 154.824 40.2344 153.941 40.2344ZM153.438 28.8906C152.562 28.8906 151.859 29.168 151.328 29.7227C150.805 30.2773 150.492 31.0859 150.391 32.1484H156.273C156.258 31.0781 156 30.2695 155.5 29.7227C155 29.168 154.312 28.8906 153.438 28.8906ZM166.48 40.2344C164.863 40.2344 163.602 39.6484 162.695 38.4766C161.789 37.3047 161.336 35.6602 161.336 33.543C161.336 31.418 161.793 29.7656 162.707 28.5859C163.629 27.3984 164.902 26.8047 166.527 26.8047C168.23 26.8047 169.527 27.4336 170.418 28.6914H170.559C170.426 27.7617 170.359 27.0273 170.359 26.4883V21.7656H173.125V40H170.969L170.488 38.3008H170.359C169.477 39.5898 168.184 40.2344 166.48 40.2344ZM167.219 38.0078C168.352 38.0078 169.176 37.6914 169.691 37.0586C170.207 36.418 170.473 35.3828 170.488 33.9531V33.5664C170.488 31.9336 170.223 30.7734 169.691 30.0859C169.16 29.3984 168.328 29.0547 167.195 29.0547C166.227 29.0547 165.48 29.4492 164.957 30.2383C164.434 31.0195 164.172 32.1367 164.172 33.5898C164.172 35.0273 164.426 36.125 164.934 36.8828C165.441 37.6328 166.203 38.0078 167.219 38.0078Z" fill="white"/>
</svg>
