<svg width="139" height="48" viewBox="0 0 139 48" fill="none" xmlns="http://www.w3.org/2000/svg">
<path d="M12.4961 8.72461C12.4961 11.0814 11.8418 12.8848 10.5332 14.1348C9.22461 15.3783 7.33984 16 4.87891 16H0.884766V1.72266H5.29883C7.57096 1.72266 9.33854 2.33464 10.6016 3.55859C11.8646 4.78255 12.4961 6.50456 12.4961 8.72461ZM10.0352 8.80273C10.0352 5.38477 8.43685 3.67578 5.24023 3.67578H3.21875V14.0371H4.87891C8.31641 14.0371 10.0352 12.2923 10.0352 8.80273ZM24.9082 10.5801C24.9082 12.3444 24.4557 13.7214 23.5508 14.7109C22.6458 15.7005 21.3861 16.1953 19.7715 16.1953C18.7624 16.1953 17.8704 15.9674 17.0957 15.5117C16.321 15.056 15.7253 14.4017 15.3086 13.5488C14.8919 12.696 14.6836 11.7064 14.6836 10.5801C14.6836 8.82878 15.1328 7.46159 16.0312 6.47852C16.9297 5.49544 18.196 5.00391 19.8301 5.00391C21.3926 5.00391 22.6296 5.50846 23.541 6.51758C24.4525 7.52018 24.9082 8.87435 24.9082 10.5801ZM17.0469 10.5801C17.0469 13.0736 17.9681 14.3203 19.8105 14.3203C21.6335 14.3203 22.5449 13.0736 22.5449 10.5801C22.5449 8.11263 21.627 6.87891 19.791 6.87891C18.8275 6.87891 18.1276 7.19792 17.6914 7.83594C17.2617 8.47396 17.0469 9.38867 17.0469 10.5801ZM36.4121 16L35.0156 10.9609C34.8464 10.4271 34.5404 9.18685 34.0977 7.24023H34.0098C33.6322 8.99805 33.3327 10.2448 33.1113 10.9805L31.6758 16H29.1367L26.1094 5.19922H28.4531L29.8301 10.5215C30.1426 11.8366 30.3639 12.9629 30.4941 13.9004H30.5527C30.6178 13.4251 30.7155 12.8815 30.8457 12.2695C30.9824 11.651 31.0996 11.1888 31.1973 10.8828L32.8379 5.19922H35.3574L36.9492 10.8828C37.0469 11.2018 37.1673 11.6901 37.3105 12.3477C37.4603 13.0052 37.5482 13.5163 37.5742 13.8809H37.6523C37.75 13.0801 37.9779 11.9603 38.3359 10.5215L39.7324 5.19922H42.0371L38.9902 16H36.4121ZM53.4043 16H51.0996V9.35938C51.0996 8.52604 50.9303 7.9043 50.5918 7.49414C50.2598 7.08398 49.7292 6.87891 49 6.87891C48.0299 6.87891 47.3203 7.16536 46.8711 7.73828C46.4219 8.3112 46.1973 9.27148 46.1973 10.6191V16H43.9023V5.19922H45.6992L46.0215 6.61523H46.1387C46.4642 6.10091 46.9264 5.70378 47.5254 5.42383C48.1243 5.14388 48.7884 5.00391 49.5176 5.00391C52.1087 5.00391 53.4043 6.32227 53.4043 8.95898V16ZM58.8926 16H56.5977V0.804688H58.8926V16ZM71.7637 10.5801C71.7637 12.3444 71.3112 13.7214 70.4062 14.7109C69.5013 15.7005 68.2415 16.1953 66.627 16.1953C65.6178 16.1953 64.7259 15.9674 63.9512 15.5117C63.1764 15.056 62.5807 14.4017 62.1641 13.5488C61.7474 12.696 61.5391 11.7064 61.5391 10.5801C61.5391 8.82878 61.9883 7.46159 62.8867 6.47852C63.7852 5.49544 65.0514 5.00391 66.6855 5.00391C68.248 5.00391 69.485 5.50846 70.3965 6.51758C71.3079 7.52018 71.7637 8.87435 71.7637 10.5801ZM63.9023 10.5801C63.9023 13.0736 64.8236 14.3203 66.666 14.3203C68.4889 14.3203 69.4004 13.0736 69.4004 10.5801C69.4004 8.11263 68.4824 6.87891 66.6465 6.87891C65.6829 6.87891 64.9831 7.19792 64.5469 7.83594C64.1172 8.47396 63.9023 9.38867 63.9023 10.5801ZM81.168 16L80.709 14.4961H80.6309C80.11 15.1536 79.5859 15.6029 79.0586 15.8438C78.5312 16.0781 77.8542 16.1953 77.0273 16.1953C75.9661 16.1953 75.1361 15.9089 74.5371 15.3359C73.9447 14.763 73.6484 13.9525 73.6484 12.9043C73.6484 11.791 74.0618 10.9512 74.8887 10.3848C75.7155 9.81836 76.9753 9.50911 78.668 9.45703L80.5332 9.39844V8.82227C80.5332 8.13216 80.3704 7.61784 80.0449 7.2793C79.7259 6.93424 79.2279 6.76172 78.5508 6.76172C77.9974 6.76172 77.4668 6.8431 76.959 7.00586C76.4512 7.16862 75.9629 7.36068 75.4941 7.58203L74.752 5.94141C75.3379 5.63542 75.9792 5.4043 76.6758 5.24805C77.3724 5.08529 78.0299 5.00391 78.6484 5.00391C80.0221 5.00391 81.0573 5.30339 81.7539 5.90234C82.457 6.5013 82.8086 7.44206 82.8086 8.72461V16H81.168ZM77.75 14.4375C78.5833 14.4375 79.2507 14.2064 79.752 13.7441C80.2598 13.2754 80.5137 12.6211 80.5137 11.7812V10.8438L79.127 10.9023C78.0462 10.9414 77.2585 11.1237 76.7637 11.4492C76.2754 11.7682 76.0312 12.2598 76.0312 12.9238C76.0312 13.4056 76.1745 13.7799 76.4609 14.0469C76.7474 14.3073 77.1771 14.4375 77.75 14.4375ZM89.6543 16.1953C88.3066 16.1953 87.2552 15.707 86.5 14.7305C85.7448 13.7539 85.3672 12.3835 85.3672 10.6191C85.3672 8.84831 85.748 7.47135 86.5098 6.48828C87.278 5.4987 88.3392 5.00391 89.6934 5.00391C91.1126 5.00391 92.1934 5.52799 92.9355 6.57617H93.0527C92.9421 5.80143 92.8867 5.18945 92.8867 4.74023V0.804688H95.1914V16H93.3945L92.9941 14.584H92.8867C92.151 15.6582 91.0736 16.1953 89.6543 16.1953ZM90.2695 14.3398C91.2135 14.3398 91.9004 14.0762 92.3301 13.5488C92.7598 13.015 92.9811 12.1523 92.9941 10.9609V10.6387C92.9941 9.27799 92.7728 8.3112 92.3301 7.73828C91.8874 7.16536 91.194 6.87891 90.25 6.87891C89.4427 6.87891 88.821 7.20768 88.3848 7.86523C87.9486 8.51628 87.7305 9.44727 87.7305 10.6582C87.7305 11.8561 87.9421 12.7708 88.3652 13.4023C88.7884 14.0273 89.4232 14.3398 90.2695 14.3398ZM116.588 8.8418C116.588 11.166 116.005 12.9727 114.84 14.2617C113.681 15.5508 112.037 16.1953 109.908 16.1953C107.753 16.1953 106.096 15.5573 104.938 14.2812C103.785 12.9987 103.209 11.179 103.209 8.82227C103.209 6.46549 103.788 4.6556 104.947 3.39258C106.113 2.12956 107.773 1.49805 109.928 1.49805C112.05 1.49805 113.691 2.13932 114.85 3.42188C116.008 4.70443 116.588 6.51107 116.588 8.8418ZM105.689 8.8418C105.689 10.5996 106.044 11.9342 106.754 12.8457C107.464 13.7507 108.515 14.2031 109.908 14.2031C111.295 14.2031 112.34 13.7539 113.043 12.8555C113.753 11.957 114.107 10.6191 114.107 8.8418C114.107 7.09049 113.756 5.76237 113.053 4.85742C112.356 3.95247 111.314 3.5 109.928 3.5C108.528 3.5 107.47 3.95247 106.754 4.85742C106.044 5.76237 105.689 7.09049 105.689 8.8418ZM127.027 16L126.705 14.584H126.588C126.269 15.0853 125.813 15.4792 125.221 15.7656C124.635 16.0521 123.964 16.1953 123.209 16.1953C121.9 16.1953 120.924 15.8698 120.279 15.2188C119.635 14.5677 119.312 13.5814 119.312 12.2598V5.19922H121.627V11.8594C121.627 12.6862 121.796 13.3079 122.135 13.7246C122.473 14.1348 123.004 14.3398 123.727 14.3398C124.69 14.3398 125.396 14.0534 125.846 13.4805C126.301 12.901 126.529 11.9342 126.529 10.5801V5.19922H128.834V16H127.027ZM137.584 5.00391C138.046 5.00391 138.427 5.03646 138.727 5.10156L138.502 7.24023C138.176 7.16211 137.838 7.12305 137.486 7.12305C136.568 7.12305 135.823 7.42253 135.25 8.02148C134.684 8.62044 134.4 9.39844 134.4 10.3555V16H132.105V5.19922H133.902L134.205 7.10352H134.322C134.68 6.45898 135.146 5.94792 135.719 5.57031C136.298 5.19271 136.92 5.00391 137.584 5.00391ZM3.19922 43H0.884766V28.7227H8.94141V30.6953H3.19922V35.1582H8.58008V37.1406H3.19922V43ZM16.7637 32.0039C17.2259 32.0039 17.6068 32.0365 17.9062 32.1016L17.6816 34.2402C17.3561 34.1621 17.0176 34.123 16.666 34.123C15.748 34.123 15.0026 34.4225 14.4297 35.0215C13.8633 35.6204 13.5801 36.3984 13.5801 37.3555V43H11.2852V32.1992H13.082L13.3848 34.1035H13.502C13.86 33.459 14.3255 32.9479 14.8984 32.5703C15.4779 32.1927 16.0996 32.0039 16.7637 32.0039ZM24.6348 43.1953C22.9551 43.1953 21.64 42.707 20.6895 41.7305C19.7454 40.7474 19.2734 39.3965 19.2734 37.6777C19.2734 35.9134 19.7129 34.5267 20.5918 33.5176C21.4707 32.5085 22.6784 32.0039 24.2148 32.0039C25.6406 32.0039 26.7669 32.4368 27.5938 33.3027C28.4206 34.1686 28.834 35.36 28.834 36.877V38.1172H21.6367C21.6693 39.1654 21.9525 39.9727 22.4863 40.5391C23.0202 41.099 23.7721 41.3789 24.7422 41.3789C25.3802 41.3789 25.9727 41.3203 26.5195 41.2031C27.0729 41.0794 27.6654 40.8776 28.2969 40.5977V42.4629C27.737 42.7298 27.1706 42.9186 26.5977 43.0293C26.0247 43.14 25.3704 43.1953 24.6348 43.1953ZM24.2148 33.7422C23.4857 33.7422 22.8997 33.9733 22.457 34.4355C22.0208 34.8978 21.7604 35.5716 21.6758 36.457H26.5781C26.5651 35.5651 26.3503 34.8913 25.9336 34.4355C25.5169 33.9733 24.944 33.7422 24.2148 33.7422ZM36.1582 43.1953C34.4785 43.1953 33.1634 42.707 32.2129 41.7305C31.2689 40.7474 30.7969 39.3965 30.7969 37.6777C30.7969 35.9134 31.2363 34.5267 32.1152 33.5176C32.9941 32.5085 34.2018 32.0039 35.7383 32.0039C37.1641 32.0039 38.2904 32.4368 39.1172 33.3027C39.944 34.1686 40.3574 35.36 40.3574 36.877V38.1172H33.1602C33.1927 39.1654 33.4759 39.9727 34.0098 40.5391C34.5436 41.099 35.2956 41.3789 36.2656 41.3789C36.9036 41.3789 37.4961 41.3203 38.043 41.2031C38.5964 41.0794 39.1888 40.8776 39.8203 40.5977V42.4629C39.2604 42.7298 38.694 42.9186 38.1211 43.0293C37.5482 43.14 36.8939 43.1953 36.1582 43.1953ZM35.7383 33.7422C35.0091 33.7422 34.4232 33.9733 33.9805 34.4355C33.5443 34.8978 33.2839 35.5716 33.1992 36.457H38.1016C38.0885 35.5651 37.8737 34.8913 37.457 34.4355C37.0404 33.9733 36.4674 33.7422 35.7383 33.7422ZM57.2617 43L55.8359 39.0352H50.377L48.9805 43H46.5195L51.8613 28.6641H54.4004L59.7422 43H57.2617ZM55.2207 37.0234L53.8828 33.1367C53.7852 32.8763 53.6484 32.4661 53.4727 31.9062C53.3034 31.3464 53.1862 30.9362 53.1211 30.6758C52.9453 31.4766 52.6882 32.3522 52.3496 33.3027L51.0605 37.0234H55.2207ZM66.8613 43.1953C65.4941 43.1953 64.4329 42.7038 63.6777 41.7207H63.541C63.6322 42.6322 63.6777 43.1855 63.6777 43.3809V47.8047H61.3828V32.1992H63.2383C63.2904 32.401 63.3978 32.8828 63.5605 33.6445H63.6777C64.3939 32.5508 65.4681 32.0039 66.9004 32.0039C68.248 32.0039 69.2962 32.4922 70.0449 33.4688C70.8001 34.4453 71.1777 35.8158 71.1777 37.5801C71.1777 39.3444 70.7936 40.7214 70.0254 41.7109C69.2637 42.7005 68.209 43.1953 66.8613 43.1953ZM66.3047 33.8789C65.3932 33.8789 64.7259 34.1458 64.3027 34.6797C63.8861 35.2135 63.6777 36.0664 63.6777 37.2383V37.5801C63.6777 38.8952 63.8861 39.849 64.3027 40.4414C64.7194 41.0273 65.3997 41.3203 66.3438 41.3203C67.138 41.3203 67.75 40.9948 68.1797 40.3438C68.6094 39.6927 68.8242 38.765 68.8242 37.5605C68.8242 36.3496 68.6094 35.4349 68.1797 34.8164C67.7565 34.1914 67.1315 33.8789 66.3047 33.8789ZM79.3223 43.1953C77.9551 43.1953 76.8939 42.7038 76.1387 41.7207H76.002C76.0931 42.6322 76.1387 43.1855 76.1387 43.3809V47.8047H73.8438V32.1992H75.6992C75.7513 32.401 75.8587 32.8828 76.0215 33.6445H76.1387C76.8548 32.5508 77.929 32.0039 79.3613 32.0039C80.709 32.0039 81.7572 32.4922 82.5059 33.4688C83.2611 34.4453 83.6387 35.8158 83.6387 37.5801C83.6387 39.3444 83.2546 40.7214 82.4863 41.7109C81.7246 42.7005 80.6699 43.1953 79.3223 43.1953ZM78.7656 33.8789C77.8542 33.8789 77.1868 34.1458 76.7637 34.6797C76.347 35.2135 76.1387 36.0664 76.1387 37.2383V37.5801C76.1387 38.8952 76.347 39.849 76.7637 40.4414C77.1803 41.0273 77.8607 41.3203 78.8047 41.3203C79.599 41.3203 80.2109 40.9948 80.6406 40.3438C81.0703 39.6927 81.2852 38.765 81.2852 37.5605C81.2852 36.3496 81.0703 35.4349 80.6406 34.8164C80.2174 34.1914 79.5924 33.8789 78.7656 33.8789ZM93.5605 39.9238C93.5605 40.9785 93.1764 41.7891 92.4082 42.3555C91.64 42.9154 90.5397 43.1953 89.1074 43.1953C87.6686 43.1953 86.513 42.9772 85.6406 42.541V40.5586C86.9102 41.1445 88.0918 41.4375 89.1855 41.4375C90.5983 41.4375 91.3047 41.0111 91.3047 40.1582C91.3047 39.8848 91.2266 39.6569 91.0703 39.4746C90.9141 39.2923 90.6569 39.1035 90.2988 38.9082C89.9408 38.7129 89.4427 38.4915 88.8047 38.2441C87.5612 37.7624 86.7181 37.2806 86.2754 36.7988C85.8392 36.3171 85.6211 35.6921 85.6211 34.9238C85.6211 33.9993 85.9922 33.2832 86.7344 32.7754C87.4831 32.2611 88.4987 32.0039 89.7812 32.0039C91.0508 32.0039 92.252 32.2611 93.3848 32.7754L92.6426 34.5039C91.4772 34.0221 90.4974 33.7812 89.7031 33.7812C88.4922 33.7812 87.8867 34.1263 87.8867 34.8164C87.8867 35.1549 88.043 35.4414 88.3555 35.6758C88.6745 35.9102 89.3646 36.2324 90.4258 36.6426C91.3177 36.9876 91.9655 37.3034 92.3691 37.5898C92.7728 37.8763 93.0723 38.2083 93.2676 38.5859C93.4629 38.957 93.5605 39.403 93.5605 39.9238Z" fill="#050F19"/>
</svg>
