<svg width="93" height="45" viewBox="0 0 93 45" fill="none" xmlns="http://www.w3.org/2000/svg">
<rect width="93" height="45" rx="5" fill="#FFBD00"/>
<path d="M31.6963 16.1504H35.5107C37.2803 16.1504 38.5576 16.4082 39.3428 16.9238C40.1338 17.4395 40.5293 18.2539 40.5293 19.3672C40.5293 20.1172 40.3359 20.7412 39.9492 21.2393C39.5625 21.7373 39.0059 22.0508 38.2793 22.1797V22.2676C39.1816 22.4375 39.8438 22.7744 40.2656 23.2783C40.6934 23.7764 40.9072 24.4531 40.9072 25.3086C40.9072 26.4629 40.5029 27.3682 39.6943 28.0244C38.8916 28.6748 37.7725 29 36.3369 29H31.6963V16.1504ZM33.7969 21.459H35.8184C36.6973 21.459 37.3389 21.3213 37.7432 21.0459C38.1475 20.7646 38.3496 20.29 38.3496 19.6221C38.3496 19.0186 38.1299 18.582 37.6904 18.3125C37.2568 18.043 36.5654 17.9082 35.6162 17.9082H33.7969V21.459ZM33.7969 23.1641V27.2334H36.0293C36.9082 27.2334 37.5703 27.0664 38.0156 26.7324C38.4668 26.3926 38.6924 25.8594 38.6924 25.1328C38.6924 24.4648 38.4639 23.9697 38.0068 23.6475C37.5498 23.3252 36.8555 23.1641 35.9238 23.1641H33.7969ZM50.2148 29L49.9248 27.7256H49.8193C49.5322 28.1768 49.1221 28.5312 48.5889 28.7891C48.0615 29.0469 47.458 29.1758 46.7783 29.1758C45.6006 29.1758 44.7217 28.8828 44.1416 28.2969C43.5615 27.7109 43.2715 26.8232 43.2715 25.6338V19.2793H45.3545V25.2734C45.3545 26.0176 45.5068 26.5771 45.8115 26.9521C46.1162 27.3213 46.5938 27.5059 47.2441 27.5059C48.1113 27.5059 48.7471 27.248 49.1514 26.7324C49.5615 26.2109 49.7666 25.3408 49.7666 24.1221V19.2793H51.8408V29H50.2148ZM53.3086 19.2793H55.5586L57.5361 24.79C57.835 25.5752 58.0342 26.3135 58.1338 27.0049H58.2041C58.2568 26.6826 58.3535 26.293 58.4941 25.8359C58.6348 25.373 59.3789 23.1875 60.7266 19.2793H62.959L58.8018 30.292C58.0459 32.3135 56.7861 33.3242 55.0225 33.3242C54.5654 33.3242 54.1201 33.2744 53.6865 33.1748V31.54C53.9971 31.6104 54.3516 31.6455 54.75 31.6455C55.7461 31.6455 56.4463 31.0684 56.8506 29.9141L57.2109 29L53.3086 19.2793Z" fill="white"/>
</svg>
