<svg width="306" height="206" viewBox="0 0 306 206" fill="none" xmlns="http://www.w3.org/2000/svg">
<g filter="url(#filter0_dd_1_373)">
<rect x="13" y="13" width="280" height="180" rx="5" fill="white"/>
</g>
<path d="M59.3438 128H58.0156V116.578H64.3828V117.758H59.3438V121.938H64.0781V123.117H59.3438V128ZM67.3828 128H66.0859V119.438H67.3828V128ZM65.9766 117.117C65.9766 116.82 66.0495 116.604 66.1953 116.469C66.3411 116.328 66.5234 116.258 66.7422 116.258C66.9505 116.258 67.1302 116.328 67.2812 116.469C67.4323 116.609 67.5078 116.826 67.5078 117.117C67.5078 117.409 67.4323 117.628 67.2812 117.773C67.1302 117.914 66.9505 117.984 66.7422 117.984C66.5234 117.984 66.3411 117.914 66.1953 117.773C66.0495 117.628 65.9766 117.409 65.9766 117.117ZM74.0391 119.281C74.4193 119.281 74.7604 119.312 75.0625 119.375L74.8828 120.578C74.5286 120.5 74.2161 120.461 73.9453 120.461C73.2526 120.461 72.6589 120.742 72.1641 121.305C71.6745 121.867 71.4297 122.568 71.4297 123.406V128H70.1328V119.438H71.2031L71.3516 121.023H71.4141C71.7318 120.466 72.1146 120.036 72.5625 119.734C73.0104 119.432 73.5026 119.281 74.0391 119.281ZM82.1875 125.664C82.1875 126.461 81.8906 127.076 81.2969 127.508C80.7031 127.94 79.8698 128.156 78.7969 128.156C77.6615 128.156 76.776 127.977 76.1406 127.617V126.414C76.5521 126.622 76.9922 126.786 77.4609 126.906C77.9349 127.026 78.3906 127.086 78.8281 127.086C79.5052 127.086 80.026 126.979 80.3906 126.766C80.7552 126.547 80.9375 126.216 80.9375 125.773C80.9375 125.44 80.7917 125.156 80.5 124.922C80.2135 124.682 79.651 124.401 78.8125 124.078C78.0156 123.781 77.4479 123.523 77.1094 123.305C76.776 123.081 76.526 122.828 76.3594 122.547C76.1979 122.266 76.1172 121.93 76.1172 121.539C76.1172 120.841 76.401 120.292 76.9688 119.891C77.5365 119.484 78.3151 119.281 79.3047 119.281C80.2266 119.281 81.1276 119.469 82.0078 119.844L81.5469 120.898C80.6875 120.544 79.9089 120.367 79.2109 120.367C78.5964 120.367 78.1328 120.464 77.8203 120.656C77.5078 120.849 77.3516 121.115 77.3516 121.453C77.3516 121.682 77.4089 121.878 77.5234 122.039C77.6432 122.201 77.8333 122.354 78.0938 122.5C78.3542 122.646 78.8542 122.857 79.5938 123.133C80.6094 123.503 81.2943 123.875 81.6484 124.25C82.0078 124.625 82.1875 125.096 82.1875 125.664ZM87.0703 127.086C87.2995 127.086 87.5208 127.07 87.7344 127.039C87.9479 127.003 88.1172 126.966 88.2422 126.93V127.922C88.1016 127.99 87.8932 128.044 87.6172 128.086C87.3464 128.133 87.1016 128.156 86.8828 128.156C85.2266 128.156 84.3984 127.284 84.3984 125.539V120.445H83.1719V119.82L84.3984 119.281L84.9453 117.453H85.6953V119.438H88.1797V120.445H85.6953V125.484C85.6953 126 85.8177 126.396 86.0625 126.672C86.3073 126.948 86.6432 127.086 87.0703 127.086ZM96.8828 127.086C97.112 127.086 97.3333 127.07 97.5469 127.039C97.7604 127.003 97.9297 126.966 98.0547 126.93V127.922C97.9141 127.99 97.7057 128.044 97.4297 128.086C97.1589 128.133 96.9141 128.156 96.6953 128.156C95.0391 128.156 94.2109 127.284 94.2109 125.539V120.445H92.9844V119.82L94.2109 119.281L94.7578 117.453H95.5078V119.438H97.9922V120.445H95.5078V125.484C95.5078 126 95.6302 126.396 95.875 126.672C96.1198 126.948 96.4557 127.086 96.8828 127.086ZM103.68 119.281C104.06 119.281 104.401 119.312 104.703 119.375L104.523 120.578C104.169 120.5 103.857 120.461 103.586 120.461C102.893 120.461 102.299 120.742 101.805 121.305C101.315 121.867 101.07 122.568 101.07 123.406V128H99.7734V119.438H100.844L100.992 121.023H101.055C101.372 120.466 101.755 120.036 102.203 119.734C102.651 119.432 103.143 119.281 103.68 119.281ZM111.57 128L111.312 126.781H111.25C110.823 127.318 110.396 127.682 109.969 127.875C109.547 128.062 109.018 128.156 108.383 128.156C107.534 128.156 106.867 127.938 106.383 127.5C105.904 127.062 105.664 126.44 105.664 125.633C105.664 123.904 107.047 122.997 109.812 122.914L111.266 122.867V122.336C111.266 121.664 111.12 121.169 110.828 120.852C110.542 120.529 110.081 120.367 109.445 120.367C108.732 120.367 107.924 120.586 107.023 121.023L106.625 120.031C107.047 119.802 107.508 119.622 108.008 119.492C108.513 119.362 109.018 119.297 109.523 119.297C110.544 119.297 111.299 119.523 111.789 119.977C112.284 120.43 112.531 121.156 112.531 122.156V128H111.57ZM108.641 127.086C109.448 127.086 110.081 126.865 110.539 126.422C111.003 125.979 111.234 125.359 111.234 124.562V123.789L109.938 123.844C108.906 123.88 108.161 124.042 107.703 124.328C107.25 124.609 107.023 125.049 107.023 125.648C107.023 126.117 107.164 126.474 107.445 126.719C107.732 126.964 108.13 127.086 108.641 127.086ZM121.07 128V122.461C121.07 121.763 120.911 121.242 120.594 120.898C120.276 120.555 119.779 120.383 119.102 120.383C118.206 120.383 117.549 120.625 117.133 121.109C116.716 121.594 116.508 122.393 116.508 123.508V128H115.211V119.438H116.266L116.477 120.609H116.539C116.805 120.188 117.177 119.862 117.656 119.633C118.135 119.398 118.669 119.281 119.258 119.281C120.289 119.281 121.065 119.531 121.586 120.031C122.107 120.526 122.367 121.32 122.367 122.414V128H121.07ZM130.562 125.664C130.562 126.461 130.266 127.076 129.672 127.508C129.078 127.94 128.245 128.156 127.172 128.156C126.036 128.156 125.151 127.977 124.516 127.617V126.414C124.927 126.622 125.367 126.786 125.836 126.906C126.31 127.026 126.766 127.086 127.203 127.086C127.88 127.086 128.401 126.979 128.766 126.766C129.13 126.547 129.312 126.216 129.312 125.773C129.312 125.44 129.167 125.156 128.875 124.922C128.589 124.682 128.026 124.401 127.188 124.078C126.391 123.781 125.823 123.523 125.484 123.305C125.151 123.081 124.901 122.828 124.734 122.547C124.573 122.266 124.492 121.93 124.492 121.539C124.492 120.841 124.776 120.292 125.344 119.891C125.911 119.484 126.69 119.281 127.68 119.281C128.602 119.281 129.503 119.469 130.383 119.844L129.922 120.898C129.062 120.544 128.284 120.367 127.586 120.367C126.971 120.367 126.508 120.464 126.195 120.656C125.883 120.849 125.727 121.115 125.727 121.453C125.727 121.682 125.784 121.878 125.898 122.039C126.018 122.201 126.208 122.354 126.469 122.5C126.729 122.646 127.229 122.857 127.969 123.133C128.984 123.503 129.669 123.875 130.023 124.25C130.383 124.625 130.562 125.096 130.562 125.664ZM137.945 128L137.688 126.781H137.625C137.198 127.318 136.771 127.682 136.344 127.875C135.922 128.062 135.393 128.156 134.758 128.156C133.909 128.156 133.242 127.938 132.758 127.5C132.279 127.062 132.039 126.44 132.039 125.633C132.039 123.904 133.422 122.997 136.188 122.914L137.641 122.867V122.336C137.641 121.664 137.495 121.169 137.203 120.852C136.917 120.529 136.456 120.367 135.82 120.367C135.107 120.367 134.299 120.586 133.398 121.023L133 120.031C133.422 119.802 133.883 119.622 134.383 119.492C134.888 119.362 135.393 119.297 135.898 119.297C136.919 119.297 137.674 119.523 138.164 119.977C138.659 120.43 138.906 121.156 138.906 122.156V128H137.945ZM135.016 127.086C135.823 127.086 136.456 126.865 136.914 126.422C137.378 125.979 137.609 125.359 137.609 124.562V123.789L136.312 123.844C135.281 123.88 134.536 124.042 134.078 124.328C133.625 124.609 133.398 125.049 133.398 125.648C133.398 126.117 133.539 126.474 133.82 126.719C134.107 126.964 134.505 127.086 135.016 127.086ZM145.008 128.156C143.768 128.156 142.807 127.776 142.125 127.016C141.448 126.25 141.109 125.169 141.109 123.773C141.109 122.341 141.453 121.234 142.141 120.453C142.833 119.672 143.818 119.281 145.094 119.281C145.505 119.281 145.917 119.326 146.328 119.414C146.74 119.503 147.062 119.607 147.297 119.727L146.898 120.828C146.612 120.714 146.299 120.62 145.961 120.547C145.622 120.469 145.323 120.43 145.062 120.43C143.323 120.43 142.453 121.539 142.453 123.758C142.453 124.81 142.664 125.617 143.086 126.18C143.513 126.742 144.143 127.023 144.977 127.023C145.69 127.023 146.422 126.87 147.172 126.562V127.711C146.599 128.008 145.878 128.156 145.008 128.156ZM151.977 127.086C152.206 127.086 152.427 127.07 152.641 127.039C152.854 127.003 153.023 126.966 153.148 126.93V127.922C153.008 127.99 152.799 128.044 152.523 128.086C152.253 128.133 152.008 128.156 151.789 128.156C150.133 128.156 149.305 127.284 149.305 125.539V120.445H148.078V119.82L149.305 119.281L149.852 117.453H150.602V119.438H153.086V120.445H150.602V125.484C150.602 126 150.724 126.396 150.969 126.672C151.214 126.948 151.549 127.086 151.977 127.086ZM156.164 128H154.867V119.438H156.164V128ZM154.758 117.117C154.758 116.82 154.831 116.604 154.977 116.469C155.122 116.328 155.305 116.258 155.523 116.258C155.732 116.258 155.911 116.328 156.062 116.469C156.214 116.609 156.289 116.826 156.289 117.117C156.289 117.409 156.214 117.628 156.062 117.773C155.911 117.914 155.732 117.984 155.523 117.984C155.305 117.984 155.122 117.914 154.977 117.773C154.831 117.628 154.758 117.409 154.758 117.117ZM166.305 123.711C166.305 125.107 165.953 126.198 165.25 126.984C164.547 127.766 163.576 128.156 162.336 128.156C161.57 128.156 160.891 127.977 160.297 127.617C159.703 127.258 159.245 126.742 158.922 126.07C158.599 125.398 158.438 124.612 158.438 123.711C158.438 122.315 158.786 121.229 159.484 120.453C160.182 119.672 161.151 119.281 162.391 119.281C163.589 119.281 164.539 119.68 165.242 120.477C165.951 121.273 166.305 122.352 166.305 123.711ZM159.781 123.711C159.781 124.805 160 125.638 160.438 126.211C160.875 126.784 161.518 127.07 162.367 127.07C163.216 127.07 163.859 126.786 164.297 126.219C164.74 125.646 164.961 124.81 164.961 123.711C164.961 122.622 164.74 121.797 164.297 121.234C163.859 120.667 163.211 120.383 162.352 120.383C161.503 120.383 160.862 120.661 160.43 121.219C159.997 121.776 159.781 122.607 159.781 123.711ZM174.445 128V122.461C174.445 121.763 174.286 121.242 173.969 120.898C173.651 120.555 173.154 120.383 172.477 120.383C171.581 120.383 170.924 120.625 170.508 121.109C170.091 121.594 169.883 122.393 169.883 123.508V128H168.586V119.438H169.641L169.852 120.609H169.914C170.18 120.188 170.552 119.862 171.031 119.633C171.51 119.398 172.044 119.281 172.633 119.281C173.664 119.281 174.44 119.531 174.961 120.031C175.482 120.526 175.742 121.32 175.742 122.414V128H174.445ZM185.336 127.086C185.565 127.086 185.786 127.07 186 127.039C186.214 127.003 186.383 126.966 186.508 126.93V127.922C186.367 127.99 186.159 128.044 185.883 128.086C185.612 128.133 185.367 128.156 185.148 128.156C183.492 128.156 182.664 127.284 182.664 125.539V120.445H181.438V119.82L182.664 119.281L183.211 117.453H183.961V119.438H186.445V120.445H183.961V125.484C183.961 126 184.083 126.396 184.328 126.672C184.573 126.948 184.909 127.086 185.336 127.086ZM195.617 123.711C195.617 125.107 195.266 126.198 194.562 126.984C193.859 127.766 192.888 128.156 191.648 128.156C190.883 128.156 190.203 127.977 189.609 127.617C189.016 127.258 188.557 126.742 188.234 126.07C187.911 125.398 187.75 124.612 187.75 123.711C187.75 122.315 188.099 121.229 188.797 120.453C189.495 119.672 190.464 119.281 191.703 119.281C192.901 119.281 193.852 119.68 194.555 120.477C195.263 121.273 195.617 122.352 195.617 123.711ZM189.094 123.711C189.094 124.805 189.312 125.638 189.75 126.211C190.188 126.784 190.831 127.07 191.68 127.07C192.529 127.07 193.172 126.786 193.609 126.219C194.052 125.646 194.273 124.81 194.273 123.711C194.273 122.622 194.052 121.797 193.609 121.234C193.172 120.667 192.523 120.383 191.664 120.383C190.815 120.383 190.174 120.661 189.742 121.219C189.31 121.776 189.094 122.607 189.094 123.711ZM204.82 127.086C205.049 127.086 205.271 127.07 205.484 127.039C205.698 127.003 205.867 126.966 205.992 126.93V127.922C205.852 127.99 205.643 128.044 205.367 128.086C205.096 128.133 204.852 128.156 204.633 128.156C202.977 128.156 202.148 127.284 202.148 125.539V120.445H200.922V119.82L202.148 119.281L202.695 117.453H203.445V119.438H205.93V120.445H203.445V125.484C203.445 126 203.568 126.396 203.812 126.672C204.057 126.948 204.393 127.086 204.82 127.086ZM211.617 119.281C211.997 119.281 212.339 119.312 212.641 119.375L212.461 120.578C212.107 120.5 211.794 120.461 211.523 120.461C210.831 120.461 210.237 120.742 209.742 121.305C209.253 121.867 209.008 122.568 209.008 123.406V128H207.711V119.438H208.781L208.93 121.023H208.992C209.31 120.466 209.693 120.036 210.141 119.734C210.589 119.432 211.081 119.281 211.617 119.281ZM212.883 119.438H214.273L216.148 124.32C216.56 125.435 216.815 126.24 216.914 126.734H216.977C217.044 126.469 217.185 126.016 217.398 125.375C217.617 124.729 218.326 122.75 219.523 119.438H220.914L217.234 129.188C216.87 130.151 216.443 130.833 215.953 131.234C215.469 131.641 214.872 131.844 214.164 131.844C213.768 131.844 213.378 131.799 212.992 131.711V130.672C213.279 130.734 213.599 130.766 213.953 130.766C214.844 130.766 215.479 130.266 215.859 129.266L216.336 128.047L212.883 119.438ZM229.227 127.086C229.456 127.086 229.677 127.07 229.891 127.039C230.104 127.003 230.273 126.966 230.398 126.93V127.922C230.258 127.99 230.049 128.044 229.773 128.086C229.503 128.133 229.258 128.156 229.039 128.156C227.383 128.156 226.555 127.284 226.555 125.539V120.445H225.328V119.82L226.555 119.281L227.102 117.453H227.852V119.438H230.336V120.445H227.852V125.484C227.852 126 227.974 126.396 228.219 126.672C228.464 126.948 228.799 127.086 229.227 127.086ZM237.977 128V122.461C237.977 121.763 237.818 121.242 237.5 120.898C237.182 120.555 236.685 120.383 236.008 120.383C235.107 120.383 234.448 120.628 234.031 121.117C233.62 121.607 233.414 122.409 233.414 123.523V128H232.117V115.844H233.414V119.523C233.414 119.966 233.393 120.333 233.352 120.625H233.43C233.685 120.214 234.047 119.891 234.516 119.656C234.99 119.417 235.529 119.297 236.133 119.297C237.18 119.297 237.964 119.547 238.484 120.047C239.01 120.542 239.273 121.331 239.273 122.414V128H237.977ZM245.562 128.156C244.297 128.156 243.297 127.771 242.562 127C241.833 126.229 241.469 125.159 241.469 123.789C241.469 122.409 241.807 121.312 242.484 120.5C243.167 119.688 244.081 119.281 245.227 119.281C246.299 119.281 247.148 119.635 247.773 120.344C248.398 121.047 248.711 121.977 248.711 123.133V123.953H242.812C242.839 124.958 243.091 125.721 243.57 126.242C244.055 126.763 244.734 127.023 245.609 127.023C246.531 127.023 247.443 126.831 248.344 126.445V127.602C247.885 127.799 247.451 127.94 247.039 128.023C246.633 128.112 246.141 128.156 245.562 128.156ZM245.211 120.367C244.523 120.367 243.974 120.591 243.562 121.039C243.156 121.487 242.917 122.107 242.844 122.898H247.32C247.32 122.081 247.138 121.456 246.773 121.023C246.409 120.586 245.888 120.367 245.211 120.367ZM42.9219 147.664C42.9219 148.461 42.625 149.076 42.0312 149.508C41.4375 149.94 40.6042 150.156 39.5312 150.156C38.3958 150.156 37.5104 149.977 36.875 149.617V148.414C37.2865 148.622 37.7266 148.786 38.1953 148.906C38.6693 149.026 39.125 149.086 39.5625 149.086C40.2396 149.086 40.7604 148.979 41.125 148.766C41.4896 148.547 41.6719 148.216 41.6719 147.773C41.6719 147.44 41.526 147.156 41.2344 146.922C40.9479 146.682 40.3854 146.401 39.5469 146.078C38.75 145.781 38.1823 145.523 37.8438 145.305C37.5104 145.081 37.2604 144.828 37.0938 144.547C36.9323 144.266 36.8516 143.93 36.8516 143.539C36.8516 142.841 37.1354 142.292 37.7031 141.891C38.2708 141.484 39.0495 141.281 40.0391 141.281C40.9609 141.281 41.862 141.469 42.7422 141.844L42.2812 142.898C41.4219 142.544 40.6432 142.367 39.9453 142.367C39.3307 142.367 38.8672 142.464 38.5547 142.656C38.2422 142.849 38.0859 143.115 38.0859 143.453C38.0859 143.682 38.1432 143.878 38.2578 144.039C38.3776 144.201 38.5677 144.354 38.8281 144.5C39.0885 144.646 39.5885 144.857 40.3281 145.133C41.3438 145.503 42.0286 145.875 42.3828 146.25C42.7422 146.625 42.9219 147.096 42.9219 147.664ZM43.6797 141.438H45.0703L46.9453 146.32C47.3568 147.435 47.612 148.24 47.7109 148.734H47.7734C47.8411 148.469 47.9818 148.016 48.1953 147.375C48.4141 146.729 49.1224 144.75 50.3203 141.438H51.7109L48.0312 151.188C47.6667 152.151 47.2396 152.833 46.75 153.234C46.2656 153.641 45.6693 153.844 44.9609 153.844C44.5651 153.844 44.1745 153.799 43.7891 153.711V152.672C44.0755 152.734 44.3958 152.766 44.75 152.766C45.6406 152.766 46.276 152.266 46.6562 151.266L47.1328 150.047L43.6797 141.438ZM58.625 147.664C58.625 148.461 58.3281 149.076 57.7344 149.508C57.1406 149.94 56.3073 150.156 55.2344 150.156C54.099 150.156 53.2135 149.977 52.5781 149.617V148.414C52.9896 148.622 53.4297 148.786 53.8984 148.906C54.3724 149.026 54.8281 149.086 55.2656 149.086C55.9427 149.086 56.4635 148.979 56.8281 148.766C57.1927 148.547 57.375 148.216 57.375 147.773C57.375 147.44 57.2292 147.156 56.9375 146.922C56.651 146.682 56.0885 146.401 55.25 146.078C54.4531 145.781 53.8854 145.523 53.5469 145.305C53.2135 145.081 52.9635 144.828 52.7969 144.547C52.6354 144.266 52.5547 143.93 52.5547 143.539C52.5547 142.841 52.8385 142.292 53.4062 141.891C53.974 141.484 54.7526 141.281 55.7422 141.281C56.6641 141.281 57.5651 141.469 58.4453 141.844L57.9844 142.898C57.125 142.544 56.3464 142.367 55.6484 142.367C55.0339 142.367 54.5703 142.464 54.2578 142.656C53.9453 142.849 53.7891 143.115 53.7891 143.453C53.7891 143.682 53.8464 143.878 53.9609 144.039C54.0807 144.201 54.2708 144.354 54.5312 144.5C54.7917 144.646 55.2917 144.857 56.0312 145.133C57.0469 145.503 57.7318 145.875 58.0859 146.25C58.4453 146.625 58.625 147.096 58.625 147.664ZM63.5078 149.086C63.737 149.086 63.9583 149.07 64.1719 149.039C64.3854 149.003 64.5547 148.966 64.6797 148.93V149.922C64.5391 149.99 64.3307 150.044 64.0547 150.086C63.7839 150.133 63.5391 150.156 63.3203 150.156C61.6641 150.156 60.8359 149.284 60.8359 147.539V142.445H59.6094V141.82L60.8359 141.281L61.3828 139.453H62.1328V141.438H64.6172V142.445H62.1328V147.484C62.1328 148 62.2552 148.396 62.5 148.672C62.7448 148.948 63.0807 149.086 63.5078 149.086ZM70.0156 150.156C68.75 150.156 67.75 149.771 67.0156 149C66.2865 148.229 65.9219 147.159 65.9219 145.789C65.9219 144.409 66.2604 143.312 66.9375 142.5C67.6198 141.688 68.5339 141.281 69.6797 141.281C70.7526 141.281 71.6016 141.635 72.2266 142.344C72.8516 143.047 73.1641 143.977 73.1641 145.133V145.953H67.2656C67.2917 146.958 67.5443 147.721 68.0234 148.242C68.5078 148.763 69.1875 149.023 70.0625 149.023C70.9844 149.023 71.8958 148.831 72.7969 148.445V149.602C72.3385 149.799 71.9036 149.94 71.4922 150.023C71.0859 150.112 70.5938 150.156 70.0156 150.156ZM69.6641 142.367C68.9766 142.367 68.4271 142.591 68.0156 143.039C67.6094 143.487 67.3698 144.107 67.2969 144.898H71.7734C71.7734 144.081 71.5911 143.456 71.2266 143.023C70.862 142.586 70.3411 142.367 69.6641 142.367ZM86.2969 150V144.43C86.2969 143.747 86.151 143.237 85.8594 142.898C85.5677 142.555 85.1146 142.383 84.5 142.383C83.6927 142.383 83.0964 142.615 82.7109 143.078C82.3255 143.542 82.1328 144.255 82.1328 145.219V150H80.8359V144.43C80.8359 143.747 80.6901 143.237 80.3984 142.898C80.1068 142.555 79.651 142.383 79.0312 142.383C78.2188 142.383 77.6224 142.628 77.2422 143.117C76.8672 143.602 76.6797 144.398 76.6797 145.508V150H75.3828V141.438H76.4375L76.6484 142.609H76.7109C76.9557 142.193 77.2995 141.867 77.7422 141.633C78.1901 141.398 78.6901 141.281 79.2422 141.281C80.5807 141.281 81.4557 141.766 81.8672 142.734H81.9297C82.1849 142.286 82.5547 141.932 83.0391 141.672C83.5234 141.411 84.0755 141.281 84.6953 141.281C85.6641 141.281 86.388 141.531 86.8672 142.031C87.3516 142.526 87.5938 143.32 87.5938 144.414V150H86.2969ZM101.82 145.711C101.82 147.107 101.469 148.198 100.766 148.984C100.062 149.766 99.0911 150.156 97.8516 150.156C97.0859 150.156 96.4062 149.977 95.8125 149.617C95.2188 149.258 94.7604 148.742 94.4375 148.07C94.1146 147.398 93.9531 146.612 93.9531 145.711C93.9531 144.315 94.3021 143.229 95 142.453C95.6979 141.672 96.6667 141.281 97.9062 141.281C99.1042 141.281 100.055 141.68 100.758 142.477C101.466 143.273 101.82 144.352 101.82 145.711ZM95.2969 145.711C95.2969 146.805 95.5156 147.638 95.9531 148.211C96.3906 148.784 97.0339 149.07 97.8828 149.07C98.7318 149.07 99.375 148.786 99.8125 148.219C100.255 147.646 100.477 146.81 100.477 145.711C100.477 144.622 100.255 143.797 99.8125 143.234C99.375 142.667 98.7266 142.383 97.8672 142.383C97.0182 142.383 96.3776 142.661 95.9453 143.219C95.513 143.776 95.2969 144.607 95.2969 145.711ZM105.32 141.438V146.992C105.32 147.69 105.479 148.211 105.797 148.555C106.115 148.898 106.612 149.07 107.289 149.07C108.185 149.07 108.839 148.826 109.25 148.336C109.667 147.846 109.875 147.047 109.875 145.938V141.438H111.172V150H110.102L109.914 148.852H109.844C109.578 149.273 109.208 149.596 108.734 149.82C108.266 150.044 107.729 150.156 107.125 150.156C106.083 150.156 105.302 149.909 104.781 149.414C104.266 148.919 104.008 148.128 104.008 147.039V141.438H105.32ZM116.695 149.086C116.924 149.086 117.146 149.07 117.359 149.039C117.573 149.003 117.742 148.966 117.867 148.93V149.922C117.727 149.99 117.518 150.044 117.242 150.086C116.971 150.133 116.727 150.156 116.508 150.156C114.852 150.156 114.023 149.284 114.023 147.539V142.445H112.797V141.82L114.023 141.281L114.57 139.453H115.32V141.438H117.805V142.445H115.32V147.484C115.32 148 115.443 148.396 115.688 148.672C115.932 148.948 116.268 149.086 116.695 149.086ZM130.734 150L129.164 144.977C129.065 144.669 128.88 143.971 128.609 142.883H128.547C128.339 143.794 128.156 144.497 128 144.992L126.383 150H124.883L122.547 141.438H123.906C124.458 143.589 124.878 145.227 125.164 146.352C125.456 147.477 125.622 148.234 125.664 148.625H125.727C125.784 148.328 125.875 147.945 126 147.477C126.13 147.003 126.242 146.628 126.336 146.352L127.906 141.438H129.312L130.844 146.352C131.135 147.247 131.333 148 131.438 148.609H131.5C131.521 148.422 131.576 148.133 131.664 147.742C131.758 147.352 132.302 145.25 133.297 141.438H134.641L132.273 150H130.734ZM141.461 150L141.203 148.781H141.141C140.714 149.318 140.286 149.682 139.859 149.875C139.438 150.062 138.909 150.156 138.273 150.156C137.424 150.156 136.758 149.938 136.273 149.5C135.794 149.062 135.555 148.44 135.555 147.633C135.555 145.904 136.938 144.997 139.703 144.914L141.156 144.867V144.336C141.156 143.664 141.01 143.169 140.719 142.852C140.432 142.529 139.971 142.367 139.336 142.367C138.622 142.367 137.815 142.586 136.914 143.023L136.516 142.031C136.938 141.802 137.398 141.622 137.898 141.492C138.404 141.362 138.909 141.297 139.414 141.297C140.435 141.297 141.19 141.523 141.68 141.977C142.174 142.43 142.422 143.156 142.422 144.156V150H141.461ZM138.531 149.086C139.339 149.086 139.971 148.865 140.43 148.422C140.893 147.979 141.125 147.359 141.125 146.562V145.789L139.828 145.844C138.797 145.88 138.052 146.042 137.594 146.328C137.141 146.609 136.914 147.049 136.914 147.648C136.914 148.117 137.055 148.474 137.336 148.719C137.622 148.964 138.021 149.086 138.531 149.086ZM150.625 147.664C150.625 148.461 150.328 149.076 149.734 149.508C149.141 149.94 148.307 150.156 147.234 150.156C146.099 150.156 145.214 149.977 144.578 149.617V148.414C144.99 148.622 145.43 148.786 145.898 148.906C146.372 149.026 146.828 149.086 147.266 149.086C147.943 149.086 148.464 148.979 148.828 148.766C149.193 148.547 149.375 148.216 149.375 147.773C149.375 147.44 149.229 147.156 148.938 146.922C148.651 146.682 148.089 146.401 147.25 146.078C146.453 145.781 145.885 145.523 145.547 145.305C145.214 145.081 144.964 144.828 144.797 144.547C144.635 144.266 144.555 143.93 144.555 143.539C144.555 142.841 144.839 142.292 145.406 141.891C145.974 141.484 146.753 141.281 147.742 141.281C148.664 141.281 149.565 141.469 150.445 141.844L149.984 142.898C149.125 142.544 148.346 142.367 147.648 142.367C147.034 142.367 146.57 142.464 146.258 142.656C145.945 142.849 145.789 143.115 145.789 143.453C145.789 143.682 145.846 143.878 145.961 144.039C146.081 144.201 146.271 144.354 146.531 144.5C146.792 144.646 147.292 144.857 148.031 145.133C149.047 145.503 149.732 145.875 150.086 146.25C150.445 146.625 150.625 147.096 150.625 147.664ZM160.133 149.07C160.997 149.07 161.628 148.839 162.023 148.375C162.419 147.911 162.63 147.13 162.656 146.031V145.742C162.656 144.544 162.453 143.682 162.047 143.156C161.641 142.63 160.997 142.367 160.117 142.367C159.357 142.367 158.773 142.664 158.367 143.258C157.966 143.846 157.766 144.68 157.766 145.758C157.766 146.836 157.964 147.659 158.359 148.227C158.76 148.789 159.352 149.07 160.133 149.07ZM159.938 150.156C158.833 150.156 157.971 149.768 157.352 148.992C156.732 148.216 156.422 147.133 156.422 145.742C156.422 144.341 156.734 143.247 157.359 142.461C157.984 141.674 158.854 141.281 159.969 141.281C161.141 141.281 162.042 141.724 162.672 142.609H162.742L162.93 141.438H163.953V153.844H162.656V150.18C162.656 149.659 162.685 149.216 162.742 148.852H162.641C162.042 149.721 161.141 150.156 159.938 150.156ZM167.93 141.438V146.992C167.93 147.69 168.089 148.211 168.406 148.555C168.724 148.898 169.221 149.07 169.898 149.07C170.794 149.07 171.448 148.826 171.859 148.336C172.276 147.846 172.484 147.047 172.484 145.938V141.438H173.781V150H172.711L172.523 148.852H172.453C172.188 149.273 171.818 149.596 171.344 149.82C170.875 150.044 170.339 150.156 169.734 150.156C168.693 150.156 167.911 149.909 167.391 149.414C166.875 148.919 166.617 148.128 166.617 147.039V141.438H167.93ZM177.836 150H176.539V141.438H177.836V150ZM176.43 139.117C176.43 138.82 176.503 138.604 176.648 138.469C176.794 138.328 176.977 138.258 177.195 138.258C177.404 138.258 177.583 138.328 177.734 138.469C177.885 138.609 177.961 138.826 177.961 139.117C177.961 139.409 177.885 139.628 177.734 139.773C177.583 139.914 177.404 139.984 177.195 139.984C176.977 139.984 176.794 139.914 176.648 139.773C176.503 139.628 176.43 139.409 176.43 139.117ZM184.008 150.156C182.768 150.156 181.807 149.776 181.125 149.016C180.448 148.25 180.109 147.169 180.109 145.773C180.109 144.341 180.453 143.234 181.141 142.453C181.833 141.672 182.818 141.281 184.094 141.281C184.505 141.281 184.917 141.326 185.328 141.414C185.74 141.503 186.062 141.607 186.297 141.727L185.898 142.828C185.612 142.714 185.299 142.62 184.961 142.547C184.622 142.469 184.323 142.43 184.062 142.43C182.323 142.43 181.453 143.539 181.453 145.758C181.453 146.81 181.664 147.617 182.086 148.18C182.513 148.742 183.143 149.023 183.977 149.023C184.69 149.023 185.422 148.87 186.172 148.562V149.711C185.599 150.008 184.878 150.156 184.008 150.156ZM189.492 145.617C189.716 145.299 190.057 144.883 190.516 144.367L193.281 141.438H194.82L191.352 145.086L195.062 150H193.492L190.469 145.953L189.492 146.797V150H188.211V137.844H189.492V144.289C189.492 144.576 189.471 145.018 189.43 145.617H189.492ZM206.039 150L205.781 148.781H205.719C205.292 149.318 204.865 149.682 204.438 149.875C204.016 150.062 203.487 150.156 202.852 150.156C202.003 150.156 201.336 149.938 200.852 149.5C200.372 149.062 200.133 148.44 200.133 147.633C200.133 145.904 201.516 144.997 204.281 144.914L205.734 144.867V144.336C205.734 143.664 205.589 143.169 205.297 142.852C205.01 142.529 204.549 142.367 203.914 142.367C203.201 142.367 202.393 142.586 201.492 143.023L201.094 142.031C201.516 141.802 201.977 141.622 202.477 141.492C202.982 141.362 203.487 141.297 203.992 141.297C205.013 141.297 205.768 141.523 206.258 141.977C206.753 142.43 207 143.156 207 144.156V150H206.039ZM203.109 149.086C203.917 149.086 204.549 148.865 205.008 148.422C205.471 147.979 205.703 147.359 205.703 146.562V145.789L204.406 145.844C203.375 145.88 202.63 146.042 202.172 146.328C201.719 146.609 201.492 147.049 201.492 147.648C201.492 148.117 201.633 148.474 201.914 148.719C202.201 148.964 202.599 149.086 203.109 149.086ZM215.539 150V144.461C215.539 143.763 215.38 143.242 215.062 142.898C214.745 142.555 214.247 142.383 213.57 142.383C212.674 142.383 212.018 142.625 211.602 143.109C211.185 143.594 210.977 144.393 210.977 145.508V150H209.68V141.438H210.734L210.945 142.609H211.008C211.273 142.188 211.646 141.862 212.125 141.633C212.604 141.398 213.138 141.281 213.727 141.281C214.758 141.281 215.534 141.531 216.055 142.031C216.576 142.526 216.836 143.32 216.836 144.414V150H215.539ZM225.336 148.852H225.266C224.667 149.721 223.771 150.156 222.578 150.156C221.458 150.156 220.586 149.773 219.961 149.008C219.341 148.242 219.031 147.154 219.031 145.742C219.031 144.331 219.344 143.234 219.969 142.453C220.594 141.672 221.464 141.281 222.578 141.281C223.74 141.281 224.63 141.703 225.25 142.547H225.352L225.297 141.93L225.266 141.328V137.844H226.562V150H225.508L225.336 148.852ZM222.742 149.07C223.628 149.07 224.268 148.831 224.664 148.352C225.065 147.867 225.266 147.089 225.266 146.016V145.742C225.266 144.529 225.062 143.664 224.656 143.148C224.255 142.628 223.612 142.367 222.727 142.367C221.966 142.367 221.383 142.664 220.977 143.258C220.576 143.846 220.375 144.68 220.375 145.758C220.375 146.852 220.576 147.677 220.977 148.234C221.378 148.792 221.966 149.07 222.742 149.07ZM237.094 150.156C235.828 150.156 234.828 149.771 234.094 149C233.365 148.229 233 147.159 233 145.789C233 144.409 233.339 143.312 234.016 142.5C234.698 141.688 235.612 141.281 236.758 141.281C237.831 141.281 238.68 141.635 239.305 142.344C239.93 143.047 240.242 143.977 240.242 145.133V145.953H234.344C234.37 146.958 234.622 147.721 235.102 148.242C235.586 148.763 236.266 149.023 237.141 149.023C238.062 149.023 238.974 148.831 239.875 148.445V149.602C239.417 149.799 238.982 149.94 238.57 150.023C238.164 150.112 237.672 150.156 237.094 150.156ZM236.742 142.367C236.055 142.367 235.505 142.591 235.094 143.039C234.688 143.487 234.448 144.107 234.375 144.898H238.852C238.852 144.081 238.669 143.456 238.305 143.023C237.94 142.586 237.419 142.367 236.742 142.367ZM247.727 150L247.469 148.781H247.406C246.979 149.318 246.552 149.682 246.125 149.875C245.703 150.062 245.174 150.156 244.539 150.156C243.69 150.156 243.023 149.938 242.539 149.5C242.06 149.062 241.82 148.44 241.82 147.633C241.82 145.904 243.203 144.997 245.969 144.914L247.422 144.867V144.336C247.422 143.664 247.276 143.169 246.984 142.852C246.698 142.529 246.237 142.367 245.602 142.367C244.888 142.367 244.081 142.586 243.18 143.023L242.781 142.031C243.203 141.802 243.664 141.622 244.164 141.492C244.669 141.362 245.174 141.297 245.68 141.297C246.701 141.297 247.456 141.523 247.945 141.977C248.44 142.43 248.688 143.156 248.688 144.156V150H247.727ZM244.797 149.086C245.604 149.086 246.237 148.865 246.695 148.422C247.159 147.979 247.391 147.359 247.391 146.562V145.789L246.094 145.844C245.062 145.88 244.318 146.042 243.859 146.328C243.406 146.609 243.18 147.049 243.18 147.648C243.18 148.117 243.32 148.474 243.602 148.719C243.888 148.964 244.286 149.086 244.797 149.086ZM256.891 147.664C256.891 148.461 256.594 149.076 256 149.508C255.406 149.94 254.573 150.156 253.5 150.156C252.365 150.156 251.479 149.977 250.844 149.617V148.414C251.255 148.622 251.695 148.786 252.164 148.906C252.638 149.026 253.094 149.086 253.531 149.086C254.208 149.086 254.729 148.979 255.094 148.766C255.458 148.547 255.641 148.216 255.641 147.773C255.641 147.44 255.495 147.156 255.203 146.922C254.917 146.682 254.354 146.401 253.516 146.078C252.719 145.781 252.151 145.523 251.812 145.305C251.479 145.081 251.229 144.828 251.062 144.547C250.901 144.266 250.82 143.93 250.82 143.539C250.82 142.841 251.104 142.292 251.672 141.891C252.24 141.484 253.018 141.281 254.008 141.281C254.93 141.281 255.831 141.469 256.711 141.844L256.25 142.898C255.391 142.544 254.612 142.367 253.914 142.367C253.299 142.367 252.836 142.464 252.523 142.656C252.211 142.849 252.055 143.115 252.055 143.453C252.055 143.682 252.112 143.878 252.227 144.039C252.346 144.201 252.536 144.354 252.797 144.5C253.057 144.646 253.557 144.857 254.297 145.133C255.312 145.503 255.997 145.875 256.352 146.25C256.711 146.625 256.891 147.096 256.891 147.664ZM257.648 141.438H259.039L260.914 146.32C261.326 147.435 261.581 148.24 261.68 148.734H261.742C261.81 148.469 261.951 148.016 262.164 147.375C262.383 146.729 263.091 144.75 264.289 141.438H265.68L262 151.188C261.635 152.151 261.208 152.833 260.719 153.234C260.234 153.641 259.638 153.844 258.93 153.844C258.534 153.844 258.143 153.799 257.758 153.711V152.672C258.044 152.734 258.365 152.766 258.719 152.766C259.609 152.766 260.245 152.266 260.625 151.266L261.102 150.047L257.648 141.438ZM268.242 146.852H267.422L267.023 138.578H268.641L268.242 146.852ZM266.883 149.172C266.883 148.464 267.195 148.109 267.82 148.109C268.122 148.109 268.354 148.201 268.516 148.383C268.682 148.565 268.766 148.828 268.766 149.172C268.766 149.505 268.682 149.766 268.516 149.953C268.349 150.135 268.117 150.227 267.82 150.227C267.549 150.227 267.326 150.146 267.148 149.984C266.971 149.818 266.883 149.547 266.883 149.172ZM125.562 172H119.195V160.578H125.562V161.758H120.523V165.438H125.258V166.609H120.523V170.812H125.562V172ZM129.969 167.617L126.992 163.438H128.469L130.727 166.719L132.977 163.438H134.438L131.461 167.617L134.594 172H133.125L130.727 168.531L128.305 172H126.836L129.969 167.617ZM139.719 172.156C138.479 172.156 137.518 171.776 136.836 171.016C136.159 170.25 135.82 169.169 135.82 167.773C135.82 166.341 136.164 165.234 136.852 164.453C137.544 163.672 138.529 163.281 139.805 163.281C140.216 163.281 140.628 163.326 141.039 163.414C141.451 163.503 141.773 163.607 142.008 163.727L141.609 164.828C141.323 164.714 141.01 164.62 140.672 164.547C140.333 164.469 140.034 164.43 139.773 164.43C138.034 164.43 137.164 165.539 137.164 167.758C137.164 168.81 137.375 169.617 137.797 170.18C138.224 170.742 138.854 171.023 139.688 171.023C140.401 171.023 141.133 170.87 141.883 170.562V171.711C141.31 172.008 140.589 172.156 139.719 172.156ZM147.539 172.156C146.273 172.156 145.273 171.771 144.539 171C143.81 170.229 143.445 169.159 143.445 167.789C143.445 166.409 143.784 165.312 144.461 164.5C145.143 163.688 146.057 163.281 147.203 163.281C148.276 163.281 149.125 163.635 149.75 164.344C150.375 165.047 150.688 165.977 150.688 167.133V167.953H144.789C144.815 168.958 145.068 169.721 145.547 170.242C146.031 170.763 146.711 171.023 147.586 171.023C148.508 171.023 149.419 170.831 150.32 170.445V171.602C149.862 171.799 149.427 171.94 149.016 172.023C148.609 172.112 148.117 172.156 147.539 172.156ZM147.188 164.367C146.5 164.367 145.951 164.591 145.539 165.039C145.133 165.487 144.893 166.107 144.82 166.898H149.297C149.297 166.081 149.115 165.456 148.75 165.023C148.385 164.586 147.865 164.367 147.188 164.367ZM154.203 172H152.906V159.844H154.203V172ZM158.25 172H156.953V159.844H158.25V172ZM164.617 172.156C163.352 172.156 162.352 171.771 161.617 171C160.888 170.229 160.523 169.159 160.523 167.789C160.523 166.409 160.862 165.312 161.539 164.5C162.221 163.688 163.135 163.281 164.281 163.281C165.354 163.281 166.203 163.635 166.828 164.344C167.453 165.047 167.766 165.977 167.766 167.133V167.953H161.867C161.893 168.958 162.146 169.721 162.625 170.242C163.109 170.763 163.789 171.023 164.664 171.023C165.586 171.023 166.497 170.831 167.398 170.445V171.602C166.94 171.799 166.505 171.94 166.094 172.023C165.688 172.112 165.195 172.156 164.617 172.156ZM164.266 164.367C163.578 164.367 163.029 164.591 162.617 165.039C162.211 165.487 161.971 166.107 161.898 166.898H166.375C166.375 166.081 166.193 165.456 165.828 165.023C165.464 164.586 164.943 164.367 164.266 164.367ZM175.844 172V166.461C175.844 165.763 175.685 165.242 175.367 164.898C175.049 164.555 174.552 164.383 173.875 164.383C172.979 164.383 172.323 164.625 171.906 165.109C171.49 165.594 171.281 166.393 171.281 167.508V172H169.984V163.438H171.039L171.25 164.609H171.312C171.578 164.188 171.951 163.862 172.43 163.633C172.909 163.398 173.443 163.281 174.031 163.281C175.062 163.281 175.839 163.531 176.359 164.031C176.88 164.526 177.141 165.32 177.141 166.414V172H175.844ZM182.578 171.086C182.807 171.086 183.029 171.07 183.242 171.039C183.456 171.003 183.625 170.966 183.75 170.93V171.922C183.609 171.99 183.401 172.044 183.125 172.086C182.854 172.133 182.609 172.156 182.391 172.156C180.734 172.156 179.906 171.284 179.906 169.539V164.445H178.68V163.82L179.906 163.281L180.453 161.453H181.203V163.438H183.688V164.445H181.203V169.484C181.203 170 181.326 170.396 181.57 170.672C181.815 170.948 182.151 171.086 182.578 171.086ZM186.641 168.852H185.82L185.422 160.578H187.039L186.641 168.852ZM185.281 171.172C185.281 170.464 185.594 170.109 186.219 170.109C186.521 170.109 186.753 170.201 186.914 170.383C187.081 170.565 187.164 170.828 187.164 171.172C187.164 171.505 187.081 171.766 186.914 171.953C186.747 172.135 186.516 172.227 186.219 172.227C185.948 172.227 185.724 172.146 185.547 171.984C185.37 171.818 185.281 171.547 185.281 171.172Z" fill="#333333"/>
<path d="M87.1172 97L81.7891 83.0781H81.7031C81.8034 84.181 81.8535 85.4915 81.8535 87.0098V97H80.167V81.2949H82.917L87.8906 94.25H87.9766L92.9932 81.2949H95.7217V97H93.8955V86.8809C93.8955 85.7207 93.9456 84.4603 94.0459 83.0996H93.96L88.5889 97H87.1172ZM107.012 97L106.657 95.3242H106.571C105.984 96.0618 105.397 96.5632 104.81 96.8281C104.229 97.0859 103.503 97.2148 102.629 97.2148C101.462 97.2148 100.545 96.9141 99.8789 96.3125C99.2201 95.7109 98.8906 94.8551 98.8906 93.7451C98.8906 91.3675 100.792 90.1214 104.595 90.0068L106.593 89.9424V89.2119C106.593 88.2881 106.392 87.6077 105.991 87.1709C105.597 86.7269 104.964 86.5049 104.09 86.5049C103.109 86.5049 101.999 86.8057 100.76 87.4072L100.212 86.043C100.792 85.7279 101.426 85.4808 102.113 85.3018C102.808 85.1227 103.503 85.0332 104.197 85.0332C105.601 85.0332 106.639 85.3447 107.312 85.9678C107.993 86.5908 108.333 87.5898 108.333 88.9648V97H107.012ZM102.983 95.7432C104.093 95.7432 104.964 95.4388 105.594 94.8301C106.231 94.2214 106.55 93.3691 106.55 92.2734V91.21L104.767 91.2852C103.349 91.3353 102.325 91.5573 101.694 91.9512C101.071 92.3379 100.76 92.943 100.76 93.7666C100.76 94.4111 100.953 94.9017 101.34 95.2383C101.734 95.5749 102.282 95.7432 102.983 95.7432ZM117.389 85.0117C117.911 85.0117 118.381 85.0547 118.796 85.1406L118.549 86.7949C118.062 86.6875 117.632 86.6338 117.26 86.6338C116.307 86.6338 115.491 87.0205 114.811 87.7939C114.137 88.5674 113.801 89.5306 113.801 90.6836V97H112.018V85.2266H113.489L113.693 87.4072H113.779C114.216 86.641 114.743 86.0501 115.358 85.6348C115.974 85.2194 116.651 85.0117 117.389 85.0117ZM124.801 95.7432C125.116 95.7432 125.42 95.7217 125.714 95.6787C126.007 95.6286 126.24 95.5785 126.412 95.5283V96.8926C126.219 96.9857 125.932 97.0609 125.553 97.1182C125.18 97.1826 124.844 97.2148 124.543 97.2148C122.266 97.2148 121.127 96.0153 121.127 93.6162V86.6123H119.44V85.7529L121.127 85.0117L121.879 82.498H122.91V85.2266H126.326V86.6123H122.91V93.541C122.91 94.25 123.078 94.7943 123.415 95.1738C123.752 95.5534 124.214 95.7432 124.801 95.7432ZM130.559 97H128.775V85.2266H130.559V97ZM128.625 82.0361C128.625 81.6279 128.725 81.3307 128.926 81.1445C129.126 80.9512 129.377 80.8545 129.678 80.8545C129.964 80.8545 130.211 80.9512 130.419 81.1445C130.627 81.3379 130.73 81.6351 130.73 82.0361C130.73 82.4372 130.627 82.738 130.419 82.9385C130.211 83.1318 129.964 83.2285 129.678 83.2285C129.377 83.2285 129.126 83.1318 128.926 82.9385C128.725 82.738 128.625 82.4372 128.625 82.0361ZM142.396 97V89.3838C142.396 88.4242 142.178 87.708 141.741 87.2354C141.304 86.7627 140.62 86.5264 139.689 86.5264C138.458 86.5264 137.555 86.8594 136.982 87.5254C136.41 88.1914 136.123 89.2907 136.123 90.8232V97H134.34V85.2266H135.79L136.08 86.8379H136.166C136.531 86.2578 137.043 85.8102 137.702 85.4951C138.361 85.1729 139.095 85.0117 139.904 85.0117C141.322 85.0117 142.389 85.3555 143.105 86.043C143.822 86.7233 144.18 87.8154 144.18 89.3193V97H142.396ZM163.354 97H152.559V95.5713L160.895 82.9385H152.816V81.2949H163.118V82.7236L154.782 95.3457H163.354V97ZM174.193 97V89.3838C174.193 88.4242 173.975 87.708 173.538 87.2354C173.101 86.7627 172.417 86.5264 171.486 86.5264C170.247 86.5264 169.341 86.863 168.769 87.5361C168.203 88.2093 167.92 89.3122 167.92 90.8447V97H166.137V80.2852H167.92V85.3447C167.92 85.9535 167.891 86.4583 167.834 86.8594H167.941C168.292 86.2936 168.79 85.8496 169.435 85.5273C170.086 85.1979 170.827 85.0332 171.658 85.0332C173.098 85.0332 174.175 85.377 174.892 86.0645C175.615 86.7448 175.977 87.8298 175.977 89.3193V97H174.193ZM184.624 97.2148C182.884 97.2148 181.509 96.6849 180.499 95.625C179.496 94.5651 178.995 93.0934 178.995 91.21C178.995 89.3122 179.461 87.8047 180.392 86.6875C181.33 85.5703 182.587 85.0117 184.162 85.0117C185.637 85.0117 186.805 85.4987 187.664 86.4727C188.523 87.4395 188.953 88.7178 188.953 90.3076V91.4355H180.843C180.879 92.8177 181.226 93.8669 181.885 94.583C182.551 95.2992 183.485 95.6572 184.688 95.6572C185.956 95.6572 187.209 95.3923 188.448 94.8623V96.4521C187.818 96.7243 187.22 96.9176 186.654 97.0322C186.096 97.154 185.419 97.2148 184.624 97.2148ZM184.141 86.5049C183.195 86.5049 182.44 86.8128 181.874 87.4287C181.315 88.0446 180.986 88.8968 180.886 89.9854H187.041C187.041 88.861 186.79 88.0016 186.289 87.4072C185.788 86.8057 185.072 86.5049 184.141 86.5049ZM193.766 90.9736C194.074 90.5368 194.543 89.9639 195.173 89.2549L198.976 85.2266H201.092L196.322 90.2432L201.425 97H199.266L195.108 91.4355L193.766 92.5957V97H192.004V80.2852H193.766V89.1475C193.766 89.5413 193.737 90.1501 193.68 90.9736H193.766ZM213.725 91.1025C213.725 93.0218 213.241 94.5221 212.274 95.6035C211.308 96.6777 209.972 97.2148 208.268 97.2148C207.215 97.2148 206.28 96.9678 205.464 96.4736C204.647 95.9795 204.017 95.2705 203.573 94.3467C203.129 93.4229 202.907 92.3415 202.907 91.1025C202.907 89.1833 203.387 87.6901 204.347 86.623C205.306 85.5488 206.638 85.0117 208.343 85.0117C209.99 85.0117 211.297 85.5596 212.264 86.6553C213.238 87.751 213.725 89.2334 213.725 91.1025ZM204.755 91.1025C204.755 92.6064 205.056 93.7523 205.657 94.54C206.259 95.3278 207.143 95.7217 208.311 95.7217C209.478 95.7217 210.362 95.3314 210.964 94.5508C211.573 93.763 211.877 92.6136 211.877 91.1025C211.877 89.6058 211.573 88.4707 210.964 87.6973C210.362 86.9167 209.471 86.5264 208.289 86.5264C207.122 86.5264 206.241 86.9095 205.646 87.6758C205.052 88.4421 204.755 89.5843 204.755 91.1025ZM219.439 97L214.971 85.2266H216.883L219.418 92.209C219.991 93.8418 220.327 94.9017 220.428 95.3887H220.514C220.592 95.0091 220.84 94.2249 221.255 93.0361C221.677 91.8402 222.619 89.237 224.08 85.2266H225.992L221.523 97H219.439Z" fill="#050F19"/>
<g clip-path="url(#clip0_1_373)">
<path d="M84.4764 62.5956C84.2573 62.5956 84.0397 62.5273 83.854 62.393C83.5081 62.1423 83.3465 61.7114 83.4406 61.2956L84.7273 55.6278L80.3638 51.8011C80.043 51.5211 79.9205 51.0777 80.0522 50.672C80.1839 50.267 80.5421 49.9803 80.9664 49.9411L86.7398 49.4169L89.0224 44.0751C89.1907 43.6827 89.574 43.4292 89.9999 43.4292C90.4258 43.4292 90.8091 43.6827 90.9774 44.0742L93.2601 49.4169L99.0326 49.9411C99.4577 49.9794 99.816 50.267 99.9477 50.672C100.079 51.0769 99.9576 51.5211 99.6369 51.8011L95.2733 55.6271L96.56 61.2946C96.6543 61.7114 96.4926 62.1423 96.1468 62.3922C95.8018 62.6422 95.3417 62.6614 94.9784 62.4431L89.9999 59.468L85.0215 62.4447C84.8532 62.5447 84.6656 62.5956 84.4764 62.5956ZM86.6957 49.5202L86.6948 49.5219L86.6957 49.5202ZM93.3025 49.5178L93.3034 49.5194L93.3025 49.5178Z" fill="#FFBD00"/>
</g>
<g clip-path="url(#clip1_1_373)">
<path d="M116.143 62.5956C115.924 62.5956 115.706 62.5273 115.521 62.393C115.175 62.1423 115.013 61.7114 115.107 61.2956L116.394 55.6278L112.03 51.8011C111.71 51.5211 111.587 51.0777 111.719 50.672C111.85 50.267 112.209 49.9803 112.633 49.9411L118.406 49.4169L120.689 44.0751C120.857 43.6827 121.241 43.4292 121.666 43.4292C122.092 43.4292 122.476 43.6827 122.644 44.0742L124.927 49.4169L130.699 49.9411C131.124 49.9794 131.483 50.267 131.614 50.672C131.746 51.0769 131.624 51.5211 131.303 51.8011L126.94 55.6271L128.227 61.2946C128.321 61.7114 128.159 62.1423 127.813 62.3922C127.468 62.6422 127.008 62.6614 126.645 62.4431L121.666 59.468L116.688 62.4447C116.52 62.5447 116.332 62.5956 116.143 62.5956ZM118.362 49.5202L118.361 49.5219L118.362 49.5202ZM124.969 49.5178L124.97 49.5194L124.969 49.5178Z" fill="#FFBD00"/>
</g>
<g clip-path="url(#clip2_1_373)">
<path d="M147.81 62.5956C147.591 62.5956 147.373 62.5273 147.187 62.393C146.842 62.1423 146.68 61.7114 146.774 61.2956L148.061 55.6278L143.697 51.8011C143.377 51.5211 143.254 51.0777 143.386 50.672C143.517 50.267 143.876 49.9803 144.3 49.9411L150.073 49.4169L152.356 44.0751C152.524 43.6827 152.908 43.4292 153.333 43.4292C153.759 43.4292 154.143 43.6827 154.311 44.0742L156.594 49.4169L162.366 49.9411C162.791 49.9794 163.149 50.267 163.281 50.672C163.413 51.0769 163.291 51.5211 162.97 51.8011L158.607 55.6271L159.893 61.2946C159.988 61.7114 159.826 62.1423 159.48 62.3922C159.135 62.6422 158.675 62.6614 158.312 62.4431L153.333 59.468L148.355 62.4447C148.187 62.5447 147.999 62.5956 147.81 62.5956ZM150.029 49.5202L150.028 49.5219L150.029 49.5202ZM156.636 49.5178L156.637 49.5194L156.636 49.5178Z" fill="#FFBD00"/>
</g>
<g clip-path="url(#clip3_1_373)">
<path d="M179.476 62.5956C179.257 62.5956 179.04 62.5273 178.854 62.393C178.508 62.1423 178.346 61.7114 178.441 61.2956L179.727 55.6278L175.364 51.8011C175.043 51.5211 174.92 51.0777 175.052 50.672C175.184 50.267 175.542 49.9803 175.966 49.9411L181.74 49.4169L184.022 44.0751C184.191 43.6827 184.574 43.4292 185 43.4292C185.426 43.4292 185.809 43.6827 185.977 44.0742L188.26 49.4169L194.033 49.9411C194.458 49.9794 194.816 50.267 194.948 50.672C195.079 51.0769 194.958 51.5211 194.637 51.8011L190.273 55.6271L191.56 61.2946C191.654 61.7114 191.493 62.1423 191.147 62.3922C190.802 62.6422 190.342 62.6614 189.978 62.4431L185 59.468L180.021 62.4447C179.853 62.5447 179.666 62.5956 179.476 62.5956ZM181.696 49.5202L181.695 49.5219L181.696 49.5202ZM188.302 49.5178L188.303 49.5194L188.302 49.5178Z" fill="#FFBD00"/>
</g>
<g clip-path="url(#clip4_1_373)">
<path d="M211.143 62.5956C210.924 62.5956 210.706 62.5273 210.521 62.393C210.175 62.1423 210.013 61.7114 210.107 61.2956L211.394 55.6278L207.03 51.8011C206.71 51.5211 206.587 51.0777 206.719 50.672C206.85 50.267 207.209 49.9803 207.633 49.9411L213.406 49.4169L215.689 44.0751C215.857 43.6827 216.241 43.4292 216.666 43.4292C217.092 43.4292 217.476 43.6827 217.644 44.0742L219.927 49.4169L225.699 49.9411C226.124 49.9794 226.483 50.267 226.614 50.672C226.746 51.0769 226.624 51.5211 226.303 51.8011L221.94 55.6271L223.227 61.2946C223.321 61.7114 223.159 62.1423 222.813 62.3922C222.468 62.6422 222.008 62.6614 221.645 62.4431L216.666 59.468L211.688 62.4447C211.52 62.5447 211.332 62.5956 211.143 62.5956ZM213.362 49.5202L213.361 49.5219L213.362 49.5202ZM219.969 49.5178L219.97 49.5194L219.969 49.5178Z" fill="#FFBD00"/>
</g>
<defs>
<filter id="filter0_dd_1_373" x="0" y="0" width="306" height="206" filterUnits="userSpaceOnUse" color-interpolation-filters="sRGB">
<feFlood flood-opacity="0" result="BackgroundImageFix"/>
<feColorMatrix in="SourceAlpha" type="matrix" values="0 0 0 0 0 0 0 0 0 0 0 0 0 0 0 0 0 0 127 0" result="hardAlpha"/>
<feMorphology radius="3" operator="dilate" in="SourceAlpha" result="effect1_dropShadow_1_373"/>
<feOffset dx="-5" dy="-5"/>
<feGaussianBlur stdDeviation="2.5"/>
<feColorMatrix type="matrix" values="0 0 0 0 0.879167 0 0 0 0 0.879167 0 0 0 0 0.879167 0 0 0 0.2 0"/>
<feBlend mode="normal" in2="BackgroundImageFix" result="effect1_dropShadow_1_373"/>
<feColorMatrix in="SourceAlpha" type="matrix" values="0 0 0 0 0 0 0 0 0 0 0 0 0 0 0 0 0 0 127 0" result="hardAlpha"/>
<feMorphology radius="3" operator="dilate" in="SourceAlpha" result="effect2_dropShadow_1_373"/>
<feOffset dx="5" dy="5"/>
<feGaussianBlur stdDeviation="2.5"/>
<feColorMatrix type="matrix" values="0 0 0 0 0.878431 0 0 0 0 0.878431 0 0 0 0 0.878431 0 0 0 0.2 0"/>
<feBlend mode="normal" in2="effect1_dropShadow_1_373" result="effect2_dropShadow_1_373"/>
<feBlend mode="normal" in="SourceGraphic" in2="effect2_dropShadow_1_373" result="shape"/>
</filter>
<clipPath id="clip0_1_373">
<rect width="20" height="20" fill="white" transform="translate(80 43)"/>
</clipPath>
<clipPath id="clip1_1_373">
<rect width="20" height="20" fill="white" transform="translate(111.667 43)"/>
</clipPath>
<clipPath id="clip2_1_373">
<rect width="20" height="20" fill="white" transform="translate(143.333 43)"/>
</clipPath>
<clipPath id="clip3_1_373">
<rect width="20" height="20" fill="white" transform="translate(175 43)"/>
</clipPath>
<clipPath id="clip4_1_373">
<rect width="20" height="20" fill="white" transform="translate(206.667 43)"/>
</clipPath>
</defs>
</svg>
