<svg width="126" height="25" viewBox="0 0 126 25" fill="none" xmlns="http://www.w3.org/2000/svg">
<path d="M3.79688 12.127H5.25586C6.23438 12.127 6.94336 11.9453 7.38281 11.582C7.82227 11.2188 8.04199 10.6797 8.04199 9.96484C8.04199 9.23828 7.80469 8.7168 7.33008 8.40039C6.85547 8.08398 6.14062 7.92578 5.18555 7.92578H3.79688V12.127ZM3.79688 13.8672V19H1.69629V6.15039H5.32617C6.98438 6.15039 8.21191 6.46094 9.00879 7.08203C9.80566 7.70313 10.2041 8.64062 10.2041 9.89453C10.2041 11.4941 9.37207 12.6338 7.70801 13.3135L11.3379 19H8.94727L5.87109 13.8672H3.79688ZM17.2354 19.1758C15.7236 19.1758 14.54 18.7363 13.6846 17.8574C12.835 16.9727 12.4102 15.7568 12.4102 14.21C12.4102 12.6221 12.8057 11.374 13.5967 10.4658C14.3877 9.55762 15.4746 9.10352 16.8574 9.10352C18.1406 9.10352 19.1543 9.49316 19.8984 10.2725C20.6426 11.0518 21.0146 12.124 21.0146 13.4893V14.6055H14.5371C14.5664 15.5488 14.8213 16.2754 15.3018 16.7852C15.7822 17.2891 16.459 17.541 17.332 17.541C17.9062 17.541 18.4395 17.4883 18.9316 17.3828C19.4297 17.2715 19.9629 17.0898 20.5312 16.8379V18.5166C20.0273 18.7568 19.5176 18.9268 19.002 19.0264C18.4863 19.126 17.8975 19.1758 17.2354 19.1758ZM16.8574 10.668C16.2012 10.668 15.6738 10.876 15.2754 11.292C14.8828 11.708 14.6484 12.3145 14.5723 13.1113H18.9844C18.9727 12.3086 18.7793 11.7021 18.4043 11.292C18.0293 10.876 17.5137 10.668 16.8574 10.668ZM29.4434 19L29.0303 17.6465H28.96C28.4912 18.2383 28.0195 18.6426 27.5449 18.8594C27.0703 19.0703 26.4609 19.1758 25.7168 19.1758C24.7617 19.1758 24.0146 18.918 23.4756 18.4023C22.9424 17.8867 22.6758 17.1572 22.6758 16.2139C22.6758 15.2119 23.0479 14.4561 23.792 13.9463C24.5361 13.4365 25.6699 13.1582 27.1934 13.1113L28.8721 13.0586V12.54C28.8721 11.9189 28.7256 11.4561 28.4326 11.1514C28.1455 10.8408 27.6973 10.6855 27.0879 10.6855C26.5898 10.6855 26.1123 10.7588 25.6553 10.9053C25.1982 11.0518 24.7588 11.2246 24.3369 11.4238L23.6689 9.94727C24.1963 9.67188 24.7734 9.46387 25.4004 9.32324C26.0273 9.17676 26.6191 9.10352 27.1758 9.10352C28.4121 9.10352 29.3438 9.37305 29.9707 9.91211C30.6035 10.4512 30.9199 11.2979 30.9199 12.4521V19H29.4434ZM26.3672 17.5938C27.1172 17.5938 27.7178 17.3857 28.1689 16.9697C28.626 16.5479 28.8545 15.959 28.8545 15.2031V14.3594L27.6064 14.4121C26.6338 14.4473 25.9248 14.6113 25.4795 14.9043C25.04 15.1914 24.8203 15.6338 24.8203 16.2314C24.8203 16.665 24.9492 17.002 25.207 17.2422C25.4648 17.4766 25.8516 17.5938 26.3672 17.5938ZM37.0811 19.1758C35.8682 19.1758 34.9219 18.7363 34.2422 17.8574C33.5625 16.9785 33.2227 15.7451 33.2227 14.1572C33.2227 12.5635 33.5654 11.3242 34.251 10.4395C34.9424 9.54883 35.8975 9.10352 37.1162 9.10352C38.3936 9.10352 39.3662 9.5752 40.0342 10.5186H40.1396C40.04 9.82129 39.9902 9.27051 39.9902 8.86621V5.32422H42.0645V19H40.4473L40.0869 17.7256H39.9902C39.3281 18.6924 38.3584 19.1758 37.0811 19.1758ZM37.6348 17.5059C38.4844 17.5059 39.1025 17.2686 39.4893 16.7939C39.876 16.3135 40.0752 15.5371 40.0869 14.4648V14.1748C40.0869 12.9502 39.8877 12.0801 39.4893 11.5645C39.0908 11.0488 38.4668 10.791 37.6172 10.791C36.8906 10.791 36.3311 11.0869 35.9385 11.6787C35.5459 12.2646 35.3496 13.1025 35.3496 14.1924C35.3496 15.2705 35.54 16.0938 35.9209 16.6621C36.3018 17.2246 36.873 17.5059 37.6348 17.5059ZM57.8848 19H55.8105V13.0059C55.8105 12.2617 55.6699 11.708 55.3887 11.3447C55.1074 10.9756 54.668 10.791 54.0703 10.791C53.2734 10.791 52.6875 11.0518 52.3125 11.5732C51.9434 12.0889 51.7588 12.9502 51.7588 14.1572V19H49.6934V9.2793H51.3105L51.6006 10.5537H51.7061C51.9756 10.0908 52.3652 9.7334 52.875 9.48145C53.3906 9.22949 53.9561 9.10352 54.5713 9.10352C56.0654 9.10352 57.0557 9.61328 57.542 10.6328H57.6826C57.9697 10.1523 58.374 9.77734 58.8955 9.50781C59.417 9.23828 60.0146 9.10352 60.6885 9.10352C61.8486 9.10352 62.6924 9.39648 63.2197 9.98242C63.7529 10.5684 64.0195 11.4619 64.0195 12.6631V19H61.9541V13.0059C61.9541 12.2617 61.8105 11.708 61.5234 11.3447C61.2422 10.9756 60.8027 10.791 60.2051 10.791C59.4023 10.791 58.8135 11.043 58.4385 11.5469C58.0693 12.0449 57.8848 12.8125 57.8848 13.8496V19ZM75.5244 14.1221C75.5244 15.71 75.1172 16.9492 74.3027 17.8398C73.4883 18.7305 72.3545 19.1758 70.9014 19.1758C69.9932 19.1758 69.1904 18.9707 68.4932 18.5605C67.7959 18.1504 67.2598 17.5615 66.8848 16.7939C66.5098 16.0264 66.3223 15.1357 66.3223 14.1221C66.3223 12.5459 66.7266 11.3154 67.5352 10.4307C68.3438 9.5459 69.4834 9.10352 70.9541 9.10352C72.3604 9.10352 73.4736 9.55762 74.2939 10.4658C75.1143 11.3682 75.5244 12.5869 75.5244 14.1221ZM68.4492 14.1221C68.4492 16.3662 69.2783 17.4883 70.9365 17.4883C72.5771 17.4883 73.3975 16.3662 73.3975 14.1221C73.3975 11.9014 72.5713 10.791 70.9189 10.791C70.0518 10.791 69.4219 11.0781 69.0293 11.6523C68.6426 12.2266 68.4492 13.0498 68.4492 14.1221ZM82.8369 9.10352C83.2529 9.10352 83.5957 9.13281 83.8652 9.19141L83.6631 11.1162C83.3701 11.0459 83.0654 11.0107 82.749 11.0107C81.9229 11.0107 81.252 11.2803 80.7363 11.8193C80.2266 12.3584 79.9717 13.0586 79.9717 13.9199V19H77.9062V9.2793H79.5234L79.7959 10.9932H79.9014C80.2236 10.4131 80.6426 9.95312 81.1582 9.61328C81.6797 9.27344 82.2393 9.10352 82.8369 9.10352ZM89.9209 19.1758C88.4092 19.1758 87.2256 18.7363 86.3701 17.8574C85.5205 16.9727 85.0957 15.7568 85.0957 14.21C85.0957 12.6221 85.4912 11.374 86.2822 10.4658C87.0732 9.55762 88.1602 9.10352 89.543 9.10352C90.8262 9.10352 91.8398 9.49316 92.584 10.2725C93.3281 11.0518 93.7002 12.124 93.7002 13.4893V14.6055H87.2227C87.252 15.5488 87.5068 16.2754 87.9873 16.7852C88.4678 17.2891 89.1445 17.541 90.0176 17.541C90.5918 17.541 91.125 17.4883 91.6172 17.3828C92.1152 17.2715 92.6484 17.0898 93.2168 16.8379V18.5166C92.7129 18.7568 92.2031 18.9268 91.6875 19.0264C91.1719 19.126 90.583 19.1758 89.9209 19.1758ZM89.543 10.668C88.8867 10.668 88.3594 10.876 87.9609 11.292C87.5684 11.708 87.334 12.3145 87.2578 13.1113H91.6699C91.6582 12.3086 91.4648 11.7021 91.0898 11.292C90.7148 10.876 90.1992 10.668 89.543 10.668Z" fill="#2F80ED"/>
<g clip-path="url(#clip0_1_73)">
<path d="M125.759 11.9193C125.759 11.9191 125.759 11.9188 125.759 11.9186L121.472 7.65293C121.151 7.33338 120.632 7.33457 120.312 7.65572C119.993 7.97683 119.994 8.49622 120.315 8.81581L123.193 11.6797H105.82C105.367 11.6797 105 12.0469 105 12.5C105 12.9531 105.367 13.3203 105.82 13.3203H123.193L120.315 16.1842C119.994 16.5038 119.993 17.0232 120.312 17.3443C120.632 17.6655 121.151 17.6666 121.472 17.3471L125.759 13.0814C125.759 13.0812 125.759 13.0809 125.759 13.0807C126.081 12.76 126.08 12.2389 125.759 11.9193Z" fill="#2F80ED"/>
</g>
<defs>
<clipPath id="clip0_1_73">
<rect width="21" height="21" fill="white" transform="translate(105 2)"/>
</clipPath>
</defs>
</svg>
