<svg width="306" height="206" viewBox="0 0 306 206" fill="none" xmlns="http://www.w3.org/2000/svg">
<g filter="url(#filter0_dd_1_405)">
<rect x="13" y="13" width="280" height="180" rx="5" fill="white"/>
</g>
<path d="M63.0703 128H61.7422V116.578H68.1094V117.758H63.0703V121.938H67.8047V123.117H63.0703V128ZM71.1094 128H69.8125V119.438H71.1094V128ZM69.7031 117.117C69.7031 116.82 69.776 116.604 69.9219 116.469C70.0677 116.328 70.25 116.258 70.4688 116.258C70.6771 116.258 70.8568 116.328 71.0078 116.469C71.1589 116.609 71.2344 116.826 71.2344 117.117C71.2344 117.409 71.1589 117.628 71.0078 117.773C70.8568 117.914 70.6771 117.984 70.4688 117.984C70.25 117.984 70.0677 117.914 69.9219 117.773C69.776 117.628 69.7031 117.409 69.7031 117.117ZM79.7188 128V122.461C79.7188 121.763 79.5599 121.242 79.2422 120.898C78.9245 120.555 78.4271 120.383 77.75 120.383C76.8542 120.383 76.1979 120.625 75.7812 121.109C75.3646 121.594 75.1562 122.393 75.1562 123.508V128H73.8594V119.438H74.9141L75.125 120.609H75.1875C75.4531 120.188 75.8255 119.862 76.3047 119.633C76.7839 119.398 77.3177 119.281 77.9062 119.281C78.9375 119.281 79.7135 119.531 80.2344 120.031C80.7552 120.526 81.0156 121.32 81.0156 122.414V128H79.7188ZM88.9531 128L88.6953 126.781H88.6328C88.2057 127.318 87.7786 127.682 87.3516 127.875C86.9297 128.062 86.401 128.156 85.7656 128.156C84.9167 128.156 84.25 127.938 83.7656 127.5C83.2865 127.062 83.0469 126.44 83.0469 125.633C83.0469 123.904 84.4297 122.997 87.1953 122.914L88.6484 122.867V122.336C88.6484 121.664 88.5026 121.169 88.2109 120.852C87.9245 120.529 87.4635 120.367 86.8281 120.367C86.1146 120.367 85.3073 120.586 84.4062 121.023L84.0078 120.031C84.4297 119.802 84.8906 119.622 85.3906 119.492C85.8958 119.362 86.401 119.297 86.9062 119.297C87.9271 119.297 88.6823 119.523 89.1719 119.977C89.6667 120.43 89.9141 121.156 89.9141 122.156V128H88.9531ZM86.0234 127.086C86.8307 127.086 87.4635 126.865 87.9219 126.422C88.3854 125.979 88.6172 125.359 88.6172 124.562V123.789L87.3203 123.844C86.2891 123.88 85.5443 124.042 85.0859 124.328C84.6328 124.609 84.4062 125.049 84.4062 125.648C84.4062 126.117 84.5469 126.474 84.8281 126.719C85.1146 126.964 85.513 127.086 86.0234 127.086ZM93.8906 128H92.5938V115.844H93.8906V128ZM97.9375 128H96.6406V115.844H97.9375V128ZM99.3281 119.438H100.719L102.594 124.32C103.005 125.435 103.26 126.24 103.359 126.734H103.422C103.49 126.469 103.63 126.016 103.844 125.375C104.062 124.729 104.771 122.75 105.969 119.438H107.359L103.68 129.188C103.315 130.151 102.888 130.833 102.398 131.234C101.914 131.641 101.318 131.844 100.609 131.844C100.214 131.844 99.8229 131.799 99.4375 131.711V130.672C99.724 130.734 100.044 130.766 100.398 130.766C101.289 130.766 101.924 130.266 102.305 129.266L102.781 128.047L99.3281 119.438ZM118.172 128L117.914 126.781H117.852C117.424 127.318 116.997 127.682 116.57 127.875C116.148 128.062 115.62 128.156 114.984 128.156C114.135 128.156 113.469 127.938 112.984 127.5C112.505 127.062 112.266 126.44 112.266 125.633C112.266 123.904 113.648 122.997 116.414 122.914L117.867 122.867V122.336C117.867 121.664 117.721 121.169 117.43 120.852C117.143 120.529 116.682 120.367 116.047 120.367C115.333 120.367 114.526 120.586 113.625 121.023L113.227 120.031C113.648 119.802 114.109 119.622 114.609 119.492C115.115 119.362 115.62 119.297 116.125 119.297C117.146 119.297 117.901 119.523 118.391 119.977C118.885 120.43 119.133 121.156 119.133 122.156V128H118.172ZM115.242 127.086C116.049 127.086 116.682 126.865 117.141 126.422C117.604 125.979 117.836 125.359 117.836 124.562V123.789L116.539 123.844C115.508 123.88 114.763 124.042 114.305 124.328C113.852 124.609 113.625 125.049 113.625 125.648C113.625 126.117 113.766 126.474 114.047 126.719C114.333 126.964 114.732 127.086 115.242 127.086ZM131.492 125.664C131.492 126.461 131.195 127.076 130.602 127.508C130.008 127.94 129.174 128.156 128.102 128.156C126.966 128.156 126.081 127.977 125.445 127.617V126.414C125.857 126.622 126.297 126.786 126.766 126.906C127.24 127.026 127.695 127.086 128.133 127.086C128.81 127.086 129.331 126.979 129.695 126.766C130.06 126.547 130.242 126.216 130.242 125.773C130.242 125.44 130.096 125.156 129.805 124.922C129.518 124.682 128.956 124.401 128.117 124.078C127.32 123.781 126.753 123.523 126.414 123.305C126.081 123.081 125.831 122.828 125.664 122.547C125.503 122.266 125.422 121.93 125.422 121.539C125.422 120.841 125.706 120.292 126.273 119.891C126.841 119.484 127.62 119.281 128.609 119.281C129.531 119.281 130.432 119.469 131.312 119.844L130.852 120.898C129.992 120.544 129.214 120.367 128.516 120.367C127.901 120.367 127.438 120.464 127.125 120.656C126.812 120.849 126.656 121.115 126.656 121.453C126.656 121.682 126.714 121.878 126.828 122.039C126.948 122.201 127.138 122.354 127.398 122.5C127.659 122.646 128.159 122.857 128.898 123.133C129.914 123.503 130.599 123.875 130.953 124.25C131.312 124.625 131.492 125.096 131.492 125.664ZM137.227 128.156C135.961 128.156 134.961 127.771 134.227 127C133.497 126.229 133.133 125.159 133.133 123.789C133.133 122.409 133.471 121.312 134.148 120.5C134.831 119.688 135.745 119.281 136.891 119.281C137.964 119.281 138.812 119.635 139.438 120.344C140.062 121.047 140.375 121.977 140.375 123.133V123.953H134.477C134.503 124.958 134.755 125.721 135.234 126.242C135.719 126.763 136.398 127.023 137.273 127.023C138.195 127.023 139.107 126.831 140.008 126.445V127.602C139.549 127.799 139.115 127.94 138.703 128.023C138.297 128.112 137.805 128.156 137.227 128.156ZM136.875 120.367C136.188 120.367 135.638 120.591 135.227 121.039C134.82 121.487 134.581 122.107 134.508 122.898H138.984C138.984 122.081 138.802 121.456 138.438 121.023C138.073 120.586 137.552 120.367 136.875 120.367ZM146.5 119.281C146.88 119.281 147.221 119.312 147.523 119.375L147.344 120.578C146.99 120.5 146.677 120.461 146.406 120.461C145.714 120.461 145.12 120.742 144.625 121.305C144.135 121.867 143.891 122.568 143.891 123.406V128H142.594V119.438H143.664L143.812 121.023H143.875C144.193 120.466 144.576 120.036 145.023 119.734C145.471 119.432 145.964 119.281 146.5 119.281ZM151 128L147.75 119.438H149.141L150.984 124.516C151.401 125.703 151.646 126.474 151.719 126.828H151.781C151.839 126.552 152.018 125.982 152.32 125.117C152.628 124.247 153.312 122.354 154.375 119.438H155.766L152.516 128H151ZM158.438 128H157.141V119.438H158.438V128ZM157.031 117.117C157.031 116.82 157.104 116.604 157.25 116.469C157.396 116.328 157.578 116.258 157.797 116.258C158.005 116.258 158.185 116.328 158.336 116.469C158.487 116.609 158.562 116.826 158.562 117.117C158.562 117.409 158.487 117.628 158.336 117.773C158.185 117.914 158.005 117.984 157.797 117.984C157.578 117.984 157.396 117.914 157.25 117.773C157.104 117.628 157.031 117.409 157.031 117.117ZM164.609 128.156C163.37 128.156 162.409 127.776 161.727 127.016C161.049 126.25 160.711 125.169 160.711 123.773C160.711 122.341 161.055 121.234 161.742 120.453C162.435 119.672 163.419 119.281 164.695 119.281C165.107 119.281 165.518 119.326 165.93 119.414C166.341 119.503 166.664 119.607 166.898 119.727L166.5 120.828C166.214 120.714 165.901 120.62 165.562 120.547C165.224 120.469 164.924 120.43 164.664 120.43C162.924 120.43 162.055 121.539 162.055 123.758C162.055 124.81 162.266 125.617 162.688 126.18C163.115 126.742 163.745 127.023 164.578 127.023C165.292 127.023 166.023 126.87 166.773 126.562V127.711C166.201 128.008 165.479 128.156 164.609 128.156ZM172.43 128.156C171.164 128.156 170.164 127.771 169.43 127C168.701 126.229 168.336 125.159 168.336 123.789C168.336 122.409 168.674 121.312 169.352 120.5C170.034 119.688 170.948 119.281 172.094 119.281C173.167 119.281 174.016 119.635 174.641 120.344C175.266 121.047 175.578 121.977 175.578 123.133V123.953H169.68C169.706 124.958 169.958 125.721 170.438 126.242C170.922 126.763 171.602 127.023 172.477 127.023C173.398 127.023 174.31 126.831 175.211 126.445V127.602C174.753 127.799 174.318 127.94 173.906 128.023C173.5 128.112 173.008 128.156 172.43 128.156ZM172.078 120.367C171.391 120.367 170.841 120.591 170.43 121.039C170.023 121.487 169.784 122.107 169.711 122.898H174.188C174.188 122.081 174.005 121.456 173.641 121.023C173.276 120.586 172.755 120.367 172.078 120.367ZM183.25 128H181.953V115.844H183.25V128ZM187.297 128H186V119.438H187.297V128ZM185.891 117.117C185.891 116.82 185.964 116.604 186.109 116.469C186.255 116.328 186.438 116.258 186.656 116.258C186.865 116.258 187.044 116.328 187.195 116.469C187.346 116.609 187.422 116.826 187.422 117.117C187.422 117.409 187.346 117.628 187.195 117.773C187.044 117.914 186.865 117.984 186.656 117.984C186.438 117.984 186.255 117.914 186.109 117.773C185.964 117.628 185.891 117.409 185.891 117.117ZM191.328 123.617C191.552 123.299 191.893 122.883 192.352 122.367L195.117 119.438H196.656L193.188 123.086L196.898 128H195.328L192.305 123.953L191.328 124.797V128H190.047V115.844H191.328V122.289C191.328 122.576 191.307 123.018 191.266 123.617H191.328ZM202.07 128.156C200.805 128.156 199.805 127.771 199.07 127C198.341 126.229 197.977 125.159 197.977 123.789C197.977 122.409 198.315 121.312 198.992 120.5C199.674 119.688 200.589 119.281 201.734 119.281C202.807 119.281 203.656 119.635 204.281 120.344C204.906 121.047 205.219 121.977 205.219 123.133V123.953H199.32C199.346 124.958 199.599 125.721 200.078 126.242C200.562 126.763 201.242 127.023 202.117 127.023C203.039 127.023 203.951 126.831 204.852 126.445V127.602C204.393 127.799 203.958 127.94 203.547 128.023C203.141 128.112 202.648 128.156 202.07 128.156ZM201.719 120.367C201.031 120.367 200.482 120.591 200.07 121.039C199.664 121.487 199.424 122.107 199.352 122.898H203.828C203.828 122.081 203.646 121.456 203.281 121.023C202.917 120.586 202.396 120.367 201.719 120.367ZM214.359 127.086C214.589 127.086 214.81 127.07 215.023 127.039C215.237 127.003 215.406 126.966 215.531 126.93V127.922C215.391 127.99 215.182 128.044 214.906 128.086C214.635 128.133 214.391 128.156 214.172 128.156C212.516 128.156 211.688 127.284 211.688 125.539V120.445H210.461V119.82L211.688 119.281L212.234 117.453H212.984V119.438H215.469V120.445H212.984V125.484C212.984 126 213.107 126.396 213.352 126.672C213.596 126.948 213.932 127.086 214.359 127.086ZM223.109 128V122.461C223.109 121.763 222.951 121.242 222.633 120.898C222.315 120.555 221.818 120.383 221.141 120.383C220.24 120.383 219.581 120.628 219.164 121.117C218.753 121.607 218.547 122.409 218.547 123.523V128H217.25V115.844H218.547V119.523C218.547 119.966 218.526 120.333 218.484 120.625H218.562C218.818 120.214 219.18 119.891 219.648 119.656C220.122 119.417 220.661 119.297 221.266 119.297C222.312 119.297 223.096 119.547 223.617 120.047C224.143 120.542 224.406 121.331 224.406 122.414V128H223.109ZM228.375 128H227.078V119.438H228.375V128ZM226.969 117.117C226.969 116.82 227.042 116.604 227.188 116.469C227.333 116.328 227.516 116.258 227.734 116.258C227.943 116.258 228.122 116.328 228.273 116.469C228.424 116.609 228.5 116.826 228.5 117.117C228.5 117.409 228.424 117.628 228.273 117.773C228.122 117.914 227.943 117.984 227.734 117.984C227.516 117.984 227.333 117.914 227.188 117.773C227.042 117.628 226.969 117.409 226.969 117.117ZM236.648 125.664C236.648 126.461 236.352 127.076 235.758 127.508C235.164 127.94 234.331 128.156 233.258 128.156C232.122 128.156 231.237 127.977 230.602 127.617V126.414C231.013 126.622 231.453 126.786 231.922 126.906C232.396 127.026 232.852 127.086 233.289 127.086C233.966 127.086 234.487 126.979 234.852 126.766C235.216 126.547 235.398 126.216 235.398 125.773C235.398 125.44 235.253 125.156 234.961 124.922C234.674 124.682 234.112 124.401 233.273 124.078C232.477 123.781 231.909 123.523 231.57 123.305C231.237 123.081 230.987 122.828 230.82 122.547C230.659 122.266 230.578 121.93 230.578 121.539C230.578 120.841 230.862 120.292 231.43 119.891C231.997 119.484 232.776 119.281 233.766 119.281C234.688 119.281 235.589 119.469 236.469 119.844L236.008 120.898C235.148 120.544 234.37 120.367 233.672 120.367C233.057 120.367 232.594 120.464 232.281 120.656C231.969 120.849 231.812 121.115 231.812 121.453C231.812 121.682 231.87 121.878 231.984 122.039C232.104 122.201 232.294 122.354 232.555 122.5C232.815 122.646 233.315 122.857 234.055 123.133C235.07 123.503 235.755 123.875 236.109 124.25C236.469 124.625 236.648 125.096 236.648 125.664ZM244.094 124.852H243.273L242.875 116.578H244.492L244.094 124.852ZM242.734 127.172C242.734 126.464 243.047 126.109 243.672 126.109C243.974 126.109 244.206 126.201 244.367 126.383C244.534 126.565 244.617 126.828 244.617 127.172C244.617 127.505 244.534 127.766 244.367 127.953C244.201 128.135 243.969 128.227 243.672 128.227C243.401 128.227 243.177 128.146 243 127.984C242.823 127.818 242.734 127.547 242.734 127.172Z" fill="#333333"/>
<path d="M89.1367 92.8213C89.1367 94.2035 88.6354 95.2812 87.6328 96.0547C86.6302 96.8281 85.2695 97.2148 83.5508 97.2148C81.6888 97.2148 80.2565 96.9749 79.2539 96.4951V94.7334C79.8984 95.0055 80.6003 95.2204 81.3594 95.3779C82.1185 95.5355 82.8704 95.6143 83.6152 95.6143C84.8327 95.6143 85.7493 95.3851 86.3652 94.9268C86.9811 94.4613 87.2891 93.8167 87.2891 92.9932C87.2891 92.4489 87.1781 92.0049 86.9561 91.6611C86.7412 91.3102 86.376 90.988 85.8604 90.6943C85.3519 90.4007 84.5749 90.0677 83.5293 89.6953C82.0684 89.1725 81.0228 88.5531 80.3926 87.8369C79.7695 87.1208 79.458 86.1862 79.458 85.0332C79.458 83.8229 79.9128 82.8597 80.8223 82.1436C81.7318 81.4274 82.9349 81.0693 84.4316 81.0693C85.9928 81.0693 87.4287 81.3558 88.7393 81.9287L88.1699 83.5186C86.8737 82.9743 85.6133 82.7021 84.3887 82.7021C83.4219 82.7021 82.6663 82.9098 82.1221 83.3252C81.5778 83.7406 81.3057 84.3171 81.3057 85.0547C81.3057 85.599 81.4059 86.0465 81.6064 86.3975C81.807 86.7412 82.1436 87.0599 82.6162 87.3535C83.096 87.64 83.8265 87.9587 84.8076 88.3096C86.4548 88.8968 87.5863 89.527 88.2021 90.2002C88.8252 90.8734 89.1367 91.7471 89.1367 92.8213ZM95.8828 95.7432C96.1979 95.7432 96.5023 95.7217 96.7959 95.6787C97.0895 95.6286 97.3223 95.5785 97.4941 95.5283V96.8926C97.3008 96.9857 97.0143 97.0609 96.6348 97.1182C96.2624 97.1826 95.9258 97.2148 95.625 97.2148C93.3477 97.2148 92.209 96.0153 92.209 93.6162V86.6123H90.5225V85.7529L92.209 85.0117L92.9609 82.498H93.9922V85.2266H97.4082V86.6123H93.9922V93.541C93.9922 94.25 94.1605 94.7943 94.4971 95.1738C94.8337 95.5534 95.2956 95.7432 95.8828 95.7432ZM104.831 97.2148C103.091 97.2148 101.716 96.6849 100.706 95.625C99.7035 94.5651 99.2021 93.0934 99.2021 91.21C99.2021 89.3122 99.6676 87.8047 100.599 86.6875C101.537 85.5703 102.794 85.0117 104.369 85.0117C105.844 85.0117 107.012 85.4987 107.871 86.4727C108.73 87.4395 109.16 88.7178 109.16 90.3076V91.4355H101.05C101.086 92.8177 101.433 93.8669 102.092 94.583C102.758 95.2992 103.692 95.6572 104.896 95.6572C106.163 95.6572 107.416 95.3923 108.655 94.8623V96.4521C108.025 96.7243 107.427 96.9176 106.861 97.0322C106.303 97.154 105.626 97.2148 104.831 97.2148ZM104.348 86.5049C103.402 86.5049 102.647 86.8128 102.081 87.4287C101.522 88.0446 101.193 88.8968 101.093 89.9854H107.248C107.248 88.861 106.997 88.0016 106.496 87.4072C105.995 86.8057 105.279 86.5049 104.348 86.5049ZM117.689 97.2148C116.923 97.2148 116.221 97.0752 115.584 96.7959C114.954 96.5094 114.424 96.0726 113.994 95.4854H113.865C113.951 96.1729 113.994 96.8245 113.994 97.4404V102.285H112.211V85.2266H113.661L113.908 86.8379H113.994C114.452 86.1934 114.986 85.7279 115.595 85.4414C116.203 85.1549 116.902 85.0117 117.689 85.0117C119.251 85.0117 120.454 85.5452 121.299 86.6123C122.151 87.6794 122.577 89.1761 122.577 91.1025C122.577 93.0361 122.144 94.54 121.277 95.6143C120.418 96.6813 119.222 97.2148 117.689 97.2148ZM117.432 86.5264C116.229 86.5264 115.358 86.8594 114.821 87.5254C114.284 88.1914 114.008 89.2513 113.994 90.7051V91.1025C113.994 92.7568 114.27 93.9421 114.821 94.6582C115.373 95.3672 116.257 95.7217 117.475 95.7217C118.492 95.7217 119.286 95.3099 119.859 94.4863C120.439 93.6628 120.729 92.5277 120.729 91.0811C120.729 89.613 120.439 88.4886 119.859 87.708C119.286 86.9202 118.477 86.5264 117.432 86.5264ZM133.76 97V89.3838C133.76 88.4242 133.541 87.708 133.104 87.2354C132.668 86.7627 131.984 86.5264 131.053 86.5264C129.814 86.5264 128.908 86.863 128.335 87.5361C127.769 88.2093 127.486 89.3122 127.486 90.8447V97H125.703V80.2852H127.486V85.3447C127.486 85.9535 127.458 86.4583 127.4 86.8594H127.508C127.859 86.2936 128.356 85.8496 129.001 85.5273C129.653 85.1979 130.394 85.0332 131.225 85.0332C132.664 85.0332 133.742 85.377 134.458 86.0645C135.181 86.7448 135.543 87.8298 135.543 89.3193V97H133.76ZM144.19 97.2148C142.45 97.2148 141.075 96.6849 140.065 95.625C139.063 94.5651 138.562 93.0934 138.562 91.21C138.562 89.3122 139.027 87.8047 139.958 86.6875C140.896 85.5703 142.153 85.0117 143.729 85.0117C145.204 85.0117 146.371 85.4987 147.23 86.4727C148.09 87.4395 148.52 88.7178 148.52 90.3076V91.4355H140.409C140.445 92.8177 140.792 93.8669 141.451 94.583C142.117 95.2992 143.052 95.6572 144.255 95.6572C145.522 95.6572 146.776 95.3923 148.015 94.8623V96.4521C147.384 96.7243 146.786 96.9176 146.221 97.0322C145.662 97.154 144.985 97.2148 144.19 97.2148ZM143.707 86.5049C142.762 86.5049 142.006 86.8128 141.44 87.4287C140.882 88.0446 140.552 88.8968 140.452 89.9854H146.607C146.607 88.861 146.357 88.0016 145.855 87.4072C145.354 86.8057 144.638 86.5049 143.707 86.5049ZM159.627 97V89.3838C159.627 88.4242 159.409 87.708 158.972 87.2354C158.535 86.7627 157.851 86.5264 156.92 86.5264C155.688 86.5264 154.786 86.8594 154.213 87.5254C153.64 88.1914 153.354 89.2907 153.354 90.8232V97H151.57V85.2266H153.021L153.311 86.8379H153.396C153.762 86.2578 154.274 85.8102 154.933 85.4951C155.591 85.1729 156.326 85.0117 157.135 85.0117C158.553 85.0117 159.62 85.3555 160.336 86.043C161.052 86.7233 161.41 87.8154 161.41 89.3193V97H159.627ZM171.067 97V81.2949H172.894V95.3457H179.822V97H171.067ZM187.202 97.2148C185.462 97.2148 184.087 96.6849 183.077 95.625C182.075 94.5651 181.573 93.0934 181.573 91.21C181.573 89.3122 182.039 87.8047 182.97 86.6875C183.908 85.5703 185.165 85.0117 186.74 85.0117C188.215 85.0117 189.383 85.4987 190.242 86.4727C191.102 87.4395 191.531 88.7178 191.531 90.3076V91.4355H183.421C183.457 92.8177 183.804 93.8669 184.463 94.583C185.129 95.2992 186.063 95.6572 187.267 95.6572C188.534 95.6572 189.787 95.3923 191.026 94.8623V96.4521C190.396 96.7243 189.798 96.9176 189.232 97.0322C188.674 97.154 187.997 97.2148 187.202 97.2148ZM186.719 86.5049C185.773 86.5049 185.018 86.8128 184.452 87.4287C183.894 88.0446 183.564 88.8968 183.464 89.9854H189.619C189.619 88.861 189.368 88.0016 188.867 87.4072C188.366 86.8057 187.65 86.5049 186.719 86.5049ZM204.196 97L202.037 90.0928C201.901 89.6702 201.647 88.7106 201.274 87.2139H201.188C200.902 88.4671 200.651 89.4339 200.437 90.1143L198.213 97H196.15L192.938 85.2266H194.808C195.567 88.1842 196.143 90.4365 196.537 91.9834C196.938 93.5303 197.167 94.5723 197.225 95.1094H197.311C197.389 94.7012 197.515 94.1748 197.687 93.5303C197.866 92.8786 198.02 92.363 198.148 91.9834L200.308 85.2266H202.241L204.347 91.9834C204.748 93.2152 205.02 94.25 205.163 95.0879H205.249C205.278 94.8301 205.353 94.4326 205.475 93.8955C205.604 93.3584 206.352 90.4688 207.72 85.2266H209.567L206.312 97H204.196ZM213.488 97H211.705V85.2266H213.488V97ZM211.555 82.0361C211.555 81.6279 211.655 81.3307 211.855 81.1445C212.056 80.9512 212.307 80.8545 212.607 80.8545C212.894 80.8545 213.141 80.9512 213.349 81.1445C213.556 81.3379 213.66 81.6351 213.66 82.0361C213.66 82.4372 213.556 82.738 213.349 82.9385C213.141 83.1318 212.894 83.2285 212.607 83.2285C212.307 83.2285 212.056 83.1318 211.855 82.9385C211.655 82.738 211.555 82.4372 211.555 82.0361ZM224.864 93.7881C224.864 94.8838 224.456 95.7288 223.64 96.3232C222.823 96.9176 221.677 97.2148 220.202 97.2148C218.641 97.2148 217.424 96.9678 216.55 96.4736V94.8193C217.116 95.1058 217.721 95.3314 218.365 95.4961C219.017 95.6608 219.644 95.7432 220.245 95.7432C221.176 95.7432 221.892 95.5964 222.394 95.3027C222.895 95.002 223.146 94.5472 223.146 93.9385C223.146 93.4801 222.945 93.0898 222.544 92.7676C222.15 92.4382 221.377 92.0514 220.224 91.6074C219.128 91.1992 218.347 90.8447 217.882 90.5439C217.424 90.236 217.08 89.8887 216.851 89.502C216.629 89.1152 216.518 88.6533 216.518 88.1162C216.518 87.1566 216.908 86.401 217.688 85.8496C218.469 85.291 219.54 85.0117 220.9 85.0117C222.168 85.0117 223.407 85.2695 224.617 85.7852L223.983 87.2354C222.802 86.7484 221.731 86.5049 220.771 86.5049C219.926 86.5049 219.289 86.6374 218.859 86.9023C218.43 87.1673 218.215 87.5326 218.215 87.998C218.215 88.3132 218.294 88.5817 218.451 88.8037C218.616 89.0257 218.877 89.237 219.235 89.4375C219.593 89.638 220.281 89.9281 221.298 90.3076C222.694 90.8161 223.636 91.3281 224.123 91.8438C224.617 92.3594 224.864 93.0075 224.864 93.7881Z" fill="#050F19"/>
<g clip-path="url(#clip0_1_405)">
<path d="M84.4764 62.5956C84.2573 62.5956 84.0397 62.5273 83.854 62.393C83.5081 62.1423 83.3465 61.7114 83.4406 61.2956L84.7273 55.6278L80.3638 51.8011C80.043 51.5211 79.9205 51.0777 80.0522 50.672C80.1839 50.267 80.5421 49.9803 80.9664 49.9411L86.7398 49.4169L89.0224 44.0751C89.1907 43.6827 89.574 43.4292 89.9999 43.4292C90.4258 43.4292 90.8091 43.6827 90.9774 44.0742L93.2601 49.4169L99.0326 49.9411C99.4577 49.9794 99.816 50.267 99.9477 50.672C100.079 51.0769 99.9576 51.5211 99.6369 51.8011L95.2733 55.6271L96.56 61.2946C96.6543 61.7114 96.4926 62.1423 96.1468 62.3922C95.8018 62.6422 95.3417 62.6614 94.9784 62.4431L89.9999 59.468L85.0215 62.4447C84.8532 62.5447 84.6656 62.5956 84.4764 62.5956ZM86.6957 49.5202L86.6948 49.5219L86.6957 49.5202ZM93.3025 49.5178L93.3034 49.5194L93.3025 49.5178Z" fill="#FFBD00"/>
</g>
<g clip-path="url(#clip1_1_405)">
<path d="M116.143 62.5956C115.924 62.5956 115.706 62.5273 115.521 62.393C115.175 62.1423 115.013 61.7114 115.107 61.2956L116.394 55.6278L112.03 51.8011C111.71 51.5211 111.587 51.0777 111.719 50.672C111.85 50.267 112.209 49.9803 112.633 49.9411L118.406 49.4169L120.689 44.0751C120.857 43.6827 121.241 43.4292 121.666 43.4292C122.092 43.4292 122.476 43.6827 122.644 44.0742L124.927 49.4169L130.699 49.9411C131.124 49.9794 131.483 50.267 131.614 50.672C131.746 51.0769 131.624 51.5211 131.303 51.8011L126.94 55.6271L128.227 61.2946C128.321 61.7114 128.159 62.1423 127.813 62.3922C127.468 62.6422 127.008 62.6614 126.645 62.4431L121.666 59.468L116.688 62.4447C116.52 62.5447 116.332 62.5956 116.143 62.5956ZM118.362 49.5202L118.361 49.5219L118.362 49.5202ZM124.969 49.5178L124.97 49.5194L124.969 49.5178Z" fill="#FFBD00"/>
</g>
<g clip-path="url(#clip2_1_405)">
<path d="M147.81 62.5956C147.591 62.5956 147.373 62.5273 147.187 62.393C146.842 62.1423 146.68 61.7114 146.774 61.2956L148.061 55.6278L143.697 51.8011C143.377 51.5211 143.254 51.0777 143.386 50.672C143.517 50.267 143.876 49.9803 144.3 49.9411L150.073 49.4169L152.356 44.0751C152.524 43.6827 152.908 43.4292 153.333 43.4292C153.759 43.4292 154.143 43.6827 154.311 44.0742L156.594 49.4169L162.366 49.9411C162.791 49.9794 163.149 50.267 163.281 50.672C163.413 51.0769 163.291 51.5211 162.97 51.8011L158.607 55.6271L159.893 61.2946C159.988 61.7114 159.826 62.1423 159.48 62.3922C159.135 62.6422 158.675 62.6614 158.312 62.4431L153.333 59.468L148.355 62.4447C148.187 62.5447 147.999 62.5956 147.81 62.5956ZM150.029 49.5202L150.028 49.5219L150.029 49.5202ZM156.636 49.5178L156.637 49.5194L156.636 49.5178Z" fill="#FFBD00"/>
</g>
<g clip-path="url(#clip3_1_405)">
<path d="M179.476 62.5956C179.257 62.5956 179.04 62.5273 178.854 62.393C178.508 62.1423 178.346 61.7114 178.441 61.2956L179.727 55.6278L175.364 51.8011C175.043 51.5211 174.92 51.0777 175.052 50.672C175.184 50.267 175.542 49.9803 175.966 49.9411L181.74 49.4169L184.022 44.0751C184.191 43.6827 184.574 43.4292 185 43.4292C185.426 43.4292 185.809 43.6827 185.977 44.0742L188.26 49.4169L194.033 49.9411C194.458 49.9794 194.816 50.267 194.948 50.672C195.079 51.0769 194.958 51.5211 194.637 51.8011L190.273 55.6271L191.56 61.2946C191.654 61.7114 191.493 62.1423 191.147 62.3922C190.802 62.6422 190.342 62.6614 189.978 62.4431L185 59.468L180.021 62.4447C179.853 62.5447 179.666 62.5956 179.476 62.5956ZM181.696 49.5202L181.695 49.5219L181.696 49.5202ZM188.302 49.5178L188.303 49.5194L188.302 49.5178Z" fill="#FFBD00"/>
</g>
<g clip-path="url(#clip4_1_405)">
<path d="M211.143 62.5956C210.924 62.5956 210.706 62.5273 210.521 62.393C210.175 62.1423 210.013 61.7114 210.107 61.2956L211.394 55.6278L207.03 51.8011C206.71 51.5211 206.587 51.0777 206.719 50.672C206.85 50.267 207.209 49.9803 207.633 49.9411L213.406 49.4169L215.689 44.0751C215.857 43.6827 216.241 43.4292 216.666 43.4292C217.092 43.4292 217.476 43.6827 217.644 44.0742L219.927 49.4169L225.699 49.9411C226.124 49.9794 226.483 50.267 226.614 50.672C226.746 51.0769 226.624 51.5211 226.303 51.8011L221.94 55.6271L223.227 61.2946C223.321 61.7114 223.159 62.1423 222.813 62.3922C222.468 62.6422 222.008 62.6614 221.645 62.4431L216.666 59.468L211.688 62.4447C211.52 62.5447 211.332 62.5956 211.143 62.5956ZM213.362 49.5202L213.361 49.5219L213.362 49.5202ZM219.969 49.5178L219.97 49.5194L219.969 49.5178Z" fill="#FFBD00"/>
</g>
<defs>
<filter id="filter0_dd_1_405" x="0" y="0" width="306" height="206" filterUnits="userSpaceOnUse" color-interpolation-filters="sRGB">
<feFlood flood-opacity="0" result="BackgroundImageFix"/>
<feColorMatrix in="SourceAlpha" type="matrix" values="0 0 0 0 0 0 0 0 0 0 0 0 0 0 0 0 0 0 127 0" result="hardAlpha"/>
<feMorphology radius="3" operator="dilate" in="SourceAlpha" result="effect1_dropShadow_1_405"/>
<feOffset dx="-5" dy="-5"/>
<feGaussianBlur stdDeviation="2.5"/>
<feColorMatrix type="matrix" values="0 0 0 0 0.879167 0 0 0 0 0.879167 0 0 0 0 0.879167 0 0 0 0.2 0"/>
<feBlend mode="normal" in2="BackgroundImageFix" result="effect1_dropShadow_1_405"/>
<feColorMatrix in="SourceAlpha" type="matrix" values="0 0 0 0 0 0 0 0 0 0 0 0 0 0 0 0 0 0 127 0" result="hardAlpha"/>
<feMorphology radius="3" operator="dilate" in="SourceAlpha" result="effect2_dropShadow_1_405"/>
<feOffset dx="5" dy="5"/>
<feGaussianBlur stdDeviation="2.5"/>
<feColorMatrix type="matrix" values="0 0 0 0 0.878431 0 0 0 0 0.878431 0 0 0 0 0.878431 0 0 0 0.2 0"/>
<feBlend mode="normal" in2="effect1_dropShadow_1_405" result="effect2_dropShadow_1_405"/>
<feBlend mode="normal" in="SourceGraphic" in2="effect2_dropShadow_1_405" result="shape"/>
</filter>
<clipPath id="clip0_1_405">
<rect width="20" height="20" fill="white" transform="translate(80 43)"/>
</clipPath>
<clipPath id="clip1_1_405">
<rect width="20" height="20" fill="white" transform="translate(111.667 43)"/>
</clipPath>
<clipPath id="clip2_1_405">
<rect width="20" height="20" fill="white" transform="translate(143.333 43)"/>
</clipPath>
<clipPath id="clip3_1_405">
<rect width="20" height="20" fill="white" transform="translate(175 43)"/>
</clipPath>
<clipPath id="clip4_1_405">
<rect width="20" height="20" fill="white" transform="translate(206.667 43)"/>
</clipPath>
</defs>
</svg>
