<svg width="306" height="206" viewBox="0 0 306 206" fill="none" xmlns="http://www.w3.org/2000/svg">
<g filter="url(#filter0_dd_1_389)">
<rect x="13" y="13" width="280" height="180" rx="5" fill="white"/>
</g>
<path d="M62.5781 122.016H66.4609V127.57C65.8568 127.763 65.2422 127.909 64.6172 128.008C63.9922 128.107 63.2682 128.156 62.4453 128.156C60.7161 128.156 59.3698 127.643 58.4062 126.617C57.4427 125.586 56.9609 124.143 56.9609 122.289C56.9609 121.102 57.1979 120.062 57.6719 119.172C58.151 118.276 58.8385 117.594 59.7344 117.125C60.6302 116.651 61.6797 116.414 62.8828 116.414C64.1016 116.414 65.237 116.638 66.2891 117.086L65.7734 118.258C64.7422 117.82 63.75 117.602 62.7969 117.602C61.4062 117.602 60.3203 118.016 59.5391 118.844C58.7578 119.672 58.3672 120.82 58.3672 122.289C58.3672 123.831 58.7422 125 59.4922 125.797C60.2474 126.594 61.3542 126.992 62.8125 126.992C63.6042 126.992 64.3776 126.901 65.1328 126.719V123.203H62.5781V122.016ZM72.9219 119.281C73.3021 119.281 73.6432 119.312 73.9453 119.375L73.7656 120.578C73.4115 120.5 73.099 120.461 72.8281 120.461C72.1354 120.461 71.5417 120.742 71.0469 121.305C70.5573 121.867 70.3125 122.568 70.3125 123.406V128H69.0156V119.438H70.0859L70.2344 121.023H70.2969C70.6146 120.466 70.9974 120.036 71.4453 119.734C71.8932 119.432 72.3854 119.281 72.9219 119.281ZM79.1641 128.156C77.8984 128.156 76.8984 127.771 76.1641 127C75.4349 126.229 75.0703 125.159 75.0703 123.789C75.0703 122.409 75.4089 121.312 76.0859 120.5C76.7682 119.688 77.6823 119.281 78.8281 119.281C79.901 119.281 80.75 119.635 81.375 120.344C82 121.047 82.3125 121.977 82.3125 123.133V123.953H76.4141C76.4401 124.958 76.6927 125.721 77.1719 126.242C77.6562 126.763 78.3359 127.023 79.2109 127.023C80.1328 127.023 81.0443 126.831 81.9453 126.445V127.602C81.487 127.799 81.0521 127.94 80.6406 128.023C80.2344 128.112 79.7422 128.156 79.1641 128.156ZM78.8125 120.367C78.125 120.367 77.5755 120.591 77.1641 121.039C76.7578 121.487 76.5182 122.107 76.4453 122.898H80.9219C80.9219 122.081 80.7396 121.456 80.375 121.023C80.0104 120.586 79.4896 120.367 78.8125 120.367ZM89.7969 128L89.5391 126.781H89.4766C89.0495 127.318 88.6224 127.682 88.1953 127.875C87.7734 128.062 87.2448 128.156 86.6094 128.156C85.7604 128.156 85.0938 127.938 84.6094 127.5C84.1302 127.062 83.8906 126.44 83.8906 125.633C83.8906 123.904 85.2734 122.997 88.0391 122.914L89.4922 122.867V122.336C89.4922 121.664 89.3464 121.169 89.0547 120.852C88.7682 120.529 88.3073 120.367 87.6719 120.367C86.9583 120.367 86.151 120.586 85.25 121.023L84.8516 120.031C85.2734 119.802 85.7344 119.622 86.2344 119.492C86.7396 119.362 87.2448 119.297 87.75 119.297C88.7708 119.297 89.526 119.523 90.0156 119.977C90.5104 120.43 90.7578 121.156 90.7578 122.156V128H89.7969ZM86.8672 127.086C87.6745 127.086 88.3073 126.865 88.7656 126.422C89.2292 125.979 89.4609 125.359 89.4609 124.562V123.789L88.1641 123.844C87.1328 123.88 86.388 124.042 85.9297 124.328C85.4766 124.609 85.25 125.049 85.25 125.648C85.25 126.117 85.3906 126.474 85.6719 126.719C85.9583 126.964 86.3568 127.086 86.8672 127.086ZM96.2031 127.086C96.4323 127.086 96.6536 127.07 96.8672 127.039C97.0807 127.003 97.25 126.966 97.375 126.93V127.922C97.2344 127.99 97.026 128.044 96.75 128.086C96.4792 128.133 96.2344 128.156 96.0156 128.156C94.3594 128.156 93.5312 127.284 93.5312 125.539V120.445H92.3047V119.82L93.5312 119.281L94.0781 117.453H94.8281V119.438H97.3125V120.445H94.8281V125.484C94.8281 126 94.9505 126.396 95.1953 126.672C95.4401 126.948 95.776 127.086 96.2031 127.086ZM108.773 125.664C108.773 126.461 108.477 127.076 107.883 127.508C107.289 127.94 106.456 128.156 105.383 128.156C104.247 128.156 103.362 127.977 102.727 127.617V126.414C103.138 126.622 103.578 126.786 104.047 126.906C104.521 127.026 104.977 127.086 105.414 127.086C106.091 127.086 106.612 126.979 106.977 126.766C107.341 126.547 107.523 126.216 107.523 125.773C107.523 125.44 107.378 125.156 107.086 124.922C106.799 124.682 106.237 124.401 105.398 124.078C104.602 123.781 104.034 123.523 103.695 123.305C103.362 123.081 103.112 122.828 102.945 122.547C102.784 122.266 102.703 121.93 102.703 121.539C102.703 120.841 102.987 120.292 103.555 119.891C104.122 119.484 104.901 119.281 105.891 119.281C106.812 119.281 107.714 119.469 108.594 119.844L108.133 120.898C107.273 120.544 106.495 120.367 105.797 120.367C105.182 120.367 104.719 120.464 104.406 120.656C104.094 120.849 103.938 121.115 103.938 121.453C103.938 121.682 103.995 121.878 104.109 122.039C104.229 122.201 104.419 122.354 104.68 122.5C104.94 122.646 105.44 122.857 106.18 123.133C107.195 123.503 107.88 123.875 108.234 124.25C108.594 124.625 108.773 125.096 108.773 125.664ZM114.508 128.156C113.242 128.156 112.242 127.771 111.508 127C110.779 126.229 110.414 125.159 110.414 123.789C110.414 122.409 110.753 121.312 111.43 120.5C112.112 119.688 113.026 119.281 114.172 119.281C115.245 119.281 116.094 119.635 116.719 120.344C117.344 121.047 117.656 121.977 117.656 123.133V123.953H111.758C111.784 124.958 112.036 125.721 112.516 126.242C113 126.763 113.68 127.023 114.555 127.023C115.477 127.023 116.388 126.831 117.289 126.445V127.602C116.831 127.799 116.396 127.94 115.984 128.023C115.578 128.112 115.086 128.156 114.508 128.156ZM114.156 120.367C113.469 120.367 112.919 120.591 112.508 121.039C112.102 121.487 111.862 122.107 111.789 122.898H116.266C116.266 122.081 116.083 121.456 115.719 121.023C115.354 120.586 114.833 120.367 114.156 120.367ZM123.781 119.281C124.161 119.281 124.503 119.312 124.805 119.375L124.625 120.578C124.271 120.5 123.958 120.461 123.688 120.461C122.995 120.461 122.401 120.742 121.906 121.305C121.417 121.867 121.172 122.568 121.172 123.406V128H119.875V119.438H120.945L121.094 121.023H121.156C121.474 120.466 121.857 120.036 122.305 119.734C122.753 119.432 123.245 119.281 123.781 119.281ZM128.281 128L125.031 119.438H126.422L128.266 124.516C128.682 125.703 128.927 126.474 129 126.828H129.062C129.12 126.552 129.299 125.982 129.602 125.117C129.909 124.247 130.594 122.354 131.656 119.438H133.047L129.797 128H128.281ZM135.719 128H134.422V119.438H135.719V128ZM134.312 117.117C134.312 116.82 134.385 116.604 134.531 116.469C134.677 116.328 134.859 116.258 135.078 116.258C135.286 116.258 135.466 116.328 135.617 116.469C135.768 116.609 135.844 116.826 135.844 117.117C135.844 117.409 135.768 117.628 135.617 117.773C135.466 117.914 135.286 117.984 135.078 117.984C134.859 117.984 134.677 117.914 134.531 117.773C134.385 117.628 134.312 117.409 134.312 117.117ZM141.891 128.156C140.651 128.156 139.69 127.776 139.008 127.016C138.331 126.25 137.992 125.169 137.992 123.773C137.992 122.341 138.336 121.234 139.023 120.453C139.716 119.672 140.701 119.281 141.977 119.281C142.388 119.281 142.799 119.326 143.211 119.414C143.622 119.503 143.945 119.607 144.18 119.727L143.781 120.828C143.495 120.714 143.182 120.62 142.844 120.547C142.505 120.469 142.206 120.43 141.945 120.43C140.206 120.43 139.336 121.539 139.336 123.758C139.336 124.81 139.547 125.617 139.969 126.18C140.396 126.742 141.026 127.023 141.859 127.023C142.573 127.023 143.305 126.87 144.055 126.562V127.711C143.482 128.008 142.76 128.156 141.891 128.156ZM149.711 128.156C148.445 128.156 147.445 127.771 146.711 127C145.982 126.229 145.617 125.159 145.617 123.789C145.617 122.409 145.956 121.312 146.633 120.5C147.315 119.688 148.229 119.281 149.375 119.281C150.448 119.281 151.297 119.635 151.922 120.344C152.547 121.047 152.859 121.977 152.859 123.133V123.953H146.961C146.987 124.958 147.24 125.721 147.719 126.242C148.203 126.763 148.883 127.023 149.758 127.023C150.68 127.023 151.591 126.831 152.492 126.445V127.602C152.034 127.799 151.599 127.94 151.188 128.023C150.781 128.112 150.289 128.156 149.711 128.156ZM149.359 120.367C148.672 120.367 148.122 120.591 147.711 121.039C147.305 121.487 147.065 122.107 146.992 122.898H151.469C151.469 122.081 151.286 121.456 150.922 121.023C150.557 120.586 150.036 120.367 149.359 120.367ZM154.891 127.172C154.891 126.823 154.969 126.56 155.125 126.383C155.286 126.201 155.516 126.109 155.812 126.109C156.115 126.109 156.349 126.201 156.516 126.383C156.688 126.56 156.773 126.823 156.773 127.172C156.773 127.51 156.688 127.771 156.516 127.953C156.344 128.135 156.109 128.227 155.812 128.227C155.547 128.227 155.326 128.146 155.148 127.984C154.977 127.818 154.891 127.547 154.891 127.172ZM170.062 128H163.695V116.578H170.062V117.758H165.023V121.438H169.758V122.609H165.023V126.812H170.062V128ZM177.672 128L177.414 126.781H177.352C176.924 127.318 176.497 127.682 176.07 127.875C175.648 128.062 175.12 128.156 174.484 128.156C173.635 128.156 172.969 127.938 172.484 127.5C172.005 127.062 171.766 126.44 171.766 125.633C171.766 123.904 173.148 122.997 175.914 122.914L177.367 122.867V122.336C177.367 121.664 177.221 121.169 176.93 120.852C176.643 120.529 176.182 120.367 175.547 120.367C174.833 120.367 174.026 120.586 173.125 121.023L172.727 120.031C173.148 119.802 173.609 119.622 174.109 119.492C174.615 119.362 175.12 119.297 175.625 119.297C176.646 119.297 177.401 119.523 177.891 119.977C178.385 120.43 178.633 121.156 178.633 122.156V128H177.672ZM174.742 127.086C175.549 127.086 176.182 126.865 176.641 126.422C177.104 125.979 177.336 125.359 177.336 124.562V123.789L176.039 123.844C175.008 123.88 174.263 124.042 173.805 124.328C173.352 124.609 173.125 125.049 173.125 125.648C173.125 126.117 173.266 126.474 173.547 126.719C173.833 126.964 174.232 127.086 174.742 127.086ZM186.836 125.664C186.836 126.461 186.539 127.076 185.945 127.508C185.352 127.94 184.518 128.156 183.445 128.156C182.31 128.156 181.424 127.977 180.789 127.617V126.414C181.201 126.622 181.641 126.786 182.109 126.906C182.583 127.026 183.039 127.086 183.477 127.086C184.154 127.086 184.674 126.979 185.039 126.766C185.404 126.547 185.586 126.216 185.586 125.773C185.586 125.44 185.44 125.156 185.148 124.922C184.862 124.682 184.299 124.401 183.461 124.078C182.664 123.781 182.096 123.523 181.758 123.305C181.424 123.081 181.174 122.828 181.008 122.547C180.846 122.266 180.766 121.93 180.766 121.539C180.766 120.841 181.049 120.292 181.617 119.891C182.185 119.484 182.964 119.281 183.953 119.281C184.875 119.281 185.776 119.469 186.656 119.844L186.195 120.898C185.336 120.544 184.557 120.367 183.859 120.367C183.245 120.367 182.781 120.464 182.469 120.656C182.156 120.849 182 121.115 182 121.453C182 121.682 182.057 121.878 182.172 122.039C182.292 122.201 182.482 122.354 182.742 122.5C183.003 122.646 183.503 122.857 184.242 123.133C185.258 123.503 185.943 123.875 186.297 124.25C186.656 124.625 186.836 125.096 186.836 125.664ZM187.594 119.438H188.984L190.859 124.32C191.271 125.435 191.526 126.24 191.625 126.734H191.688C191.755 126.469 191.896 126.016 192.109 125.375C192.328 124.729 193.036 122.75 194.234 119.438H195.625L191.945 129.188C191.581 130.151 191.154 130.833 190.664 131.234C190.18 131.641 189.583 131.844 188.875 131.844C188.479 131.844 188.089 131.799 187.703 131.711V130.672C187.99 130.734 188.31 130.766 188.664 130.766C189.555 130.766 190.19 130.266 190.57 129.266L191.047 128.047L187.594 119.438ZM203.938 127.086C204.167 127.086 204.388 127.07 204.602 127.039C204.815 127.003 204.984 126.966 205.109 126.93V127.922C204.969 127.99 204.76 128.044 204.484 128.086C204.214 128.133 203.969 128.156 203.75 128.156C202.094 128.156 201.266 127.284 201.266 125.539V120.445H200.039V119.82L201.266 119.281L201.812 117.453H202.562V119.438H205.047V120.445H202.562V125.484C202.562 126 202.685 126.396 202.93 126.672C203.174 126.948 203.51 127.086 203.938 127.086ZM214.219 123.711C214.219 125.107 213.867 126.198 213.164 126.984C212.461 127.766 211.49 128.156 210.25 128.156C209.484 128.156 208.805 127.977 208.211 127.617C207.617 127.258 207.159 126.742 206.836 126.07C206.513 125.398 206.352 124.612 206.352 123.711C206.352 122.315 206.701 121.229 207.398 120.453C208.096 119.672 209.065 119.281 210.305 119.281C211.503 119.281 212.453 119.68 213.156 120.477C213.865 121.273 214.219 122.352 214.219 123.711ZM207.695 123.711C207.695 124.805 207.914 125.638 208.352 126.211C208.789 126.784 209.432 127.07 210.281 127.07C211.13 127.07 211.773 126.786 212.211 126.219C212.654 125.646 212.875 124.81 212.875 123.711C212.875 122.622 212.654 121.797 212.211 121.234C211.773 120.667 211.125 120.383 210.266 120.383C209.417 120.383 208.776 120.661 208.344 121.219C207.911 121.776 207.695 122.607 207.695 123.711ZM221.875 119.438V124.992C221.875 125.69 222.034 126.211 222.352 126.555C222.669 126.898 223.167 127.07 223.844 127.07C224.74 127.07 225.393 126.826 225.805 126.336C226.221 125.846 226.43 125.047 226.43 123.938V119.438H227.727V128H226.656L226.469 126.852H226.398C226.133 127.273 225.763 127.596 225.289 127.82C224.82 128.044 224.284 128.156 223.68 128.156C222.638 128.156 221.857 127.909 221.336 127.414C220.82 126.919 220.562 126.128 220.562 125.039V119.438H221.875ZM236.008 125.664C236.008 126.461 235.711 127.076 235.117 127.508C234.523 127.94 233.69 128.156 232.617 128.156C231.482 128.156 230.596 127.977 229.961 127.617V126.414C230.372 126.622 230.812 126.786 231.281 126.906C231.755 127.026 232.211 127.086 232.648 127.086C233.326 127.086 233.846 126.979 234.211 126.766C234.576 126.547 234.758 126.216 234.758 125.773C234.758 125.44 234.612 125.156 234.32 124.922C234.034 124.682 233.471 124.401 232.633 124.078C231.836 123.781 231.268 123.523 230.93 123.305C230.596 123.081 230.346 122.828 230.18 122.547C230.018 122.266 229.938 121.93 229.938 121.539C229.938 120.841 230.221 120.292 230.789 119.891C231.357 119.484 232.135 119.281 233.125 119.281C234.047 119.281 234.948 119.469 235.828 119.844L235.367 120.898C234.508 120.544 233.729 120.367 233.031 120.367C232.417 120.367 231.953 120.464 231.641 120.656C231.328 120.849 231.172 121.115 231.172 121.453C231.172 121.682 231.229 121.878 231.344 122.039C231.464 122.201 231.654 122.354 231.914 122.5C232.174 122.646 232.674 122.857 233.414 123.133C234.43 123.503 235.115 123.875 235.469 124.25C235.828 124.625 236.008 125.096 236.008 125.664ZM241.742 128.156C240.477 128.156 239.477 127.771 238.742 127C238.013 126.229 237.648 125.159 237.648 123.789C237.648 122.409 237.987 121.312 238.664 120.5C239.346 119.688 240.26 119.281 241.406 119.281C242.479 119.281 243.328 119.635 243.953 120.344C244.578 121.047 244.891 121.977 244.891 123.133V123.953H238.992C239.018 124.958 239.271 125.721 239.75 126.242C240.234 126.763 240.914 127.023 241.789 127.023C242.711 127.023 243.622 126.831 244.523 126.445V127.602C244.065 127.799 243.63 127.94 243.219 128.023C242.812 128.112 242.32 128.156 241.742 128.156ZM241.391 120.367C240.703 120.367 240.154 120.591 239.742 121.039C239.336 121.487 239.096 122.107 239.023 122.898H243.5C243.5 122.081 243.318 121.456 242.953 121.023C242.589 120.586 242.068 120.367 241.391 120.367ZM248.281 124.852H247.461L247.062 116.578H248.68L248.281 124.852ZM246.922 127.172C246.922 126.464 247.234 126.109 247.859 126.109C248.161 126.109 248.393 126.201 248.555 126.383C248.721 126.565 248.805 126.828 248.805 127.172C248.805 127.505 248.721 127.766 248.555 127.953C248.388 128.135 248.156 128.227 247.859 128.227C247.589 128.227 247.365 128.146 247.188 127.984C247.01 127.818 246.922 127.547 246.922 127.172Z" fill="#333333"/>
<path d="M103.026 88.9971C103.026 91.5895 102.321 93.5732 100.91 94.9482C99.5065 96.3161 97.4834 97 94.8408 97H90.4902V81.2949H95.3027C97.7448 81.2949 99.6426 81.9717 100.996 83.3252C102.35 84.6787 103.026 86.5693 103.026 88.9971ZM101.093 89.0615C101.093 87.0133 100.577 85.4701 99.5459 84.4316C98.5218 83.3932 96.9964 82.874 94.9697 82.874H92.3164V95.4209H94.54C96.7171 95.4209 98.3535 94.8874 99.4492 93.8203C100.545 92.7461 101.093 91.1598 101.093 89.0615ZM113.511 97L113.156 95.3242H113.07C112.483 96.0618 111.896 96.5632 111.309 96.8281C110.729 97.0859 110.002 97.2148 109.128 97.2148C107.961 97.2148 107.044 96.9141 106.378 96.3125C105.719 95.7109 105.39 94.8551 105.39 93.7451C105.39 91.3675 107.291 90.1214 111.094 90.0068L113.092 89.9424V89.2119C113.092 88.2881 112.891 87.6077 112.49 87.1709C112.096 86.7269 111.463 86.5049 110.589 86.5049C109.608 86.5049 108.498 86.8057 107.259 87.4072L106.711 86.043C107.291 85.7279 107.925 85.4808 108.612 85.3018C109.307 85.1227 110.002 85.0332 110.696 85.0332C112.1 85.0332 113.138 85.3447 113.812 85.9678C114.492 86.5908 114.832 87.5898 114.832 88.9648V97H113.511ZM109.482 95.7432C110.592 95.7432 111.463 95.4388 112.093 94.8301C112.73 94.2214 113.049 93.3691 113.049 92.2734V91.21L111.266 91.2852C109.848 91.3353 108.824 91.5573 108.193 91.9512C107.57 92.3379 107.259 92.943 107.259 93.7666C107.259 94.4111 107.452 94.9017 107.839 95.2383C108.233 95.5749 108.781 95.7432 109.482 95.7432ZM126.573 97V89.3838C126.573 88.4242 126.355 87.708 125.918 87.2354C125.481 86.7627 124.797 86.5264 123.866 86.5264C122.634 86.5264 121.732 86.8594 121.159 87.5254C120.586 88.1914 120.3 89.2907 120.3 90.8232V97H118.517V85.2266H119.967L120.257 86.8379H120.343C120.708 86.2578 121.22 85.8102 121.879 85.4951C122.538 85.1729 123.272 85.0117 124.081 85.0117C125.499 85.0117 126.566 85.3555 127.282 86.043C127.998 86.7233 128.356 87.8154 128.356 89.3193V97H126.573ZM140.087 97V89.3838C140.087 88.4242 139.868 87.708 139.432 87.2354C138.995 86.7627 138.311 86.5264 137.38 86.5264C136.148 86.5264 135.246 86.8594 134.673 87.5254C134.1 88.1914 133.813 89.2907 133.813 90.8232V97H132.03V85.2266H133.48L133.771 86.8379H133.856C134.222 86.2578 134.734 85.8102 135.393 85.4951C136.051 85.1729 136.785 85.0117 137.595 85.0117C139.013 85.0117 140.08 85.3555 140.796 86.043C141.512 86.7233 141.87 87.8154 141.87 89.3193V97H140.087ZM143.675 85.2266H145.587L148.165 91.9404C148.731 93.473 149.082 94.5794 149.218 95.2598H149.304C149.397 94.8945 149.59 94.2715 149.884 93.3906C150.185 92.5026 151.159 89.7812 152.806 85.2266H154.718L149.658 98.6328C149.157 99.9577 148.57 100.896 147.896 101.447C147.23 102.006 146.41 102.285 145.437 102.285C144.892 102.285 144.355 102.224 143.825 102.103V100.674C144.219 100.76 144.66 100.803 145.146 100.803C146.371 100.803 147.245 100.115 147.768 98.7402L148.423 97.0645L143.675 85.2266ZM169.563 97L164.235 83.0781H164.149C164.25 84.181 164.3 85.4915 164.3 87.0098V97H162.613V81.2949H165.363L170.337 94.25H170.423L175.439 81.2949H178.168V97H176.342V86.8809C176.342 85.7207 176.392 84.4603 176.492 83.0996H176.406L171.035 97H169.563ZM192.38 91.1025C192.38 93.0218 191.896 94.5221 190.93 95.6035C189.963 96.6777 188.627 97.2148 186.923 97.2148C185.87 97.2148 184.936 96.9678 184.119 96.4736C183.303 95.9795 182.673 95.2705 182.229 94.3467C181.785 93.4229 181.562 92.3415 181.562 91.1025C181.562 89.1833 182.042 87.6901 183.002 86.623C183.962 85.5488 185.294 85.0117 186.998 85.0117C188.645 85.0117 189.952 85.5596 190.919 86.6553C191.893 87.751 192.38 89.2334 192.38 91.1025ZM183.41 91.1025C183.41 92.6064 183.711 93.7523 184.312 94.54C184.914 95.3278 185.799 95.7217 186.966 95.7217C188.133 95.7217 189.018 95.3314 189.619 94.5508C190.228 93.763 190.532 92.6136 190.532 91.1025C190.532 89.6058 190.228 88.4707 189.619 87.6973C189.018 86.9167 188.126 86.5264 186.944 86.5264C185.777 86.5264 184.896 86.9095 184.302 87.6758C183.707 88.4421 183.41 89.5843 183.41 91.1025ZM200.222 97.2148C198.517 97.2148 197.196 96.6921 196.258 95.6465C195.327 94.5938 194.861 93.1077 194.861 91.1885C194.861 89.2191 195.334 87.6973 196.279 86.623C197.232 85.5488 198.585 85.0117 200.34 85.0117C200.906 85.0117 201.471 85.0726 202.037 85.1943C202.603 85.3161 203.047 85.4593 203.369 85.624L202.821 87.1387C202.427 86.9811 201.998 86.8522 201.532 86.752C201.067 86.6445 200.655 86.5908 200.297 86.5908C197.905 86.5908 196.709 88.1162 196.709 91.167C196.709 92.6136 196.999 93.7236 197.579 94.4971C198.166 95.2705 199.033 95.6572 200.179 95.6572C201.16 95.6572 202.166 95.446 203.197 95.0234V96.6025C202.41 97.0107 201.418 97.2148 200.222 97.2148ZM207.763 90.9736C208.071 90.5368 208.54 89.9639 209.17 89.2549L212.973 85.2266H215.089L210.319 90.2432L215.422 97H213.263L209.105 91.4355L207.763 92.5957V97H206.001V80.2852H207.763V89.1475C207.763 89.5413 207.734 90.1501 207.677 90.9736H207.763Z" fill="#050F19"/>
<g clip-path="url(#clip0_1_389)">
<path d="M84.4764 62.5956C84.2573 62.5956 84.0397 62.5273 83.854 62.393C83.5081 62.1423 83.3465 61.7114 83.4406 61.2956L84.7273 55.6278L80.3638 51.8011C80.043 51.5211 79.9205 51.0777 80.0522 50.672C80.1839 50.267 80.5421 49.9803 80.9664 49.9411L86.7398 49.4169L89.0224 44.0751C89.1907 43.6827 89.574 43.4292 89.9999 43.4292C90.4258 43.4292 90.8091 43.6827 90.9774 44.0742L93.2601 49.4169L99.0326 49.9411C99.4577 49.9794 99.816 50.267 99.9477 50.672C100.079 51.0769 99.9576 51.5211 99.6369 51.8011L95.2733 55.6271L96.56 61.2946C96.6543 61.7114 96.4926 62.1423 96.1468 62.3922C95.8018 62.6422 95.3417 62.6614 94.9784 62.4431L89.9999 59.468L85.0215 62.4447C84.8532 62.5447 84.6656 62.5956 84.4764 62.5956ZM86.6957 49.5202L86.6948 49.5219L86.6957 49.5202ZM93.3025 49.5178L93.3034 49.5194L93.3025 49.5178Z" fill="#FFBD00"/>
</g>
<g clip-path="url(#clip1_1_389)">
<path d="M116.143 62.5956C115.924 62.5956 115.706 62.5273 115.521 62.393C115.175 62.1423 115.013 61.7114 115.107 61.2956L116.394 55.6278L112.03 51.8011C111.71 51.5211 111.587 51.0777 111.719 50.672C111.85 50.267 112.209 49.9803 112.633 49.9411L118.406 49.4169L120.689 44.0751C120.857 43.6827 121.241 43.4292 121.666 43.4292C122.092 43.4292 122.476 43.6827 122.644 44.0742L124.927 49.4169L130.699 49.9411C131.124 49.9794 131.483 50.267 131.614 50.672C131.746 51.0769 131.624 51.5211 131.303 51.8011L126.94 55.6271L128.227 61.2946C128.321 61.7114 128.159 62.1423 127.813 62.3922C127.468 62.6422 127.008 62.6614 126.645 62.4431L121.666 59.468L116.688 62.4447C116.52 62.5447 116.332 62.5956 116.143 62.5956ZM118.362 49.5202L118.361 49.5219L118.362 49.5202ZM124.969 49.5178L124.97 49.5194L124.969 49.5178Z" fill="#FFBD00"/>
</g>
<g clip-path="url(#clip2_1_389)">
<path d="M147.81 62.5956C147.591 62.5956 147.373 62.5273 147.187 62.393C146.842 62.1423 146.68 61.7114 146.774 61.2956L148.061 55.6278L143.697 51.8011C143.377 51.5211 143.254 51.0777 143.386 50.672C143.517 50.267 143.876 49.9803 144.3 49.9411L150.073 49.4169L152.356 44.0751C152.524 43.6827 152.908 43.4292 153.333 43.4292C153.759 43.4292 154.143 43.6827 154.311 44.0742L156.594 49.4169L162.366 49.9411C162.791 49.9794 163.149 50.267 163.281 50.672C163.413 51.0769 163.291 51.5211 162.97 51.8011L158.607 55.6271L159.893 61.2946C159.988 61.7114 159.826 62.1423 159.48 62.3922C159.135 62.6422 158.675 62.6614 158.312 62.4431L153.333 59.468L148.355 62.4447C148.187 62.5447 147.999 62.5956 147.81 62.5956ZM150.029 49.5202L150.028 49.5219L150.029 49.5202ZM156.636 49.5178L156.637 49.5194L156.636 49.5178Z" fill="#FFBD00"/>
</g>
<g clip-path="url(#clip3_1_389)">
<path d="M179.476 62.5956C179.257 62.5956 179.04 62.5273 178.854 62.393C178.508 62.1423 178.346 61.7114 178.441 61.2956L179.727 55.6278L175.364 51.8011C175.043 51.5211 174.92 51.0777 175.052 50.672C175.184 50.267 175.542 49.9803 175.966 49.9411L181.74 49.4169L184.022 44.0751C184.191 43.6827 184.574 43.4292 185 43.4292C185.426 43.4292 185.809 43.6827 185.977 44.0742L188.26 49.4169L194.033 49.9411C194.458 49.9794 194.816 50.267 194.948 50.672C195.079 51.0769 194.958 51.5211 194.637 51.8011L190.273 55.6271L191.56 61.2946C191.654 61.7114 191.493 62.1423 191.147 62.3922C190.802 62.6422 190.342 62.6614 189.978 62.4431L185 59.468L180.021 62.4447C179.853 62.5447 179.666 62.5956 179.476 62.5956ZM181.696 49.5202L181.695 49.5219L181.696 49.5202ZM188.302 49.5178L188.303 49.5194L188.302 49.5178Z" fill="#FFBD00"/>
</g>
<g clip-path="url(#clip4_1_389)">
<path d="M211.143 62.5956C210.924 62.5956 210.706 62.5273 210.521 62.393C210.175 62.1423 210.013 61.7114 210.107 61.2956L211.394 55.6278L207.03 51.8011C206.71 51.5211 206.587 51.0777 206.719 50.672C206.85 50.267 207.209 49.9803 207.633 49.9411L213.406 49.4169L215.689 44.0751C215.857 43.6827 216.241 43.4292 216.666 43.4292C217.092 43.4292 217.476 43.6827 217.644 44.0742L219.927 49.4169L225.699 49.9411C226.124 49.9794 226.483 50.267 226.614 50.672C226.746 51.0769 226.624 51.5211 226.303 51.8011L221.94 55.6271L223.227 61.2946C223.321 61.7114 223.159 62.1423 222.813 62.3922C222.468 62.6422 222.008 62.6614 221.645 62.4431L216.666 59.468L211.688 62.4447C211.52 62.5447 211.332 62.5956 211.143 62.5956ZM213.362 49.5202L213.361 49.5219L213.362 49.5202ZM219.969 49.5178L219.97 49.5194L219.969 49.5178Z" fill="#FFBD00"/>
</g>
<defs>
<filter id="filter0_dd_1_389" x="0" y="0" width="306" height="206" filterUnits="userSpaceOnUse" color-interpolation-filters="sRGB">
<feFlood flood-opacity="0" result="BackgroundImageFix"/>
<feColorMatrix in="SourceAlpha" type="matrix" values="0 0 0 0 0 0 0 0 0 0 0 0 0 0 0 0 0 0 127 0" result="hardAlpha"/>
<feMorphology radius="3" operator="dilate" in="SourceAlpha" result="effect1_dropShadow_1_389"/>
<feOffset dx="-5" dy="-5"/>
<feGaussianBlur stdDeviation="2.5"/>
<feColorMatrix type="matrix" values="0 0 0 0 0.879167 0 0 0 0 0.879167 0 0 0 0 0.879167 0 0 0 0.2 0"/>
<feBlend mode="normal" in2="BackgroundImageFix" result="effect1_dropShadow_1_389"/>
<feColorMatrix in="SourceAlpha" type="matrix" values="0 0 0 0 0 0 0 0 0 0 0 0 0 0 0 0 0 0 127 0" result="hardAlpha"/>
<feMorphology radius="3" operator="dilate" in="SourceAlpha" result="effect2_dropShadow_1_389"/>
<feOffset dx="5" dy="5"/>
<feGaussianBlur stdDeviation="2.5"/>
<feColorMatrix type="matrix" values="0 0 0 0 0.878431 0 0 0 0 0.878431 0 0 0 0 0.878431 0 0 0 0.2 0"/>
<feBlend mode="normal" in2="effect1_dropShadow_1_389" result="effect2_dropShadow_1_389"/>
<feBlend mode="normal" in="SourceGraphic" in2="effect2_dropShadow_1_389" result="shape"/>
</filter>
<clipPath id="clip0_1_389">
<rect width="20" height="20" fill="white" transform="translate(80 43)"/>
</clipPath>
<clipPath id="clip1_1_389">
<rect width="20" height="20" fill="white" transform="translate(111.667 43)"/>
</clipPath>
<clipPath id="clip2_1_389">
<rect width="20" height="20" fill="white" transform="translate(143.333 43)"/>
</clipPath>
<clipPath id="clip3_1_389">
<rect width="20" height="20" fill="white" transform="translate(175 43)"/>
</clipPath>
<clipPath id="clip4_1_389">
<rect width="20" height="20" fill="white" transform="translate(206.667 43)"/>
</clipPath>
</defs>
</svg>
