<svg width="306" height="206" viewBox="0 0 306 206" fill="none" xmlns="http://www.w3.org/2000/svg">
<g filter="url(#filter0_dd_1_357)">
<rect x="13" y="13" width="280" height="180" rx="5" fill="white"/>
</g>
<path d="M62.8359 124.961C62.8359 125.966 62.4714 126.75 61.7422 127.312C61.013 127.875 60.0234 128.156 58.7734 128.156C57.4193 128.156 56.3776 127.982 55.6484 127.633V126.352C56.1172 126.549 56.6276 126.706 57.1797 126.82C57.7318 126.935 58.2786 126.992 58.8203 126.992C59.7057 126.992 60.3724 126.826 60.8203 126.492C61.2682 126.154 61.4922 125.685 61.4922 125.086C61.4922 124.69 61.4115 124.367 61.25 124.117C61.0938 123.862 60.8281 123.628 60.4531 123.414C60.0833 123.201 59.5182 122.958 58.7578 122.688C57.6953 122.307 56.9349 121.857 56.4766 121.336C56.0234 120.815 55.7969 120.135 55.7969 119.297C55.7969 118.417 56.1276 117.716 56.7891 117.195C57.4505 116.674 58.3255 116.414 59.4141 116.414C60.5495 116.414 61.5938 116.622 62.5469 117.039L62.1328 118.195C61.1901 117.799 60.2734 117.602 59.3828 117.602C58.6797 117.602 58.1302 117.753 57.7344 118.055C57.3385 118.357 57.1406 118.776 57.1406 119.312C57.1406 119.708 57.2135 120.034 57.3594 120.289C57.5052 120.539 57.75 120.771 58.0938 120.984C58.4427 121.193 58.974 121.424 59.6875 121.68C60.8854 122.107 61.7083 122.565 62.1562 123.055C62.6094 123.544 62.8359 124.18 62.8359 124.961ZM72.3672 123.711C72.3672 125.107 72.0156 126.198 71.3125 126.984C70.6094 127.766 69.638 128.156 68.3984 128.156C67.6328 128.156 66.9531 127.977 66.3594 127.617C65.7656 127.258 65.3073 126.742 64.9844 126.07C64.6615 125.398 64.5 124.612 64.5 123.711C64.5 122.315 64.849 121.229 65.5469 120.453C66.2448 119.672 67.2135 119.281 68.4531 119.281C69.651 119.281 70.6016 119.68 71.3047 120.477C72.013 121.273 72.3672 122.352 72.3672 123.711ZM65.8438 123.711C65.8438 124.805 66.0625 125.638 66.5 126.211C66.9375 126.784 67.5807 127.07 68.4297 127.07C69.2786 127.07 69.9219 126.786 70.3594 126.219C70.8021 125.646 71.0234 124.81 71.0234 123.711C71.0234 122.622 70.8021 121.797 70.3594 121.234C69.9219 120.667 69.2734 120.383 68.4141 120.383C67.5651 120.383 66.9245 120.661 66.4922 121.219C66.0599 121.776 65.8438 122.607 65.8438 123.711ZM82.4219 128.156C81.1562 128.156 80.1562 127.771 79.4219 127C78.6927 126.229 78.3281 125.159 78.3281 123.789C78.3281 122.409 78.6667 121.312 79.3438 120.5C80.026 119.688 80.9401 119.281 82.0859 119.281C83.1589 119.281 84.0078 119.635 84.6328 120.344C85.2578 121.047 85.5703 121.977 85.5703 123.133V123.953H79.6719C79.6979 124.958 79.9505 125.721 80.4297 126.242C80.9141 126.763 81.5938 127.023 82.4688 127.023C83.3906 127.023 84.3021 126.831 85.2031 126.445V127.602C84.7448 127.799 84.3099 127.94 83.8984 128.023C83.4922 128.112 83 128.156 82.4219 128.156ZM82.0703 120.367C81.3828 120.367 80.8333 120.591 80.4219 121.039C80.0156 121.487 79.776 122.107 79.7031 122.898H84.1797C84.1797 122.081 83.9974 121.456 83.6328 121.023C83.2682 120.586 82.7474 120.367 82.0703 120.367ZM93.0547 128L92.7969 126.781H92.7344C92.3073 127.318 91.8802 127.682 91.4531 127.875C91.0312 128.062 90.5026 128.156 89.8672 128.156C89.0182 128.156 88.3516 127.938 87.8672 127.5C87.388 127.062 87.1484 126.44 87.1484 125.633C87.1484 123.904 88.5312 122.997 91.2969 122.914L92.75 122.867V122.336C92.75 121.664 92.6042 121.169 92.3125 120.852C92.026 120.529 91.5651 120.367 90.9297 120.367C90.2161 120.367 89.4089 120.586 88.5078 121.023L88.1094 120.031C88.5312 119.802 88.9922 119.622 89.4922 119.492C89.9974 119.362 90.5026 119.297 91.0078 119.297C92.0286 119.297 92.7839 119.523 93.2734 119.977C93.7682 120.43 94.0156 121.156 94.0156 122.156V128H93.0547ZM90.125 127.086C90.9323 127.086 91.5651 126.865 92.0234 126.422C92.487 125.979 92.7188 125.359 92.7188 124.562V123.789L91.4219 123.844C90.3906 123.88 89.6458 124.042 89.1875 124.328C88.7344 124.609 88.5078 125.049 88.5078 125.648C88.5078 126.117 88.6484 126.474 88.9297 126.719C89.2161 126.964 89.6146 127.086 90.125 127.086ZM102.219 125.664C102.219 126.461 101.922 127.076 101.328 127.508C100.734 127.94 99.901 128.156 98.8281 128.156C97.6927 128.156 96.8073 127.977 96.1719 127.617V126.414C96.5833 126.622 97.0234 126.786 97.4922 126.906C97.9661 127.026 98.4219 127.086 98.8594 127.086C99.5365 127.086 100.057 126.979 100.422 126.766C100.786 126.547 100.969 126.216 100.969 125.773C100.969 125.44 100.823 125.156 100.531 124.922C100.245 124.682 99.6823 124.401 98.8438 124.078C98.0469 123.781 97.4792 123.523 97.1406 123.305C96.8073 123.081 96.5573 122.828 96.3906 122.547C96.2292 122.266 96.1484 121.93 96.1484 121.539C96.1484 120.841 96.4323 120.292 97 119.891C97.5677 119.484 98.3464 119.281 99.3359 119.281C100.258 119.281 101.159 119.469 102.039 119.844L101.578 120.898C100.719 120.544 99.9401 120.367 99.2422 120.367C98.6276 120.367 98.1641 120.464 97.8516 120.656C97.5391 120.849 97.3828 121.115 97.3828 121.453C97.3828 121.682 97.4401 121.878 97.5547 122.039C97.6745 122.201 97.8646 122.354 98.125 122.5C98.3854 122.646 98.8854 122.857 99.625 123.133C100.641 123.503 101.326 123.875 101.68 124.25C102.039 124.625 102.219 125.096 102.219 125.664ZM102.977 119.438H104.367L106.242 124.32C106.654 125.435 106.909 126.24 107.008 126.734H107.07C107.138 126.469 107.279 126.016 107.492 125.375C107.711 124.729 108.419 122.75 109.617 119.438H111.008L107.328 129.188C106.964 130.151 106.536 130.833 106.047 131.234C105.562 131.641 104.966 131.844 104.258 131.844C103.862 131.844 103.471 131.799 103.086 131.711V130.672C103.372 130.734 103.693 130.766 104.047 130.766C104.938 130.766 105.573 130.266 105.953 129.266L106.43 128.047L102.977 119.438ZM121.82 128L121.562 126.781H121.5C121.073 127.318 120.646 127.682 120.219 127.875C119.797 128.062 119.268 128.156 118.633 128.156C117.784 128.156 117.117 127.938 116.633 127.5C116.154 127.062 115.914 126.44 115.914 125.633C115.914 123.904 117.297 122.997 120.062 122.914L121.516 122.867V122.336C121.516 121.664 121.37 121.169 121.078 120.852C120.792 120.529 120.331 120.367 119.695 120.367C118.982 120.367 118.174 120.586 117.273 121.023L116.875 120.031C117.297 119.802 117.758 119.622 118.258 119.492C118.763 119.362 119.268 119.297 119.773 119.297C120.794 119.297 121.549 119.523 122.039 119.977C122.534 120.43 122.781 121.156 122.781 122.156V128H121.82ZM118.891 127.086C119.698 127.086 120.331 126.865 120.789 126.422C121.253 125.979 121.484 125.359 121.484 124.562V123.789L120.188 123.844C119.156 123.88 118.411 124.042 117.953 124.328C117.5 124.609 117.273 125.049 117.273 125.648C117.273 126.117 117.414 126.474 117.695 126.719C117.982 126.964 118.38 127.086 118.891 127.086ZM131.32 128V122.461C131.32 121.763 131.161 121.242 130.844 120.898C130.526 120.555 130.029 120.383 129.352 120.383C128.456 120.383 127.799 120.625 127.383 121.109C126.966 121.594 126.758 122.393 126.758 123.508V128H125.461V119.438H126.516L126.727 120.609H126.789C127.055 120.188 127.427 119.862 127.906 119.633C128.385 119.398 128.919 119.281 129.508 119.281C130.539 119.281 131.315 119.531 131.836 120.031C132.357 120.526 132.617 121.32 132.617 122.414V128H131.32ZM141.117 126.852H141.047C140.448 127.721 139.552 128.156 138.359 128.156C137.24 128.156 136.367 127.773 135.742 127.008C135.122 126.242 134.812 125.154 134.812 123.742C134.812 122.331 135.125 121.234 135.75 120.453C136.375 119.672 137.245 119.281 138.359 119.281C139.521 119.281 140.411 119.703 141.031 120.547H141.133L141.078 119.93L141.047 119.328V115.844H142.344V128H141.289L141.117 126.852ZM138.523 127.07C139.409 127.07 140.049 126.831 140.445 126.352C140.846 125.867 141.047 125.089 141.047 124.016V123.742C141.047 122.529 140.844 121.664 140.438 121.148C140.036 120.628 139.393 120.367 138.508 120.367C137.747 120.367 137.164 120.664 136.758 121.258C136.357 121.846 136.156 122.68 136.156 123.758C136.156 124.852 136.357 125.677 136.758 126.234C137.159 126.792 137.747 127.07 138.523 127.07ZM153.117 120.445H150.938V128H149.641V120.445H148.109V119.859L149.641 119.391V118.914C149.641 116.81 150.56 115.758 152.398 115.758C152.852 115.758 153.383 115.849 153.992 116.031L153.656 117.07C153.156 116.909 152.729 116.828 152.375 116.828C151.885 116.828 151.523 116.992 151.289 117.32C151.055 117.643 150.938 118.164 150.938 118.883V119.438H153.117V120.445ZM159.945 128L159.688 126.781H159.625C159.198 127.318 158.771 127.682 158.344 127.875C157.922 128.062 157.393 128.156 156.758 128.156C155.909 128.156 155.242 127.938 154.758 127.5C154.279 127.062 154.039 126.44 154.039 125.633C154.039 123.904 155.422 122.997 158.188 122.914L159.641 122.867V122.336C159.641 121.664 159.495 121.169 159.203 120.852C158.917 120.529 158.456 120.367 157.82 120.367C157.107 120.367 156.299 120.586 155.398 121.023L155 120.031C155.422 119.802 155.883 119.622 156.383 119.492C156.888 119.362 157.393 119.297 157.898 119.297C158.919 119.297 159.674 119.523 160.164 119.977C160.659 120.43 160.906 121.156 160.906 122.156V128H159.945ZM157.016 127.086C157.823 127.086 158.456 126.865 158.914 126.422C159.378 125.979 159.609 125.359 159.609 124.562V123.789L158.312 123.844C157.281 123.88 156.536 124.042 156.078 124.328C155.625 124.609 155.398 125.049 155.398 125.648C155.398 126.117 155.539 126.474 155.82 126.719C156.107 126.964 156.505 127.086 157.016 127.086ZM169.109 125.664C169.109 126.461 168.812 127.076 168.219 127.508C167.625 127.94 166.792 128.156 165.719 128.156C164.583 128.156 163.698 127.977 163.062 127.617V126.414C163.474 126.622 163.914 126.786 164.383 126.906C164.857 127.026 165.312 127.086 165.75 127.086C166.427 127.086 166.948 126.979 167.312 126.766C167.677 126.547 167.859 126.216 167.859 125.773C167.859 125.44 167.714 125.156 167.422 124.922C167.135 124.682 166.573 124.401 165.734 124.078C164.938 123.781 164.37 123.523 164.031 123.305C163.698 123.081 163.448 122.828 163.281 122.547C163.12 122.266 163.039 121.93 163.039 121.539C163.039 120.841 163.323 120.292 163.891 119.891C164.458 119.484 165.237 119.281 166.227 119.281C167.148 119.281 168.049 119.469 168.93 119.844L168.469 120.898C167.609 120.544 166.831 120.367 166.133 120.367C165.518 120.367 165.055 120.464 164.742 120.656C164.43 120.849 164.273 121.115 164.273 121.453C164.273 121.682 164.331 121.878 164.445 122.039C164.565 122.201 164.755 122.354 165.016 122.5C165.276 122.646 165.776 122.857 166.516 123.133C167.531 123.503 168.216 123.875 168.57 124.25C168.93 124.625 169.109 125.096 169.109 125.664ZM173.992 127.086C174.221 127.086 174.443 127.07 174.656 127.039C174.87 127.003 175.039 126.966 175.164 126.93V127.922C175.023 127.99 174.815 128.044 174.539 128.086C174.268 128.133 174.023 128.156 173.805 128.156C172.148 128.156 171.32 127.284 171.32 125.539V120.445H170.094V119.82L171.32 119.281L171.867 117.453H172.617V119.438H175.102V120.445H172.617V125.484C172.617 126 172.74 126.396 172.984 126.672C173.229 126.948 173.565 127.086 173.992 127.086ZM178.055 124.852H177.234L176.836 116.578H178.453L178.055 124.852ZM176.695 127.172C176.695 126.464 177.008 126.109 177.633 126.109C177.935 126.109 178.167 126.201 178.328 126.383C178.495 126.565 178.578 126.828 178.578 127.172C178.578 127.505 178.495 127.766 178.328 127.953C178.161 128.135 177.93 128.227 177.633 128.227C177.362 128.227 177.138 128.146 176.961 127.984C176.784 127.818 176.695 127.547 176.695 127.172ZM192.695 128L191.273 124.367H186.695L185.289 128H183.945L188.461 116.531H189.578L194.07 128H192.695ZM190.859 123.172L189.531 119.633C189.359 119.185 189.182 118.635 189 117.984C188.885 118.484 188.721 119.034 188.508 119.633L187.164 123.172H190.859ZM196.742 128H195.445V115.844H196.742V128ZM205.016 125.664C205.016 126.461 204.719 127.076 204.125 127.508C203.531 127.94 202.698 128.156 201.625 128.156C200.49 128.156 199.604 127.977 198.969 127.617V126.414C199.38 126.622 199.82 126.786 200.289 126.906C200.763 127.026 201.219 127.086 201.656 127.086C202.333 127.086 202.854 126.979 203.219 126.766C203.583 126.547 203.766 126.216 203.766 125.773C203.766 125.44 203.62 125.156 203.328 124.922C203.042 124.682 202.479 124.401 201.641 124.078C200.844 123.781 200.276 123.523 199.938 123.305C199.604 123.081 199.354 122.828 199.188 122.547C199.026 122.266 198.945 121.93 198.945 121.539C198.945 120.841 199.229 120.292 199.797 119.891C200.365 119.484 201.143 119.281 202.133 119.281C203.055 119.281 203.956 119.469 204.836 119.844L204.375 120.898C203.516 120.544 202.737 120.367 202.039 120.367C201.424 120.367 200.961 120.464 200.648 120.656C200.336 120.849 200.18 121.115 200.18 121.453C200.18 121.682 200.237 121.878 200.352 122.039C200.471 122.201 200.661 122.354 200.922 122.5C201.182 122.646 201.682 122.857 202.422 123.133C203.438 123.503 204.122 123.875 204.477 124.25C204.836 124.625 205.016 125.096 205.016 125.664ZM214.523 123.711C214.523 125.107 214.172 126.198 213.469 126.984C212.766 127.766 211.794 128.156 210.555 128.156C209.789 128.156 209.109 127.977 208.516 127.617C207.922 127.258 207.464 126.742 207.141 126.07C206.818 125.398 206.656 124.612 206.656 123.711C206.656 122.315 207.005 121.229 207.703 120.453C208.401 119.672 209.37 119.281 210.609 119.281C211.807 119.281 212.758 119.68 213.461 120.477C214.169 121.273 214.523 122.352 214.523 123.711ZM208 123.711C208 124.805 208.219 125.638 208.656 126.211C209.094 126.784 209.737 127.07 210.586 127.07C211.435 127.07 212.078 126.786 212.516 126.219C212.958 125.646 213.18 124.81 213.18 123.711C213.18 122.622 212.958 121.797 212.516 121.234C212.078 120.667 211.43 120.383 210.57 120.383C209.721 120.383 209.081 120.661 208.648 121.219C208.216 121.776 208 122.607 208 123.711ZM222.836 128L219.586 119.438H220.977L222.82 124.516C223.237 125.703 223.482 126.474 223.555 126.828H223.617C223.674 126.552 223.854 125.982 224.156 125.117C224.464 124.247 225.148 122.354 226.211 119.438H227.602L224.352 128H222.836ZM232.594 128.156C231.328 128.156 230.328 127.771 229.594 127C228.865 126.229 228.5 125.159 228.5 123.789C228.5 122.409 228.839 121.312 229.516 120.5C230.198 119.688 231.112 119.281 232.258 119.281C233.331 119.281 234.18 119.635 234.805 120.344C235.43 121.047 235.742 121.977 235.742 123.133V123.953H229.844C229.87 124.958 230.122 125.721 230.602 126.242C231.086 126.763 231.766 127.023 232.641 127.023C233.562 127.023 234.474 126.831 235.375 126.445V127.602C234.917 127.799 234.482 127.94 234.07 128.023C233.664 128.112 233.172 128.156 232.594 128.156ZM232.242 120.367C231.555 120.367 231.005 120.591 230.594 121.039C230.188 121.487 229.948 122.107 229.875 122.898H234.352C234.352 122.081 234.169 121.456 233.805 121.023C233.44 120.586 232.919 120.367 232.242 120.367ZM241.867 119.281C242.247 119.281 242.589 119.312 242.891 119.375L242.711 120.578C242.357 120.5 242.044 120.461 241.773 120.461C241.081 120.461 240.487 120.742 239.992 121.305C239.503 121.867 239.258 122.568 239.258 123.406V128H237.961V119.438H239.031L239.18 121.023H239.242C239.56 120.466 239.943 120.036 240.391 119.734C240.839 119.432 241.331 119.281 241.867 119.281ZM243.133 119.438H244.523L246.398 124.32C246.81 125.435 247.065 126.24 247.164 126.734H247.227C247.294 126.469 247.435 126.016 247.648 125.375C247.867 124.729 248.576 122.75 249.773 119.438H251.164L247.484 129.188C247.12 130.151 246.693 130.833 246.203 131.234C245.719 131.641 245.122 131.844 244.414 131.844C244.018 131.844 243.628 131.799 243.242 131.711V130.672C243.529 130.734 243.849 130.766 244.203 130.766C245.094 130.766 245.729 130.266 246.109 129.266L246.586 128.047L243.133 119.438ZM82.75 141.281C83.1302 141.281 83.4714 141.312 83.7734 141.375L83.5938 142.578C83.2396 142.5 82.9271 142.461 82.6562 142.461C81.9635 142.461 81.3698 142.742 80.875 143.305C80.3854 143.867 80.1406 144.568 80.1406 145.406V150H78.8438V141.438H79.9141L80.0625 143.023H80.125C80.4427 142.466 80.8255 142.036 81.2734 141.734C81.7214 141.432 82.2135 141.281 82.75 141.281ZM88.9922 150.156C87.7266 150.156 86.7266 149.771 85.9922 149C85.263 148.229 84.8984 147.159 84.8984 145.789C84.8984 144.409 85.237 143.312 85.9141 142.5C86.5964 141.688 87.5104 141.281 88.6562 141.281C89.7292 141.281 90.5781 141.635 91.2031 142.344C91.8281 143.047 92.1406 143.977 92.1406 145.133V145.953H86.2422C86.2682 146.958 86.5208 147.721 87 148.242C87.4844 148.763 88.1641 149.023 89.0391 149.023C89.9609 149.023 90.8724 148.831 91.7734 148.445V149.602C91.3151 149.799 90.8802 149.94 90.4688 150.023C90.0625 150.112 89.5703 150.156 88.9922 150.156ZM88.6406 142.367C87.9531 142.367 87.4036 142.591 86.9922 143.039C86.5859 143.487 86.3464 144.107 86.2734 144.898H90.75C90.75 144.081 90.5677 143.456 90.2031 143.023C89.8385 142.586 89.3177 142.367 88.6406 142.367ZM99.625 150L99.3672 148.781H99.3047C98.8776 149.318 98.4505 149.682 98.0234 149.875C97.6016 150.062 97.0729 150.156 96.4375 150.156C95.5885 150.156 94.9219 149.938 94.4375 149.5C93.9583 149.062 93.7188 148.44 93.7188 147.633C93.7188 145.904 95.1016 144.997 97.8672 144.914L99.3203 144.867V144.336C99.3203 143.664 99.1745 143.169 98.8828 142.852C98.5964 142.529 98.1354 142.367 97.5 142.367C96.7865 142.367 95.9792 142.586 95.0781 143.023L94.6797 142.031C95.1016 141.802 95.5625 141.622 96.0625 141.492C96.5677 141.362 97.0729 141.297 97.5781 141.297C98.599 141.297 99.3542 141.523 99.8438 141.977C100.339 142.43 100.586 143.156 100.586 144.156V150H99.625ZM96.6953 149.086C97.5026 149.086 98.1354 148.865 98.5938 148.422C99.0573 147.979 99.2891 147.359 99.2891 146.562V145.789L97.9922 145.844C96.9609 145.88 96.2161 146.042 95.7578 146.328C95.3047 146.609 95.0781 147.049 95.0781 147.648C95.0781 148.117 95.2188 148.474 95.5 148.719C95.7865 148.964 96.1849 149.086 96.6953 149.086ZM108.789 147.664C108.789 148.461 108.492 149.076 107.898 149.508C107.305 149.94 106.471 150.156 105.398 150.156C104.263 150.156 103.378 149.977 102.742 149.617V148.414C103.154 148.622 103.594 148.786 104.062 148.906C104.536 149.026 104.992 149.086 105.43 149.086C106.107 149.086 106.628 148.979 106.992 148.766C107.357 148.547 107.539 148.216 107.539 147.773C107.539 147.44 107.393 147.156 107.102 146.922C106.815 146.682 106.253 146.401 105.414 146.078C104.617 145.781 104.049 145.523 103.711 145.305C103.378 145.081 103.128 144.828 102.961 144.547C102.799 144.266 102.719 143.93 102.719 143.539C102.719 142.841 103.003 142.292 103.57 141.891C104.138 141.484 104.917 141.281 105.906 141.281C106.828 141.281 107.729 141.469 108.609 141.844L108.148 142.898C107.289 142.544 106.51 142.367 105.812 142.367C105.198 142.367 104.734 142.464 104.422 142.656C104.109 142.849 103.953 143.115 103.953 143.453C103.953 143.682 104.01 143.878 104.125 144.039C104.245 144.201 104.435 144.354 104.695 144.5C104.956 144.646 105.456 144.857 106.195 145.133C107.211 145.503 107.896 145.875 108.25 146.25C108.609 146.625 108.789 147.096 108.789 147.664ZM118.297 145.711C118.297 147.107 117.945 148.198 117.242 148.984C116.539 149.766 115.568 150.156 114.328 150.156C113.562 150.156 112.883 149.977 112.289 149.617C111.695 149.258 111.237 148.742 110.914 148.07C110.591 147.398 110.43 146.612 110.43 145.711C110.43 144.315 110.779 143.229 111.477 142.453C112.174 141.672 113.143 141.281 114.383 141.281C115.581 141.281 116.531 141.68 117.234 142.477C117.943 143.273 118.297 144.352 118.297 145.711ZM111.773 145.711C111.773 146.805 111.992 147.638 112.43 148.211C112.867 148.784 113.51 149.07 114.359 149.07C115.208 149.07 115.852 148.786 116.289 148.219C116.732 147.646 116.953 146.81 116.953 145.711C116.953 144.622 116.732 143.797 116.289 143.234C115.852 142.667 115.203 142.383 114.344 142.383C113.495 142.383 112.854 142.661 112.422 143.219C111.99 143.776 111.773 144.607 111.773 145.711ZM126.438 150V144.461C126.438 143.763 126.279 143.242 125.961 142.898C125.643 142.555 125.146 142.383 124.469 142.383C123.573 142.383 122.917 142.625 122.5 143.109C122.083 143.594 121.875 144.393 121.875 145.508V150H120.578V141.438H121.633L121.844 142.609H121.906C122.172 142.188 122.544 141.862 123.023 141.633C123.503 141.398 124.036 141.281 124.625 141.281C125.656 141.281 126.432 141.531 126.953 142.031C127.474 142.526 127.734 143.32 127.734 144.414V150H126.438ZM135.672 150L135.414 148.781H135.352C134.924 149.318 134.497 149.682 134.07 149.875C133.648 150.062 133.12 150.156 132.484 150.156C131.635 150.156 130.969 149.938 130.484 149.5C130.005 149.062 129.766 148.44 129.766 147.633C129.766 145.904 131.148 144.997 133.914 144.914L135.367 144.867V144.336C135.367 143.664 135.221 143.169 134.93 142.852C134.643 142.529 134.182 142.367 133.547 142.367C132.833 142.367 132.026 142.586 131.125 143.023L130.727 142.031C131.148 141.802 131.609 141.622 132.109 141.492C132.615 141.362 133.12 141.297 133.625 141.297C134.646 141.297 135.401 141.523 135.891 141.977C136.385 142.43 136.633 143.156 136.633 144.156V150H135.672ZM132.742 149.086C133.549 149.086 134.182 148.865 134.641 148.422C135.104 147.979 135.336 147.359 135.336 146.562V145.789L134.039 145.844C133.008 145.88 132.263 146.042 131.805 146.328C131.352 146.609 131.125 147.049 131.125 147.648C131.125 148.117 131.266 148.474 131.547 148.719C131.833 148.964 132.232 149.086 132.742 149.086ZM143.297 141.297C144.422 141.297 145.294 141.682 145.914 142.453C146.539 143.219 146.852 144.305 146.852 145.711C146.852 147.117 146.536 148.211 145.906 148.992C145.281 149.768 144.411 150.156 143.297 150.156C142.74 150.156 142.229 150.055 141.766 149.852C141.307 149.643 140.922 149.326 140.609 148.898H140.516L140.242 150H139.312V137.844H140.609V140.797C140.609 141.458 140.589 142.052 140.547 142.578H140.609C141.214 141.724 142.109 141.297 143.297 141.297ZM143.109 142.383C142.224 142.383 141.586 142.638 141.195 143.148C140.805 143.654 140.609 144.508 140.609 145.711C140.609 146.914 140.81 147.776 141.211 148.297C141.612 148.812 142.255 149.07 143.141 149.07C143.938 149.07 144.531 148.781 144.922 148.203C145.312 147.62 145.508 146.784 145.508 145.695C145.508 144.581 145.312 143.75 144.922 143.203C144.531 142.656 143.927 142.383 143.109 142.383ZM150.422 150H149.125V137.844H150.422V150ZM156.789 150.156C155.523 150.156 154.523 149.771 153.789 149C153.06 148.229 152.695 147.159 152.695 145.789C152.695 144.409 153.034 143.312 153.711 142.5C154.393 141.688 155.307 141.281 156.453 141.281C157.526 141.281 158.375 141.635 159 142.344C159.625 143.047 159.938 143.977 159.938 145.133V145.953H154.039C154.065 146.958 154.318 147.721 154.797 148.242C155.281 148.763 155.961 149.023 156.836 149.023C157.758 149.023 158.669 148.831 159.57 148.445V149.602C159.112 149.799 158.677 149.94 158.266 150.023C157.859 150.112 157.367 150.156 156.789 150.156ZM156.438 142.367C155.75 142.367 155.201 142.591 154.789 143.039C154.383 143.487 154.143 144.107 154.07 144.898H158.547C158.547 144.081 158.365 143.456 158 143.023C157.635 142.586 157.115 142.367 156.438 142.367ZM171.836 147.664C171.836 148.461 171.539 149.076 170.945 149.508C170.352 149.94 169.518 150.156 168.445 150.156C167.31 150.156 166.424 149.977 165.789 149.617V148.414C166.201 148.622 166.641 148.786 167.109 148.906C167.583 149.026 168.039 149.086 168.477 149.086C169.154 149.086 169.674 148.979 170.039 148.766C170.404 148.547 170.586 148.216 170.586 147.773C170.586 147.44 170.44 147.156 170.148 146.922C169.862 146.682 169.299 146.401 168.461 146.078C167.664 145.781 167.096 145.523 166.758 145.305C166.424 145.081 166.174 144.828 166.008 144.547C165.846 144.266 165.766 143.93 165.766 143.539C165.766 142.841 166.049 142.292 166.617 141.891C167.185 141.484 167.964 141.281 168.953 141.281C169.875 141.281 170.776 141.469 171.656 141.844L171.195 142.898C170.336 142.544 169.557 142.367 168.859 142.367C168.245 142.367 167.781 142.464 167.469 142.656C167.156 142.849 167 143.115 167 143.453C167 143.682 167.057 143.878 167.172 144.039C167.292 144.201 167.482 144.354 167.742 144.5C168.003 144.646 168.503 144.857 169.242 145.133C170.258 145.503 170.943 145.875 171.297 146.25C171.656 146.625 171.836 147.096 171.836 147.664ZM177.938 150.156C177.38 150.156 176.87 150.055 176.406 149.852C175.948 149.643 175.562 149.326 175.25 148.898H175.156C175.219 149.398 175.25 149.872 175.25 150.32V153.844H173.953V141.438H175.008L175.188 142.609H175.25C175.583 142.141 175.971 141.802 176.414 141.594C176.857 141.385 177.365 141.281 177.938 141.281C179.073 141.281 179.948 141.669 180.562 142.445C181.182 143.221 181.492 144.31 181.492 145.711C181.492 147.117 181.177 148.211 180.547 148.992C179.922 149.768 179.052 150.156 177.938 150.156ZM177.75 142.383C176.875 142.383 176.242 142.625 175.852 143.109C175.461 143.594 175.26 144.365 175.25 145.422V145.711C175.25 146.914 175.451 147.776 175.852 148.297C176.253 148.812 176.896 149.07 177.781 149.07C178.521 149.07 179.099 148.771 179.516 148.172C179.938 147.573 180.148 146.747 180.148 145.695C180.148 144.628 179.938 143.81 179.516 143.242C179.099 142.669 178.51 142.383 177.75 142.383ZM187.672 141.281C188.052 141.281 188.393 141.312 188.695 141.375L188.516 142.578C188.161 142.5 187.849 142.461 187.578 142.461C186.885 142.461 186.292 142.742 185.797 143.305C185.307 143.867 185.062 144.568 185.062 145.406V150H183.766V141.438H184.836L184.984 143.023H185.047C185.365 142.466 185.747 142.036 186.195 141.734C186.643 141.432 187.135 141.281 187.672 141.281ZM193.914 150.156C192.648 150.156 191.648 149.771 190.914 149C190.185 148.229 189.82 147.159 189.82 145.789C189.82 144.409 190.159 143.312 190.836 142.5C191.518 141.688 192.432 141.281 193.578 141.281C194.651 141.281 195.5 141.635 196.125 142.344C196.75 143.047 197.062 143.977 197.062 145.133V145.953H191.164C191.19 146.958 191.443 147.721 191.922 148.242C192.406 148.763 193.086 149.023 193.961 149.023C194.883 149.023 195.794 148.831 196.695 148.445V149.602C196.237 149.799 195.802 149.94 195.391 150.023C194.984 150.112 194.492 150.156 193.914 150.156ZM193.562 142.367C192.875 142.367 192.326 142.591 191.914 143.039C191.508 143.487 191.268 144.107 191.195 144.898H195.672C195.672 144.081 195.49 143.456 195.125 143.023C194.76 142.586 194.24 142.367 193.562 142.367ZM204.547 150L204.289 148.781H204.227C203.799 149.318 203.372 149.682 202.945 149.875C202.523 150.062 201.995 150.156 201.359 150.156C200.51 150.156 199.844 149.938 199.359 149.5C198.88 149.062 198.641 148.44 198.641 147.633C198.641 145.904 200.023 144.997 202.789 144.914L204.242 144.867V144.336C204.242 143.664 204.096 143.169 203.805 142.852C203.518 142.529 203.057 142.367 202.422 142.367C201.708 142.367 200.901 142.586 200 143.023L199.602 142.031C200.023 141.802 200.484 141.622 200.984 141.492C201.49 141.362 201.995 141.297 202.5 141.297C203.521 141.297 204.276 141.523 204.766 141.977C205.26 142.43 205.508 143.156 205.508 144.156V150H204.547ZM201.617 149.086C202.424 149.086 203.057 148.865 203.516 148.422C203.979 147.979 204.211 147.359 204.211 146.562V145.789L202.914 145.844C201.883 145.88 201.138 146.042 200.68 146.328C200.227 146.609 200 147.049 200 147.648C200 148.117 200.141 148.474 200.422 148.719C200.708 148.964 201.107 149.086 201.617 149.086ZM214.016 148.852H213.945C213.346 149.721 212.451 150.156 211.258 150.156C210.138 150.156 209.266 149.773 208.641 149.008C208.021 148.242 207.711 147.154 207.711 145.742C207.711 144.331 208.023 143.234 208.648 142.453C209.273 141.672 210.143 141.281 211.258 141.281C212.419 141.281 213.31 141.703 213.93 142.547H214.031L213.977 141.93L213.945 141.328V137.844H215.242V150H214.188L214.016 148.852ZM211.422 149.07C212.307 149.07 212.948 148.831 213.344 148.352C213.745 147.867 213.945 147.089 213.945 146.016V145.742C213.945 144.529 213.742 143.664 213.336 143.148C212.935 142.628 212.292 142.367 211.406 142.367C210.646 142.367 210.062 142.664 209.656 143.258C209.255 143.846 209.055 144.68 209.055 145.758C209.055 146.852 209.255 147.677 209.656 148.234C210.057 148.792 210.646 149.07 211.422 149.07ZM223.523 147.664C223.523 148.461 223.227 149.076 222.633 149.508C222.039 149.94 221.206 150.156 220.133 150.156C218.997 150.156 218.112 149.977 217.477 149.617V148.414C217.888 148.622 218.328 148.786 218.797 148.906C219.271 149.026 219.727 149.086 220.164 149.086C220.841 149.086 221.362 148.979 221.727 148.766C222.091 148.547 222.273 148.216 222.273 147.773C222.273 147.44 222.128 147.156 221.836 146.922C221.549 146.682 220.987 146.401 220.148 146.078C219.352 145.781 218.784 145.523 218.445 145.305C218.112 145.081 217.862 144.828 217.695 144.547C217.534 144.266 217.453 143.93 217.453 143.539C217.453 142.841 217.737 142.292 218.305 141.891C218.872 141.484 219.651 141.281 220.641 141.281C221.562 141.281 222.464 141.469 223.344 141.844L222.883 142.898C222.023 142.544 221.245 142.367 220.547 142.367C219.932 142.367 219.469 142.464 219.156 142.656C218.844 142.849 218.688 143.115 218.688 143.453C218.688 143.682 218.745 143.878 218.859 144.039C218.979 144.201 219.169 144.354 219.43 144.5C219.69 144.646 220.19 144.857 220.93 145.133C221.945 145.503 222.63 145.875 222.984 146.25C223.344 146.625 223.523 147.096 223.523 147.664ZM225.453 149.172C225.453 148.823 225.531 148.56 225.688 148.383C225.849 148.201 226.078 148.109 226.375 148.109C226.677 148.109 226.911 148.201 227.078 148.383C227.25 148.56 227.336 148.823 227.336 149.172C227.336 149.51 227.25 149.771 227.078 149.953C226.906 150.135 226.672 150.227 226.375 150.227C226.109 150.227 225.888 150.146 225.711 149.984C225.539 149.818 225.453 149.547 225.453 149.172Z" fill="#333333"/>
<path d="M66.2617 101.136C65.5885 101.136 65.0586 101.039 64.6719 100.846V99.2881C65.1803 99.4313 65.7103 99.5029 66.2617 99.5029C66.9707 99.5029 67.5078 99.2881 67.873 98.8584C68.2454 98.4287 68.4316 97.8092 68.4316 97V81.2949H70.2578V96.8496C70.2578 98.2103 69.9141 99.263 69.2266 100.008C68.5391 100.76 67.5508 101.136 66.2617 101.136ZM75.8438 85.2266V92.8643C75.8438 93.8239 76.0622 94.54 76.499 95.0127C76.9359 95.4854 77.6198 95.7217 78.5508 95.7217C79.7826 95.7217 80.6813 95.3851 81.2471 94.7119C81.82 94.0387 82.1064 92.9395 82.1064 91.4141V85.2266H83.8896V97H82.418L82.1602 95.4209H82.0635C81.6982 96.001 81.1898 96.445 80.5381 96.7529C79.8936 97.0609 79.1559 97.2148 78.3252 97.2148C76.8929 97.2148 75.8187 96.8747 75.1025 96.1943C74.3936 95.514 74.0391 94.4255 74.0391 92.9287V85.2266H75.8438ZM95.2764 93.7881C95.2764 94.8838 94.8682 95.7288 94.0518 96.3232C93.2354 96.9176 92.0895 97.2148 90.6143 97.2148C89.0531 97.2148 87.8356 96.9678 86.9619 96.4736V94.8193C87.5277 95.1058 88.1328 95.3314 88.7773 95.4961C89.429 95.6608 90.0557 95.7432 90.6572 95.7432C91.5882 95.7432 92.3044 95.5964 92.8057 95.3027C93.307 95.002 93.5576 94.5472 93.5576 93.9385C93.5576 93.4801 93.3571 93.0898 92.9561 92.7676C92.5622 92.4382 91.7887 92.0514 90.6357 91.6074C89.54 91.1992 88.7594 90.8447 88.2939 90.5439C87.8356 90.236 87.4919 89.8887 87.2627 89.502C87.0407 89.1152 86.9297 88.6533 86.9297 88.1162C86.9297 87.1566 87.32 86.401 88.1006 85.8496C88.8812 85.291 89.9518 85.0117 91.3125 85.0117C92.5801 85.0117 93.819 85.2695 95.0293 85.7852L94.3955 87.2354C93.2139 86.7484 92.1432 86.5049 91.1836 86.5049C90.3385 86.5049 89.7012 86.6374 89.2715 86.9023C88.8418 87.1673 88.627 87.5326 88.627 87.998C88.627 88.3132 88.7057 88.5817 88.8633 88.8037C89.028 89.0257 89.2894 89.237 89.6475 89.4375C90.0055 89.638 90.693 89.9281 91.71 90.3076C93.1064 90.8161 94.0482 91.3281 94.5352 91.8438C95.0293 92.3594 95.2764 93.0075 95.2764 93.7881ZM101.99 95.7432C102.305 95.7432 102.61 95.7217 102.903 95.6787C103.197 95.6286 103.43 95.5785 103.602 95.5283V96.8926C103.408 96.9857 103.122 97.0609 102.742 97.1182C102.37 97.1826 102.033 97.2148 101.732 97.2148C99.4551 97.2148 98.3164 96.0153 98.3164 93.6162V86.6123H96.6299V85.7529L98.3164 85.0117L99.0684 82.498H100.1V85.2266H103.516V86.6123H100.1V93.541C100.1 94.25 100.268 94.7943 100.604 95.1738C100.941 95.5534 101.403 95.7432 101.99 95.7432ZM107.748 97H105.965V85.2266H107.748V97ZM105.814 82.0361C105.814 81.6279 105.915 81.3307 106.115 81.1445C106.316 80.9512 106.566 80.8545 106.867 80.8545C107.154 80.8545 107.401 80.9512 107.608 81.1445C107.816 81.3379 107.92 81.6351 107.92 82.0361C107.92 82.4372 107.816 82.738 107.608 82.9385C107.401 83.1318 107.154 83.2285 106.867 83.2285C106.566 83.2285 106.316 83.1318 106.115 82.9385C105.915 82.738 105.814 82.4372 105.814 82.0361ZM119.586 97V89.3838C119.586 88.4242 119.368 87.708 118.931 87.2354C118.494 86.7627 117.81 86.5264 116.879 86.5264C115.647 86.5264 114.745 86.8594 114.172 87.5254C113.599 88.1914 113.312 89.2907 113.312 90.8232V97H111.529V85.2266H112.979L113.27 86.8379H113.355C113.721 86.2578 114.233 85.8102 114.892 85.4951C115.55 85.1729 116.285 85.0117 117.094 85.0117C118.512 85.0117 119.579 85.3555 120.295 86.043C121.011 86.7233 121.369 87.8154 121.369 89.3193V97H119.586ZM142.95 97H141.124V89.6094H132.853V97H131.026V81.2949H132.853V87.9766H141.124V81.2949H142.95V97ZM154.24 97L153.886 95.3242H153.8C153.213 96.0618 152.625 96.5632 152.038 96.8281C151.458 97.0859 150.731 97.2148 149.857 97.2148C148.69 97.2148 147.773 96.9141 147.107 96.3125C146.449 95.7109 146.119 94.8551 146.119 93.7451C146.119 91.3675 148.021 90.1214 151.823 90.0068L153.821 89.9424V89.2119C153.821 88.2881 153.621 87.6077 153.22 87.1709C152.826 86.7269 152.192 86.5049 151.318 86.5049C150.337 86.5049 149.227 86.8057 147.988 87.4072L147.44 86.043C148.021 85.7279 148.654 85.4808 149.342 85.3018C150.036 85.1227 150.731 85.0332 151.426 85.0332C152.829 85.0332 153.868 85.3447 154.541 85.9678C155.221 86.5908 155.562 87.5898 155.562 88.9648V97H154.24ZM150.212 95.7432C151.322 95.7432 152.192 95.4388 152.822 94.8301C153.46 94.2214 153.778 93.3691 153.778 92.2734V91.21L151.995 91.2852C150.577 91.3353 149.553 91.5573 148.923 91.9512C148.3 92.3379 147.988 92.943 147.988 93.7666C147.988 94.4111 148.182 94.9017 148.568 95.2383C148.962 95.5749 149.51 95.7432 150.212 95.7432ZM174.253 97V89.3408C174.253 88.4027 174.052 87.7008 173.651 87.2354C173.25 86.7627 172.627 86.5264 171.782 86.5264C170.672 86.5264 169.852 86.8451 169.322 87.4824C168.792 88.1198 168.527 89.1009 168.527 90.4258V97H166.744V89.3408C166.744 88.4027 166.544 87.7008 166.143 87.2354C165.742 86.7627 165.115 86.5264 164.263 86.5264C163.146 86.5264 162.326 86.863 161.803 87.5361C161.287 88.2021 161.029 89.2979 161.029 90.8232V97H159.246V85.2266H160.696L160.986 86.8379H161.072C161.409 86.265 161.882 85.8174 162.49 85.4951C163.106 85.1729 163.794 85.0117 164.553 85.0117C166.393 85.0117 167.596 85.6777 168.162 87.0098H168.248C168.599 86.3939 169.107 85.9069 169.773 85.5488C170.439 85.1908 171.199 85.0117 172.051 85.0117C173.383 85.0117 174.378 85.3555 175.037 86.043C175.703 86.7233 176.036 87.8154 176.036 89.3193V97H174.253ZM194.728 97V89.3408C194.728 88.4027 194.527 87.7008 194.126 87.2354C193.725 86.7627 193.102 86.5264 192.257 86.5264C191.147 86.5264 190.327 86.8451 189.797 87.4824C189.267 88.1198 189.002 89.1009 189.002 90.4258V97H187.219V89.3408C187.219 88.4027 187.018 87.7008 186.617 87.2354C186.216 86.7627 185.59 86.5264 184.737 86.5264C183.62 86.5264 182.8 86.863 182.277 87.5361C181.762 88.2021 181.504 89.2979 181.504 90.8232V97H179.721V85.2266H181.171L181.461 86.8379H181.547C181.883 86.265 182.356 85.8174 182.965 85.4951C183.581 85.1729 184.268 85.0117 185.027 85.0117C186.868 85.0117 188.071 85.6777 188.637 87.0098H188.723C189.074 86.3939 189.582 85.9069 190.248 85.5488C190.914 85.1908 191.673 85.0117 192.525 85.0117C193.857 85.0117 194.853 85.3555 195.512 86.043C196.178 86.7233 196.511 87.8154 196.511 89.3193V97H194.728ZM210.357 91.1025C210.357 93.0218 209.874 94.5221 208.907 95.6035C207.94 96.6777 206.605 97.2148 204.9 97.2148C203.848 97.2148 202.913 96.9678 202.097 96.4736C201.28 95.9795 200.65 95.2705 200.206 94.3467C199.762 93.4229 199.54 92.3415 199.54 91.1025C199.54 89.1833 200.02 87.6901 200.979 86.623C201.939 85.5488 203.271 85.0117 204.976 85.0117C206.623 85.0117 207.93 85.5596 208.896 86.6553C209.87 87.751 210.357 89.2334 210.357 91.1025ZM201.388 91.1025C201.388 92.6064 201.688 93.7523 202.29 94.54C202.892 95.3278 203.776 95.7217 204.943 95.7217C206.111 95.7217 206.995 95.3314 207.597 94.5508C208.205 93.763 208.51 92.6136 208.51 91.1025C208.51 89.6058 208.205 88.4707 207.597 87.6973C206.995 86.9167 206.104 86.5264 204.922 86.5264C203.755 86.5264 202.874 86.9095 202.279 87.6758C201.685 88.4421 201.388 89.5843 201.388 91.1025ZM221.551 97V89.3838C221.551 88.4242 221.332 87.708 220.896 87.2354C220.459 86.7627 219.775 86.5264 218.844 86.5264C217.612 86.5264 216.71 86.8594 216.137 87.5254C215.564 88.1914 215.277 89.2907 215.277 90.8232V97H213.494V85.2266H214.944L215.234 86.8379H215.32C215.686 86.2578 216.198 85.8102 216.856 85.4951C217.515 85.1729 218.249 85.0117 219.059 85.0117C220.477 85.0117 221.544 85.3555 222.26 86.043C222.976 86.7233 223.334 87.8154 223.334 89.3193V97H221.551ZM235.021 95.4209H234.925C234.101 96.6169 232.869 97.2148 231.229 97.2148C229.69 97.2148 228.49 96.6885 227.631 95.6357C226.779 94.583 226.353 93.0863 226.353 91.1455C226.353 89.2048 226.782 87.6973 227.642 86.623C228.501 85.5488 229.697 85.0117 231.229 85.0117C232.826 85.0117 234.051 85.5918 234.903 86.752H235.043L234.968 85.9033L234.925 85.0762V80.2852H236.708V97H235.258L235.021 95.4209ZM231.455 95.7217C232.673 95.7217 233.553 95.3923 234.098 94.7334C234.649 94.0674 234.925 92.9967 234.925 91.5215V91.1455C234.925 89.4769 234.646 88.2881 234.087 87.5791C233.535 86.863 232.651 86.5049 231.434 86.5049C230.388 86.5049 229.586 86.9131 229.027 87.7295C228.476 88.5387 228.2 89.6846 228.2 91.167C228.2 92.6709 228.476 93.806 229.027 94.5723C229.579 95.3385 230.388 95.7217 231.455 95.7217Z" fill="#050F19"/>
<g clip-path="url(#clip0_1_357)">
<path d="M84.4764 62.5956C84.2573 62.5956 84.0397 62.5273 83.854 62.393C83.5081 62.1423 83.3465 61.7114 83.4406 61.2956L84.7273 55.6278L80.3638 51.8011C80.043 51.5211 79.9205 51.0777 80.0522 50.672C80.1839 50.267 80.5421 49.9803 80.9664 49.9411L86.7398 49.4169L89.0224 44.0751C89.1907 43.6827 89.574 43.4292 89.9999 43.4292C90.4258 43.4292 90.8091 43.6827 90.9774 44.0742L93.2601 49.4169L99.0326 49.9411C99.4577 49.9794 99.816 50.267 99.9477 50.672C100.079 51.0769 99.9576 51.5211 99.6369 51.8011L95.2733 55.6271L96.56 61.2946C96.6543 61.7114 96.4926 62.1423 96.1468 62.3922C95.8018 62.6422 95.3417 62.6614 94.9784 62.4431L89.9999 59.468L85.0215 62.4447C84.8532 62.5447 84.6656 62.5956 84.4764 62.5956ZM86.6957 49.5202L86.6948 49.5219L86.6957 49.5202ZM93.3025 49.5178L93.3034 49.5194L93.3025 49.5178Z" fill="#FFBD00"/>
</g>
<g clip-path="url(#clip1_1_357)">
<path d="M116.143 62.5956C115.924 62.5956 115.707 62.5273 115.521 62.393C115.175 62.1423 115.013 61.7114 115.108 61.2956L116.394 55.6278L112.031 51.8011C111.71 51.5211 111.587 51.0777 111.719 50.672C111.851 50.267 112.209 49.9803 112.633 49.9411L118.407 49.4169L120.689 44.0751C120.858 43.6827 121.241 43.4292 121.667 43.4292C122.093 43.4292 122.476 43.6827 122.644 44.0742L124.927 49.4169L130.7 49.9411C131.125 49.9794 131.483 50.267 131.615 50.672C131.746 51.0769 131.625 51.5211 131.304 51.8011L126.94 55.6271L128.227 61.2946C128.321 61.7114 128.16 62.1423 127.814 62.3922C127.469 62.6422 127.009 62.6614 126.645 62.4431L121.667 59.468L116.688 62.4447C116.52 62.5447 116.333 62.5956 116.143 62.5956ZM118.363 49.5202L118.362 49.5219L118.363 49.5202ZM124.969 49.5178L124.97 49.5194L124.969 49.5178Z" fill="#FFBD00"/>
</g>
<g clip-path="url(#clip2_1_357)">
<path d="M147.81 62.5956C147.591 62.5956 147.373 62.5273 147.187 62.393C146.842 62.1423 146.68 61.7114 146.774 61.2956L148.061 55.6278L143.697 51.8011C143.377 51.5211 143.254 51.0777 143.386 50.672C143.517 50.267 143.876 49.9803 144.3 49.9411L150.073 49.4169L152.356 44.0751C152.524 43.6827 152.908 43.4292 153.333 43.4292C153.759 43.4292 154.143 43.6827 154.311 44.0742L156.594 49.4169L162.366 49.9411C162.791 49.9794 163.149 50.267 163.281 50.672C163.413 51.0769 163.291 51.5211 162.97 51.8011L158.607 55.6271L159.893 61.2946C159.988 61.7114 159.826 62.1423 159.48 62.3922C159.135 62.6422 158.675 62.6614 158.312 62.4431L153.333 59.468L148.355 62.4447C148.187 62.5447 147.999 62.5956 147.81 62.5956ZM150.029 49.5202L150.028 49.5219L150.029 49.5202ZM156.636 49.5178L156.637 49.5194L156.636 49.5178Z" fill="#FFBD00"/>
</g>
<g clip-path="url(#clip3_1_357)">
<path d="M179.476 62.5956C179.257 62.5956 179.04 62.5273 178.854 62.393C178.508 62.1423 178.346 61.7114 178.441 61.2956L179.727 55.6278L175.364 51.8011C175.043 51.5211 174.92 51.0777 175.052 50.672C175.184 50.267 175.542 49.9803 175.966 49.9411L181.74 49.4169L184.022 44.0751C184.191 43.6827 184.574 43.4292 185 43.4292C185.426 43.4292 185.809 43.6827 185.977 44.0742L188.26 49.4169L194.033 49.9411C194.458 49.9794 194.816 50.267 194.948 50.672C195.079 51.0769 194.958 51.5211 194.637 51.8011L190.273 55.6271L191.56 61.2946C191.654 61.7114 191.493 62.1423 191.147 62.3922C190.802 62.6422 190.342 62.6614 189.978 62.4431L185 59.468L180.021 62.4447C179.853 62.5447 179.666 62.5956 179.476 62.5956ZM181.696 49.5202L181.695 49.5219L181.696 49.5202ZM188.302 49.5178L188.303 49.5194L188.302 49.5178Z" fill="#FFBD00"/>
</g>
<g clip-path="url(#clip4_1_357)">
<path d="M211.143 62.5956C210.924 62.5956 210.706 62.5273 210.521 62.393C210.175 62.1423 210.013 61.7114 210.107 61.2956L211.394 55.6278L207.03 51.8011C206.71 51.5211 206.587 51.0777 206.719 50.672C206.85 50.267 207.209 49.9803 207.633 49.9411L213.406 49.4169L215.689 44.0751C215.857 43.6827 216.241 43.4292 216.666 43.4292C217.092 43.4292 217.476 43.6827 217.644 44.0742L219.927 49.4169L225.699 49.9411C226.124 49.9794 226.483 50.267 226.614 50.672C226.746 51.0769 226.624 51.5211 226.303 51.8011L221.94 55.6271L223.227 61.2946C223.321 61.7114 223.159 62.1423 222.813 62.3922C222.468 62.6422 222.008 62.6614 221.645 62.4431L216.666 59.468L211.688 62.4447C211.52 62.5447 211.332 62.5956 211.143 62.5956ZM213.362 49.5202L213.361 49.5219L213.362 49.5202ZM219.969 49.5178L219.97 49.5194L219.969 49.5178Z" fill="#FFBD00"/>
</g>
<defs>
<filter id="filter0_dd_1_357" x="0" y="0" width="306" height="206" filterUnits="userSpaceOnUse" color-interpolation-filters="sRGB">
<feFlood flood-opacity="0" result="BackgroundImageFix"/>
<feColorMatrix in="SourceAlpha" type="matrix" values="0 0 0 0 0 0 0 0 0 0 0 0 0 0 0 0 0 0 127 0" result="hardAlpha"/>
<feMorphology radius="3" operator="dilate" in="SourceAlpha" result="effect1_dropShadow_1_357"/>
<feOffset dx="-5" dy="-5"/>
<feGaussianBlur stdDeviation="2.5"/>
<feColorMatrix type="matrix" values="0 0 0 0 0.879167 0 0 0 0 0.879167 0 0 0 0 0.879167 0 0 0 0.2 0"/>
<feBlend mode="normal" in2="BackgroundImageFix" result="effect1_dropShadow_1_357"/>
<feColorMatrix in="SourceAlpha" type="matrix" values="0 0 0 0 0 0 0 0 0 0 0 0 0 0 0 0 0 0 127 0" result="hardAlpha"/>
<feMorphology radius="3" operator="dilate" in="SourceAlpha" result="effect2_dropShadow_1_357"/>
<feOffset dx="5" dy="5"/>
<feGaussianBlur stdDeviation="2.5"/>
<feColorMatrix type="matrix" values="0 0 0 0 0.878431 0 0 0 0 0.878431 0 0 0 0 0.878431 0 0 0 0.2 0"/>
<feBlend mode="normal" in2="effect1_dropShadow_1_357" result="effect2_dropShadow_1_357"/>
<feBlend mode="normal" in="SourceGraphic" in2="effect2_dropShadow_1_357" result="shape"/>
</filter>
<clipPath id="clip0_1_357">
<rect width="20" height="20" fill="white" transform="translate(80 43)"/>
</clipPath>
<clipPath id="clip1_1_357">
<rect width="20" height="20" fill="white" transform="translate(111.667 43)"/>
</clipPath>
<clipPath id="clip2_1_357">
<rect width="20" height="20" fill="white" transform="translate(143.333 43)"/>
</clipPath>
<clipPath id="clip3_1_357">
<rect width="20" height="20" fill="white" transform="translate(175 43)"/>
</clipPath>
<clipPath id="clip4_1_357">
<rect width="20" height="20" fill="white" transform="translate(206.667 43)"/>
</clipPath>
</defs>
</svg>
