<svg width="177" height="47" viewBox="0 0 177 47" fill="none" xmlns="http://www.w3.org/2000/svg">
<path d="M7.05664 15L2.91602 3.07617H2.83789C2.94857 4.84701 3.00391 6.50716 3.00391 8.05664V15H0.884766V0.722656H4.17578L8.14062 12.0801H8.19922L12.2812 0.722656H15.582V15H13.3359V7.93945C13.3359 7.22982 13.3522 6.30534 13.3848 5.16602C13.4238 4.02669 13.4564 3.33659 13.4824 3.0957H13.4043L9.11719 15H7.05664ZM25.8555 15L25.3965 13.4961H25.3184C24.7975 14.1536 24.2734 14.6029 23.7461 14.8438C23.2188 15.0781 22.5417 15.1953 21.7148 15.1953C20.6536 15.1953 19.8236 14.9089 19.2246 14.3359C18.6322 13.763 18.3359 12.9525 18.3359 11.9043C18.3359 10.791 18.7493 9.95117 19.5762 9.38477C20.403 8.81836 21.6628 8.50911 23.3555 8.45703L25.2207 8.39844V7.82227C25.2207 7.13216 25.0579 6.61784 24.7324 6.2793C24.4134 5.93424 23.9154 5.76172 23.2383 5.76172C22.6849 5.76172 22.1543 5.8431 21.6465 6.00586C21.1387 6.16862 20.6504 6.36068 20.1816 6.58203L19.4395 4.94141C20.0254 4.63542 20.6667 4.4043 21.3633 4.24805C22.0599 4.08529 22.7174 4.00391 23.3359 4.00391C24.7096 4.00391 25.7448 4.30339 26.4414 4.90234C27.1445 5.5013 27.4961 6.44206 27.4961 7.72461V15H25.8555ZM22.4375 13.4375C23.2708 13.4375 23.9382 13.2064 24.4395 12.7441C24.9473 12.2754 25.2012 11.6211 25.2012 10.7812V9.84375L23.8145 9.90234C22.7337 9.94141 21.946 10.1237 21.4512 10.4492C20.9629 10.7682 20.7188 11.2598 20.7188 11.9238C20.7188 12.4056 20.862 12.7799 21.1484 13.0469C21.4349 13.3073 21.8646 13.4375 22.4375 13.4375ZM29.5957 19.8047C28.9056 19.8047 28.3327 19.7233 27.877 19.5605V17.7441C28.3197 17.8613 28.7721 17.9199 29.2344 17.9199C30.2109 17.9199 30.6992 17.3665 30.6992 16.2598V4.19922H32.9941V16.416C32.9941 17.5293 32.7012 18.3724 32.1152 18.9453C31.5358 19.5182 30.696 19.8047 29.5957 19.8047ZM30.5625 1.33789C30.5625 0.927734 30.6732 0.611979 30.8945 0.390625C31.1224 0.169271 31.4447 0.0585938 31.8613 0.0585938C32.265 0.0585938 32.5775 0.169271 32.7988 0.390625C33.0267 0.611979 33.1406 0.927734 33.1406 1.33789C33.1406 1.72852 33.0267 2.03776 32.7988 2.26562C32.5775 2.48698 32.265 2.59766 31.8613 2.59766C31.4447 2.59766 31.1224 2.48698 30.8945 2.26562C30.6732 2.03776 30.5625 1.72852 30.5625 1.33789ZM45.8652 9.58008C45.8652 11.3444 45.4128 12.7214 44.5078 13.7109C43.6029 14.7005 42.3431 15.1953 40.7285 15.1953C39.7194 15.1953 38.8275 14.9674 38.0527 14.5117C37.278 14.056 36.6823 13.4017 36.2656 12.5488C35.849 11.696 35.6406 10.7064 35.6406 9.58008C35.6406 7.82878 36.0898 6.46159 36.9883 5.47852C37.8867 4.49544 39.153 4.00391 40.7871 4.00391C42.3496 4.00391 43.5866 4.50846 44.498 5.51758C45.4095 6.52018 45.8652 7.87435 45.8652 9.58008ZM38.0039 9.58008C38.0039 12.0736 38.9251 13.3203 40.7676 13.3203C42.5905 13.3203 43.502 12.0736 43.502 9.58008C43.502 7.11263 42.584 5.87891 40.748 5.87891C39.7845 5.87891 39.0846 6.19792 38.6484 6.83594C38.2188 7.47396 38.0039 8.38867 38.0039 9.58008ZM53.9902 4.00391C54.4525 4.00391 54.8333 4.03646 55.1328 4.10156L54.9082 6.24023C54.5827 6.16211 54.2441 6.12305 53.8926 6.12305C52.9746 6.12305 52.2292 6.42253 51.6562 7.02148C51.0898 7.62044 50.8066 8.39844 50.8066 9.35547V15H48.5117V4.19922H50.3086L50.6113 6.10352H50.7285C51.0866 5.45898 51.5521 4.94792 52.125 4.57031C52.7044 4.19271 53.3262 4.00391 53.9902 4.00391ZM72.0371 5.03906C72.0371 6.52995 71.5488 7.67253 70.5723 8.4668C69.5957 9.26107 68.2057 9.6582 66.4023 9.6582H64.918V15H62.584V0.722656H66.6953C68.4792 0.722656 69.8138 1.08724 70.6992 1.81641C71.5911 2.54557 72.0371 3.61979 72.0371 5.03906ZM64.918 7.69531H66.1582C67.3561 7.69531 68.235 7.48698 68.7949 7.07031C69.3548 6.65365 69.6348 6.0026 69.6348 5.11719C69.6348 4.29688 69.3841 3.6849 68.8828 3.28125C68.3815 2.8776 67.6003 2.67578 66.5391 2.67578H64.918V7.69531ZM81.4023 15L80.9434 13.4961H80.8652C80.3444 14.1536 79.8203 14.6029 79.293 14.8438C78.7656 15.0781 78.0885 15.1953 77.2617 15.1953C76.2005 15.1953 75.3704 14.9089 74.7715 14.3359C74.179 13.763 73.8828 12.9525 73.8828 11.9043C73.8828 10.791 74.2962 9.95117 75.123 9.38477C75.9499 8.81836 77.2096 8.50911 78.9023 8.45703L80.7676 8.39844V7.82227C80.7676 7.13216 80.6048 6.61784 80.2793 6.2793C79.9603 5.93424 79.4622 5.76172 78.7852 5.76172C78.2318 5.76172 77.7012 5.8431 77.1934 6.00586C76.6855 6.16862 76.1973 6.36068 75.7285 6.58203L74.9863 4.94141C75.5723 4.63542 76.2135 4.4043 76.9102 4.24805C77.6068 4.08529 78.2643 4.00391 78.8828 4.00391C80.2565 4.00391 81.2917 4.30339 81.9883 4.90234C82.6914 5.5013 83.043 6.44206 83.043 7.72461V15H81.4023ZM77.9844 13.4375C78.8177 13.4375 79.485 13.2064 79.9863 12.7441C80.4941 12.2754 80.748 11.6211 80.748 10.7812V9.84375L79.3613 9.90234C78.2806 9.94141 77.4928 10.1237 76.998 10.4492C76.5098 10.7682 76.2656 11.2598 76.2656 11.9238C76.2656 12.4056 76.4089 12.7799 76.6953 13.0469C76.9818 13.3073 77.4115 13.4375 77.9844 13.4375ZM84.6055 4.19922H87.1055L89.3027 10.3223C89.6348 11.1947 89.8561 12.015 89.9668 12.7832H90.0449C90.1035 12.4251 90.2109 11.9922 90.3672 11.4844C90.5234 10.9701 91.3503 8.54167 92.8477 4.19922H95.3281L90.709 16.4355C89.8691 18.6816 88.4694 19.8047 86.5098 19.8047C86.002 19.8047 85.5072 19.7493 85.0254 19.6387V17.8223C85.3704 17.9004 85.7643 17.9395 86.207 17.9395C87.3138 17.9395 88.0918 17.2982 88.541 16.0156L88.9414 15L84.6055 4.19922ZM106.07 15H103.766V8.33984C103.766 7.51302 103.609 6.89779 103.297 6.49414C102.984 6.08398 102.496 5.87891 101.832 5.87891C100.947 5.87891 100.296 6.16862 99.8789 6.74805C99.4688 7.32096 99.2637 8.27799 99.2637 9.61914V15H96.9688V4.19922H98.7656L99.0879 5.61523H99.2051C99.5046 5.10091 99.9375 4.70378 100.504 4.42383C101.077 4.14388 101.705 4.00391 102.389 4.00391C104.049 4.00391 105.149 4.57031 105.689 5.70312H105.846C106.165 5.16927 106.614 4.7526 107.193 4.45312C107.773 4.15365 108.437 4.00391 109.186 4.00391C110.475 4.00391 111.412 4.32943 111.998 4.98047C112.59 5.63151 112.887 6.62435 112.887 7.95898V15H110.592V8.33984C110.592 7.51302 110.432 6.89779 110.113 6.49414C109.801 6.08398 109.312 5.87891 108.648 5.87891C107.757 5.87891 107.102 6.15885 106.686 6.71875C106.275 7.27214 106.07 8.125 106.07 9.27734V15ZM120.807 15.1953C119.127 15.1953 117.812 14.707 116.861 13.7305C115.917 12.7474 115.445 11.3965 115.445 9.67773C115.445 7.91341 115.885 6.52669 116.764 5.51758C117.643 4.50846 118.85 4.00391 120.387 4.00391C121.812 4.00391 122.939 4.43685 123.766 5.30273C124.592 6.16862 125.006 7.36003 125.006 8.87695V10.1172H117.809C117.841 11.1654 118.124 11.9727 118.658 12.5391C119.192 13.099 119.944 13.3789 120.914 13.3789C121.552 13.3789 122.145 13.3203 122.691 13.2031C123.245 13.0794 123.837 12.8776 124.469 12.5977V14.4629C123.909 14.7298 123.342 14.9186 122.77 15.0293C122.197 15.14 121.542 15.1953 120.807 15.1953ZM120.387 5.74219C119.658 5.74219 119.072 5.97331 118.629 6.43555C118.193 6.89779 117.932 7.57161 117.848 8.45703H122.75C122.737 7.5651 122.522 6.89128 122.105 6.43555C121.689 5.97331 121.116 5.74219 120.387 5.74219ZM137.115 15H134.811V8.35938C134.811 7.52604 134.641 6.9043 134.303 6.49414C133.971 6.08398 133.44 5.87891 132.711 5.87891C131.741 5.87891 131.031 6.16536 130.582 6.73828C130.133 7.3112 129.908 8.27148 129.908 9.61914V15H127.613V4.19922H129.41L129.732 5.61523H129.85C130.175 5.10091 130.637 4.70378 131.236 4.42383C131.835 4.14388 132.499 4.00391 133.229 4.00391C135.82 4.00391 137.115 5.32227 137.115 7.95898V15ZM144.332 13.3398C144.892 13.3398 145.452 13.252 146.012 13.0762V14.8047C145.758 14.9154 145.429 15.0065 145.025 15.0781C144.628 15.1562 144.215 15.1953 143.785 15.1953C141.611 15.1953 140.523 14.0495 140.523 11.7578V5.9375H139.049V4.92188L140.631 4.08203L141.412 1.79688H142.828V4.19922H145.904V5.9375H142.828V11.7188C142.828 12.2721 142.965 12.6823 143.238 12.9492C143.518 13.2096 143.883 13.3398 144.332 13.3398ZM7.05664 42L2.91602 30.0762H2.83789C2.94857 31.847 3.00391 33.5072 3.00391 35.0566V42H0.884766V27.7227H4.17578L8.14062 39.0801H8.19922L12.2812 27.7227H15.582V42H13.3359V34.9395C13.3359 34.2298 13.3522 33.3053 13.3848 32.166C13.4238 31.0267 13.4564 30.3366 13.4824 30.0957H13.4043L9.11719 42H7.05664ZM23.8145 42.1953C22.1348 42.1953 20.8197 41.707 19.8691 40.7305C18.9251 39.7474 18.4531 38.3965 18.4531 36.6777C18.4531 34.9134 18.8926 33.5267 19.7715 32.5176C20.6504 31.5085 21.8581 31.0039 23.3945 31.0039C24.8203 31.0039 25.9466 31.4368 26.7734 32.3027C27.6003 33.1686 28.0137 34.36 28.0137 35.877V37.1172H20.8164C20.849 38.1654 21.1322 38.9727 21.666 39.5391C22.1999 40.099 22.9518 40.3789 23.9219 40.3789C24.5599 40.3789 25.1523 40.3203 25.6992 40.2031C26.2526 40.0794 26.8451 39.8776 27.4766 39.5977V41.4629C26.9167 41.7298 26.3503 41.9186 25.7773 42.0293C25.2044 42.14 24.5501 42.1953 23.8145 42.1953ZM23.3945 32.7422C22.6654 32.7422 22.0794 32.9733 21.6367 33.4355C21.2005 33.8978 20.9401 34.5716 20.8555 35.457H25.7578C25.7448 34.5651 25.5299 33.8913 25.1133 33.4355C24.6966 32.9733 24.1237 32.7422 23.3945 32.7422ZM34.6445 40.3398C35.2044 40.3398 35.7643 40.252 36.3242 40.0762V41.8047C36.0703 41.9154 35.7415 42.0065 35.3379 42.0781C34.9408 42.1562 34.5273 42.1953 34.0977 42.1953C31.9232 42.1953 30.8359 41.0495 30.8359 38.7578V32.9375H29.3613V31.9219L30.9434 31.082L31.7246 28.7969H33.1406V31.1992H36.2168V32.9375H33.1406V38.7188C33.1406 39.2721 33.2773 39.6823 33.5508 39.9492C33.8307 40.2096 34.1953 40.3398 34.6445 40.3398ZM47.9941 42H45.6895V35.3594C45.6895 34.526 45.5202 33.9043 45.1816 33.4941C44.8496 33.084 44.319 32.8789 43.5898 32.8789C42.6263 32.8789 41.9167 33.1686 41.4609 33.748C41.0117 34.321 40.7871 35.2845 40.7871 36.6387V42H38.4922V26.8047H40.7871V30.6621C40.7871 31.2806 40.748 31.9414 40.6699 32.6445H40.8164C41.1289 32.1237 41.5618 31.7201 42.1152 31.4336C42.6751 31.1471 43.3262 31.0039 44.0684 31.0039C46.6855 31.0039 47.9941 32.3223 47.9941 34.959V42ZM60.7676 36.5801C60.7676 38.3444 60.3151 39.7214 59.4102 40.7109C58.5052 41.7005 57.2454 42.1953 55.6309 42.1953C54.6217 42.1953 53.7298 41.9674 52.9551 41.5117C52.1803 41.056 51.5846 40.4017 51.168 39.5488C50.7513 38.696 50.543 37.7064 50.543 36.5801C50.543 34.8288 50.9922 33.4616 51.8906 32.4785C52.7891 31.4954 54.0553 31.0039 55.6895 31.0039C57.252 31.0039 58.4889 31.5085 59.4004 32.5176C60.3118 33.5202 60.7676 34.8743 60.7676 36.5801ZM52.9062 36.5801C52.9062 39.0736 53.8275 40.3203 55.6699 40.3203C57.4928 40.3203 58.4043 39.0736 58.4043 36.5801C58.4043 34.1126 57.4863 32.8789 55.6504 32.8789C54.6868 32.8789 53.987 33.1979 53.5508 33.8359C53.1211 34.474 52.9062 35.3887 52.9062 36.5801ZM67.0566 42.1953C65.709 42.1953 64.6576 41.707 63.9023 40.7305C63.1471 39.7539 62.7695 38.3835 62.7695 36.6191C62.7695 34.8483 63.1504 33.4714 63.9121 32.4883C64.6803 31.4987 65.7415 31.0039 67.0957 31.0039C68.515 31.0039 69.5957 31.528 70.3379 32.5762H70.4551C70.3444 31.8014 70.2891 31.1895 70.2891 30.7402V26.8047H72.5938V42H70.7969L70.3965 40.584H70.2891C69.5534 41.6582 68.4759 42.1953 67.0566 42.1953ZM67.6719 40.3398C68.6159 40.3398 69.3027 40.0762 69.7324 39.5488C70.1621 39.015 70.3835 38.1523 70.3965 36.9609V36.6387C70.3965 35.278 70.1751 34.3112 69.7324 33.7383C69.2897 33.1654 68.5964 32.8789 67.6523 32.8789C66.8451 32.8789 66.2233 33.2077 65.7871 33.8652C65.3509 34.5163 65.1328 35.4473 65.1328 36.6582C65.1328 37.8561 65.3444 38.7708 65.7676 39.4023C66.1908 40.0273 66.8255 40.3398 67.6719 40.3398ZM83.1309 38.9238C83.1309 39.9785 82.7467 40.7891 81.9785 41.3555C81.2103 41.9154 80.11 42.1953 78.6777 42.1953C77.2389 42.1953 76.0833 41.9772 75.2109 41.541V39.5586C76.4805 40.1445 77.6621 40.4375 78.7559 40.4375C80.1686 40.4375 80.875 40.0111 80.875 39.1582C80.875 38.8848 80.7969 38.6569 80.6406 38.4746C80.4844 38.2923 80.2272 38.1035 79.8691 37.9082C79.5111 37.7129 79.013 37.4915 78.375 37.2441C77.1315 36.7624 76.2884 36.2806 75.8457 35.7988C75.4095 35.3171 75.1914 34.6921 75.1914 33.9238C75.1914 32.9993 75.5625 32.2832 76.3047 31.7754C77.0534 31.2611 78.069 31.0039 79.3516 31.0039C80.6211 31.0039 81.8223 31.2611 82.9551 31.7754L82.2129 33.5039C81.0475 33.0221 80.0677 32.7812 79.2734 32.7812C78.0625 32.7812 77.457 33.1263 77.457 33.8164C77.457 34.1549 77.6133 34.4414 77.9258 34.6758C78.2448 34.9102 78.9349 35.2324 79.9961 35.6426C80.888 35.9876 81.5358 36.3034 81.9395 36.5898C82.3431 36.8763 82.6426 37.2083 82.8379 37.5859C83.0332 37.957 83.1309 38.403 83.1309 38.9238ZM99.918 42L98.4922 38.0352H93.0332L91.6367 42H89.1758L94.5176 27.6641H97.0566L102.398 42H99.918ZM97.877 36.0234L96.5391 32.1367C96.4414 31.8763 96.3047 31.4661 96.1289 30.9062C95.9596 30.3464 95.8424 29.9362 95.7773 29.6758C95.6016 30.4766 95.3444 31.3522 95.0059 32.3027L93.7168 36.0234H97.877ZM108.395 42.1953C106.76 42.1953 105.517 41.7201 104.664 40.7695C103.818 39.8125 103.395 38.4421 103.395 36.6582C103.395 34.8418 103.837 33.4453 104.723 32.4688C105.615 31.4922 106.9 31.0039 108.58 31.0039C109.719 31.0039 110.745 31.2155 111.656 31.6387L110.963 33.4844C109.993 33.1068 109.192 32.918 108.561 32.918C106.692 32.918 105.758 34.1582 105.758 36.6387C105.758 37.8496 105.989 38.7611 106.451 39.373C106.92 39.9785 107.604 40.2812 108.502 40.2812C109.524 40.2812 110.491 40.0273 111.402 39.5195V41.5215C110.992 41.7624 110.553 41.9349 110.084 42.0391C109.622 42.1432 109.059 42.1953 108.395 42.1953ZM118.297 42.1953C116.663 42.1953 115.419 41.7201 114.566 40.7695C113.72 39.8125 113.297 38.4421 113.297 36.6582C113.297 34.8418 113.74 33.4453 114.625 32.4688C115.517 31.4922 116.803 31.0039 118.482 31.0039C119.622 31.0039 120.647 31.2155 121.559 31.6387L120.865 33.4844C119.895 33.1068 119.094 32.918 118.463 32.918C116.594 32.918 115.66 34.1582 115.66 36.6387C115.66 37.8496 115.891 38.7611 116.354 39.373C116.822 39.9785 117.506 40.2812 118.404 40.2812C119.426 40.2812 120.393 40.0273 121.305 39.5195V41.5215C120.895 41.7624 120.455 41.9349 119.986 42.0391C119.524 42.1432 118.961 42.1953 118.297 42.1953ZM128.561 42.1953C126.881 42.1953 125.566 41.707 124.615 40.7305C123.671 39.7474 123.199 38.3965 123.199 36.6777C123.199 34.9134 123.639 33.5267 124.518 32.5176C125.396 31.5085 126.604 31.0039 128.141 31.0039C129.566 31.0039 130.693 31.4368 131.52 32.3027C132.346 33.1686 132.76 34.36 132.76 35.877V37.1172H125.562C125.595 38.1654 125.878 38.9727 126.412 39.5391C126.946 40.099 127.698 40.3789 128.668 40.3789C129.306 40.3789 129.898 40.3203 130.445 40.2031C130.999 40.0794 131.591 39.8776 132.223 39.5977V41.4629C131.663 41.7298 131.096 41.9186 130.523 42.0293C129.951 42.14 129.296 42.1953 128.561 42.1953ZM128.141 32.7422C127.411 32.7422 126.826 32.9733 126.383 33.4355C125.947 33.8978 125.686 34.5716 125.602 35.457H130.504C130.491 34.5651 130.276 33.8913 129.859 33.4355C129.443 32.9733 128.87 32.7422 128.141 32.7422ZM140.846 42.1953C139.479 42.1953 138.417 41.7038 137.662 40.7207H137.525C137.617 41.6322 137.662 42.1855 137.662 42.3809V46.8047H135.367V31.1992H137.223C137.275 31.401 137.382 31.8828 137.545 32.6445H137.662C138.378 31.5508 139.452 31.0039 140.885 31.0039C142.232 31.0039 143.281 31.4922 144.029 32.4688C144.785 33.4453 145.162 34.8158 145.162 36.5801C145.162 38.3444 144.778 39.7214 144.01 40.7109C143.248 41.7005 142.193 42.1953 140.846 42.1953ZM140.289 32.8789C139.378 32.8789 138.71 33.1458 138.287 33.6797C137.87 34.2135 137.662 35.0664 137.662 36.2383V36.5801C137.662 37.8952 137.87 38.849 138.287 39.4414C138.704 40.0273 139.384 40.3203 140.328 40.3203C141.122 40.3203 141.734 39.9948 142.164 39.3438C142.594 38.6927 142.809 37.765 142.809 36.5605C142.809 35.3496 142.594 34.4349 142.164 33.8164C141.741 33.1914 141.116 32.8789 140.289 32.8789ZM151.852 40.3398C152.411 40.3398 152.971 40.252 153.531 40.0762V41.8047C153.277 41.9154 152.949 42.0065 152.545 42.0781C152.148 42.1562 151.734 42.1953 151.305 42.1953C149.13 42.1953 148.043 41.0495 148.043 38.7578V32.9375H146.568V31.9219L148.15 31.082L148.932 28.7969H150.348V31.1992H153.424V32.9375H150.348V38.7188C150.348 39.2721 150.484 39.6823 150.758 39.9492C151.038 40.2096 151.402 40.3398 151.852 40.3398ZM160.416 42.1953C158.736 42.1953 157.421 41.707 156.471 40.7305C155.527 39.7474 155.055 38.3965 155.055 36.6777C155.055 34.9134 155.494 33.5267 156.373 32.5176C157.252 31.5085 158.46 31.0039 159.996 31.0039C161.422 31.0039 162.548 31.4368 163.375 32.3027C164.202 33.1686 164.615 34.36 164.615 35.877V37.1172H157.418C157.451 38.1654 157.734 38.9727 158.268 39.5391C158.801 40.099 159.553 40.3789 160.523 40.3789C161.161 40.3789 161.754 40.3203 162.301 40.2031C162.854 40.0794 163.447 39.8776 164.078 39.5977V41.4629C163.518 41.7298 162.952 41.9186 162.379 42.0293C161.806 42.14 161.152 42.1953 160.416 42.1953ZM159.996 32.7422C159.267 32.7422 158.681 32.9733 158.238 33.4355C157.802 33.8978 157.542 34.5716 157.457 35.457H162.359C162.346 34.5651 162.132 33.8913 161.715 33.4355C161.298 32.9733 160.725 32.7422 159.996 32.7422ZM170.865 42.1953C169.518 42.1953 168.466 41.707 167.711 40.7305C166.956 39.7539 166.578 38.3835 166.578 36.6191C166.578 34.8483 166.959 33.4714 167.721 32.4883C168.489 31.4987 169.55 31.0039 170.904 31.0039C172.324 31.0039 173.404 31.528 174.146 32.5762H174.264C174.153 31.8014 174.098 31.1895 174.098 30.7402V26.8047H176.402V42H174.605L174.205 40.584H174.098C173.362 41.6582 172.285 42.1953 170.865 42.1953ZM171.48 40.3398C172.424 40.3398 173.111 40.0762 173.541 39.5488C173.971 39.015 174.192 38.1523 174.205 36.9609V36.6387C174.205 35.278 173.984 34.3112 173.541 33.7383C173.098 33.1654 172.405 32.8789 171.461 32.8789C170.654 32.8789 170.032 33.2077 169.596 33.8652C169.16 34.5163 168.941 35.4473 168.941 36.6582C168.941 37.8561 169.153 38.7708 169.576 39.4023C169.999 40.0273 170.634 40.3398 171.48 40.3398Z" fill="#050F19"/>
</svg>
